<svg width="27" height="27" viewBox="0 0 27 27" fill="none" xmlns="http://www.w3.org/2000/svg">
<path fill-rule="evenodd" clip-rule="evenodd" d="M0 13.5078C0 6.05645 6.05937 0 13.5 0C20.9407 0 27 6.05645 27 13.5078C27 20.9436 20.9407 27 13.5 27C6.05937 27 0 20.9436 0 13.5078ZM18.4518 14.8741C18.5951 14.7308 18.7775 14.5094 18.8166 14.4573C19.0251 14.1838 19.1294 13.8452 19.1294 13.5078C19.1294 13.1288 19.0121 12.7772 18.7906 12.4906C18.7724 12.4725 18.7369 12.4338 18.6905 12.3834C18.6039 12.289 18.4794 12.1536 18.3605 12.0347C17.292 10.8886 14.5034 9.01304 13.0439 8.43995C12.8224 8.35008 12.2621 8.15341 11.9624 8.14039C11.6757 8.14039 11.402 8.20551 11.1414 8.33576C10.8157 8.5181 10.555 8.80464 10.4117 9.14328C10.3205 9.37773 10.1771 10.0811 10.1771 10.0941C10.0338 10.8625 9.95561 12.1129 9.95561 13.4935C9.95561 14.8103 10.0338 16.0073 10.1511 16.7887C10.1543 16.792 10.1655 16.8478 10.1829 16.9347C10.2359 17.1986 10.3462 17.7486 10.4638 17.974C10.7505 18.521 11.3108 18.8597 11.9102 18.8597H11.9624C12.3533 18.8466 13.1742 18.508 13.1742 18.495C14.5555 17.9219 17.279 16.1375 18.3736 14.9523L18.4518 14.8741Z" fill="#C10606"/>
</svg>
