<svg width="340" height="250" viewBox="0 0 340 250" fill="none" xmlns="http://www.w3.org/2000/svg">
<path opacity="0.1" d="M3.65041 119.859C9.00346 140.542 20.3259 158.421 38.2187 167.088C75.4158 185.1 159.305 175.811 221.914 165.147C254.301 159.632 282.767 144.412 303.446 122.992L3.65041 119.859Z" fill="#C10606"/>
<path opacity="0.1" d="M331.97 22.4997H297.618C295.988 22.4997 294.65 21.292 294.65 19.8161C294.65 18.3403 295.988 17.1294 297.618 17.1294H303.56C301.926 17.1294 300.592 15.9217 300.592 14.4427C300.592 12.9638 301.926 11.7591 303.56 11.7591H299.319C297.686 11.7591 296.348 10.5513 296.348 9.07243C296.348 7.59352 297.686 6.38882 299.319 6.38882H317.249C313.27 4.7158 308.62 3.5265 303.261 2.90105C254.368 -2.77737 236.913 0.978459 230.756 4.83904C223.081 9.71097 214.555 13.0915 205.627 14.8032C175.462 20.4323 119.051 27.2045 67.9208 12.6465C42.5084 5.39671 23.6202 17.6317 12.3008 38.0838H337.937C337.512 32.1404 336.239 26.6499 333.903 21.8466C333.35 22.2736 332.669 22.5035 331.97 22.4997Z" fill="#C10606"/>
<path opacity="0.1" d="M0.739294 76.6867C-0.580182 88.7157 -0.131653 100.873 2.07062 112.772L303.678 122.752C311.98 114.143 319.034 104.413 324.634 93.8451L0.739294 76.6867ZM120.029 102.429H114.09C115.723 102.429 117.061 103.64 117.061 105.116C117.061 106.592 115.723 107.799 114.09 107.799H79.7376C78.1073 107.799 76.7698 106.592 76.7698 105.116C76.7698 103.64 78.1073 102.429 79.7376 102.429H85.6792C84.0459 102.429 82.7115 101.221 82.7115 99.7454C82.7115 98.2696 84.0459 97.0587 85.6792 97.0587H81.4356C79.8023 97.0587 78.4648 95.8509 78.4648 94.3751C78.4648 92.8993 79.8023 91.6884 81.4356 91.6884H115.788C117.422 91.6884 118.756 92.8962 118.756 94.3751C118.756 95.854 117.422 97.0587 115.788 97.0587H120.029C121.662 97.0587 122.996 98.2665 122.996 99.7454C122.996 101.224 121.662 102.429 120.029 102.429Z" fill="#C10606"/>
<path opacity="0.1" d="M337.949 38.2687L8.66752 45.5093C4.66121 54.8233 2.00472 65.3544 0.781254 76.2676H332.18C334.337 69.8827 335.937 63.3233 336.963 56.6627C337.952 50.251 338.347 44.0488 337.949 38.2687ZM67.6373 62.0084H61.6987C63.3321 62.0084 64.6696 63.2193 64.6696 64.6951C64.6696 66.1709 63.3321 67.3818 61.6987 67.3818H27.3462C25.7159 67.3818 24.3784 66.1709 24.3784 64.6951C24.3784 63.2193 25.7159 62.0084 27.3462 62.0084H33.2878C31.6545 62.0084 30.3201 60.8006 30.3201 59.3248C30.3201 57.8489 31.6545 56.6381 33.2878 56.6381H29.0442C27.4109 56.6381 26.0734 55.4303 26.0734 53.9545C26.0734 52.4786 27.4109 51.2678 29.0442 51.2678H63.3968C65.0301 51.2678 66.3645 52.4756 66.3645 53.9545C66.3645 55.4334 65.0301 56.6381 63.3968 56.6381H67.6373C69.2707 56.6381 70.6051 57.8489 70.6051 59.3248C70.6051 60.8006 69.2707 62.0084 67.6373 62.0084Z" fill="#C10606"/>
<path opacity="0.1" d="M167.984 240.655C244.061 240.655 305.733 234.983 305.733 227.986C305.733 220.989 244.061 215.316 167.984 215.316C91.907 215.316 30.2345 220.989 30.2345 227.986C30.2345 234.983 91.907 240.655 167.984 240.655Z" fill="#C10606"/>
<path d="M308.377 123.34C308.375 123.319 308.375 123.297 308.377 123.276C308.377 123.242 308.377 123.211 308.377 123.18C308.315 122.827 308.182 122.491 307.985 122.191C307.28 121.063 306.298 120.133 305.132 119.492C303.098 118.377 300.302 117.899 299.489 115.77C299.239 115.111 299.233 114.393 299.11 113.703C298.894 112.627 298.399 111.628 297.675 110.804C296.951 109.98 296.022 109.362 294.983 109.01C294.016 108.687 292.971 108.597 292.031 108.197C289.929 107.303 288.82 105.1 287.88 103.064C286.664 100.435 285.447 97.8044 284.231 95.1731C283.306 95.6384 282.111 95.4196 281.245 94.8373C280.41 94.2162 279.746 93.395 279.312 92.4495C278.058 90.0154 277.519 87.2579 276.046 84.9409C274.573 82.6239 271.63 80.7938 269.029 81.8013C268.521 82.055 267.995 82.2722 267.457 82.4514C265.229 82.9721 262.763 80.4271 260.856 81.6626C260.539 81.8658 260.281 82.1484 260.107 82.4822C260.105 82.4617 260.105 82.4411 260.107 82.4206C259.859 82.9218 259.72 83.47 259.7 84.0289C259.7 84.1429 259.7 84.2538 259.7 84.3617C259.7 84.3802 259.7 84.3986 259.7 84.4171C259.7 84.8608 259.728 85.3106 259.734 85.7605C259.741 86.1382 259.712 86.5158 259.648 86.8881V86.8573C259.612 87.0669 259.558 87.273 259.487 87.4735C258.991 88.8046 257.617 89.6765 256.973 90.9274V90.8658C256.9 91.0019 256.837 91.1429 256.785 91.2879C256.67 91.6158 256.611 91.9604 256.609 92.3078C256.554 94.6586 259.047 96.8708 259.336 99.3942C259.543 101.181 259.953 101.754 261.472 102.765L261.805 102.987C261.672 102.987 261.537 103.005 261.386 103.008C261.327 103.009 261.268 103.016 261.21 103.027C260.942 102.953 260.661 102.94 260.387 102.988C260.113 103.036 259.853 103.144 259.626 103.304C258.461 104.228 255.706 103.517 254.483 103.304C253.259 103.091 249.068 103.665 248.482 105.988C247.897 108.311 246.892 113.105 246.892 113.105C246.892 113.105 246.892 116.146 246.519 116.713C246.505 116.753 246.505 116.796 246.519 116.836C246.519 117.69 246.55 122.82 245.724 124.141C245.521 124.449 245.536 125.13 245.687 125.968C244.818 127.087 244.001 128.393 244.146 129.25C244.411 131.003 247.968 136.515 253.065 133.563C253.065 133.563 255.965 128.261 252.316 125.442L252.473 124.825C253.577 126.181 254.393 127.155 254.393 127.155C254.393 127.155 254.436 127.269 254.504 127.463H254.393C254.869 128.758 255.158 130.116 255.25 131.493C255.236 131.998 255.145 132.498 254.979 132.975H255.074C255.047 133.08 255.016 133.184 254.979 133.283C254.8 133.803 254.465 134.256 254.02 134.58C251.472 136.386 248.553 149.28 248.553 149.28C248.553 149.28 242.772 170.123 241.616 171.309C240.661 172.283 246.664 175.025 251.17 174.699C251.799 174.661 252.42 174.543 253.019 174.347C253.046 174.656 253.077 174.964 253.108 175.244C253.204 176.168 253.302 177.025 253.364 177.293C253.524 177.965 253.842 184.823 253.842 184.823C253.842 184.823 253.191 189.278 253.348 192.378C253.348 192.59 253.376 192.794 253.395 192.994L252.834 193.08C251.983 194.991 255.487 210.929 255.965 212.269C256.281 213.325 256.459 214.418 256.495 215.52C256.495 215.52 256.187 216.654 256.443 217.273C256.602 217.651 256.706 218.051 256.751 218.459C256.751 218.459 256.541 219.488 256.859 220.16C257.176 220.832 256.806 222.009 256.806 222.009C256.806 222.009 256.701 226.652 255.746 229.178C255.486 229.858 255.41 230.595 255.527 231.313C255.643 232.032 255.947 232.707 256.409 233.27C256.475 233.358 256.547 233.441 256.624 233.519C256.624 233.519 261.894 233.563 262.822 233.519H262.942C263.315 233.467 264.27 229.289 263.42 227.277C262.569 225.265 263.315 222.788 263.315 222.788V219.128C263.315 219.128 264.27 218.247 263.315 216.355C262.36 214.463 262.517 213.89 262.517 213.89C262.517 213.89 263.58 210.846 262.464 209.866C261.349 208.886 262.677 205.17 262.677 205.17L263.053 192.785C262.856 192.721 262.655 192.669 262.452 192.631C262.43 192.427 262.409 192.218 262.387 191.996C262.169 189.753 261.981 186.703 262.467 185.834C262.954 184.965 263.189 177.379 263.266 172.108L268.123 172.292C268.224 174.757 268.332 177.006 268.4 177.293C268.56 177.965 268.881 184.823 268.881 184.823C268.881 184.823 268.227 189.278 268.384 192.378C268.384 192.59 268.412 192.794 268.431 192.994L267.87 193.08C267.019 194.991 270.523 210.929 271.001 212.269C271.318 213.325 271.497 214.418 271.534 215.52C271.534 215.52 271.226 216.654 271.479 217.273C271.638 217.651 271.742 218.051 271.787 218.459C271.787 218.459 271.577 219.488 271.895 220.16C272.212 220.832 271.842 222.009 271.842 222.009C271.842 222.009 271.737 226.652 270.782 229.178C270.526 229.859 270.454 230.596 270.575 231.313C270.695 232.03 271.002 232.703 271.466 233.264C271.533 233.351 271.605 233.435 271.682 233.513C271.682 233.513 276.952 233.556 277.879 233.513H278C278.372 233.461 279.328 229.283 278.477 227.271C277.627 225.259 278.373 222.782 278.373 222.782V219.128C278.373 219.128 279.328 218.247 278.373 216.355C277.417 214.463 277.574 213.89 277.574 213.89C277.574 213.89 278.638 210.846 277.522 209.866C276.406 208.886 277.735 205.17 277.735 205.17L278.117 192.785C277.915 192.719 277.709 192.668 277.5 192.631C277.479 192.427 277.457 192.218 277.436 191.996C277.217 189.753 277.029 186.703 277.516 185.834C277.907 185.122 278.132 180.537 278.234 176.061C278.234 175.752 278.234 175.444 278.258 175.136C280.49 175.043 282.712 174.794 284.909 174.391C284.909 174.391 282.311 165.206 283.106 163.712C283.448 163.068 282.955 159.638 282.28 155.944C283.221 156.706 284.392 157.129 285.602 157.146C286.764 159.38 290.299 164.519 292.29 165.311C294.626 166.235 292.872 158.039 291.76 156.853C291.233 156.205 290.79 155.494 290.441 154.736C290.472 154.699 290.505 154.669 290.536 154.635C290.567 154.601 290.592 145.915 290.059 146.072C289.525 146.23 288.891 144.781 288.891 144.781L287.245 130.34L286.555 124.295C287.131 124.721 287.815 124.992 288.404 125.414C290.006 126.588 290.53 128.649 291.233 130.473C291.812 131.973 292.626 133.462 293.96 134.404C295.295 135.347 297.251 135.597 298.583 134.642C299.815 133.745 300.179 132.128 300.45 130.652C302.688 131.437 305.403 129.336 305.113 127.041C305.042 126.474 304.833 125.854 305.128 125.358C305.72 124.379 307.594 124.949 308.21 123.981C308.314 123.814 308.367 123.62 308.364 123.423C308.374 123.38 308.377 123.362 308.377 123.34ZM278.45 131.283C278.416 131.835 279.174 136.265 279.79 139.772C279.285 137.587 278.271 135.255 276.274 133.656C276.274 133.656 276.274 133.545 276.249 133.348H276.274C276.274 133.348 276.191 132.466 276.178 131.212C276.182 130.101 276.264 128.991 276.425 127.891V127.863H276.385C276.385 127.771 276.409 127.675 276.425 127.583C276.547 126.655 276.799 125.748 277.174 124.89C277.339 124.554 277.53 124.23 277.744 123.923C278.074 126.902 278.48 130.726 278.45 131.283ZM280.108 141.549C280.379 143.062 280.573 144.125 280.573 144.125L282.209 155.359V155.411C281.328 150.669 280.203 145.672 280.203 145.672C280.318 144.298 280.286 142.916 280.108 141.549Z" fill="url(#paint0_linear_1658_4351)"/>
<path d="M260.051 100.01C259.743 97.1635 256.661 94.7079 257.586 91.9996C258.088 90.5238 259.66 89.6211 260.19 88.1545C260.541 87.187 260.384 86.124 260.387 85.095C260.39 84.0659 260.63 82.9166 261.487 82.3466C263.336 81.1142 265.715 83.6499 267.873 83.1323C268.394 82.954 268.902 82.7377 269.392 82.4853C271.91 81.484 274.757 83.3079 276.172 85.6126C277.586 87.9172 278.117 90.6655 279.331 93.0873C279.745 94.0225 280.387 94.8391 281.198 95.4628C282.037 96.042 283.183 96.2608 284.089 95.7986L287.618 103.655C288.542 105.68 289.602 107.873 291.624 108.764C292.53 109.161 293.541 109.251 294.478 109.574C295.496 109.933 296.402 110.553 297.105 111.373C297.808 112.192 298.284 113.181 298.484 114.242C298.604 114.932 298.607 115.647 298.851 116.303C299.637 118.423 302.339 118.897 304.309 120C305.448 120.643 306.403 121.567 307.082 122.684C307.39 123.217 307.655 123.916 307.326 124.44C306.731 125.402 304.922 124.835 304.349 125.811C304.059 126.304 304.262 126.921 304.349 127.487C304.629 129.771 302 131.863 299.837 131.08C299.575 132.55 299.221 134.161 298.031 135.051C296.752 136.007 294.857 135.754 293.565 134.817C292.274 133.881 291.491 132.399 290.931 130.904C290.249 129.087 289.741 127.035 288.191 125.867C287.63 125.448 286.958 125.177 286.41 124.755C285.177 123.812 284.561 122.256 284.12 120.749C283.55 118.87 283.097 116.938 282.271 115.163C281.445 113.388 280.138 111.737 278.348 110.927C276.668 110.172 274.733 110.221 272.998 109.608C270.011 108.554 267.802 106.043 264.831 104.86C263.881 104.461 262.981 103.952 262.15 103.344C260.655 102.361 260.248 101.791 260.051 100.01Z" fill="#3F3D56"/>
<g opacity="0.1">
<path opacity="0.1" d="M260.327 87.5506C260.391 87.4301 260.447 87.3056 260.494 87.1778C260.842 86.2103 260.688 85.1474 260.691 84.1183C260.691 83.7751 260.723 83.4326 260.787 83.0954C260.502 83.7042 260.364 84.371 260.383 85.0426C260.38 85.8714 260.478 86.7403 260.327 87.5506Z" fill="black"/>
<path opacity="0.1" d="M298.321 134.084C297.042 135.036 295.146 134.787 293.855 133.847C292.564 132.907 291.778 131.431 291.232 129.931C290.551 128.113 290.046 126.061 288.493 124.893C287.935 124.474 287.26 124.2 286.715 123.781C285.482 122.838 284.866 121.282 284.422 119.791C283.852 117.912 283.402 115.98 282.573 114.205C281.744 112.43 280.443 110.779 278.65 109.969C276.973 109.214 275.038 109.263 273.303 108.65C270.313 107.596 268.104 105.085 265.136 103.902C264.186 103.502 263.285 102.993 262.452 102.386C260.991 101.379 260.603 100.809 260.387 99.0307C260.079 96.3625 257.367 94.0363 257.789 91.5222C257.72 91.6582 257.66 91.7981 257.607 91.9412C256.683 94.6525 259.764 97.1082 260.073 99.952C260.273 101.73 260.689 102.3 262.137 103.307C262.971 103.914 263.871 104.423 264.822 104.823C267.789 106.006 269.999 108.52 272.988 109.571C274.723 110.187 276.659 110.135 278.335 110.89C280.129 111.7 281.417 113.355 282.258 115.126C283.1 116.898 283.55 118.824 284.107 120.712C284.56 122.203 285.155 123.759 286.4 124.702C286.958 125.121 287.633 125.395 288.178 125.815C289.719 126.982 290.237 129.034 290.918 130.852C291.479 132.346 292.265 133.825 293.556 134.762C294.847 135.699 296.743 135.951 298.022 134.999C298.838 134.383 299.254 133.443 299.529 132.436C299.285 133.086 298.867 133.656 298.321 134.084Z" fill="black"/>
<path opacity="0.1" d="M304.654 124.844C304.536 125.065 304.485 125.315 304.506 125.565C305.203 124.878 306.774 125.282 307.322 124.397C307.45 124.179 307.5 123.924 307.464 123.673C306.749 124.351 305.178 123.947 304.654 124.844Z" fill="black"/>
<path opacity="0.1" d="M300.126 130.113C300.068 130.421 300.009 130.75 299.935 131.071C301.821 131.659 304 130.146 304.308 128.236C303.559 129.706 301.71 130.689 300.126 130.113Z" fill="black"/>
</g>
<path d="M264.033 101.492C264.033 101.492 265.059 103.563 262.029 103.606C259 103.649 263.98 117.052 263.98 117.052L269.016 123.46L275.281 120.071L275.642 110.723L276.104 105.076C276.104 105.076 270.249 103.175 271.327 100.661C272.406 98.1464 264.033 101.492 264.033 101.492Z" fill="#FBBEBE"/>
<path d="M282.218 156.138C282.218 156.138 285.916 159.777 290.231 154.949L286.918 151.433H282.727L282.218 156.138Z" fill="#575A89"/>
<path opacity="0.1" d="M282.619 151.433L282.111 156.138C282.111 156.138 285.809 159.777 290.123 154.949" fill="black"/>
<path d="M288.842 152.074C288.842 152.074 290.33 155.978 291.409 157.158C292.488 158.338 294.183 166.503 291.924 165.579C289.665 164.654 285.35 157.774 285.091 156.594C284.832 155.414 284.734 152.074 284.734 152.074H288.842Z" fill="#FBBEBE"/>
<path d="M256.534 172.101L276.461 172.871L274.15 164.448L264.113 164.244L256.534 172.101Z" fill="#575A89"/>
<path opacity="0.1" d="M259.306 172.101L279.236 172.871L276.924 164.448L266.884 164.244L259.306 172.101Z" fill="black"/>
<path d="M263.057 186.006C262.586 186.884 262.768 189.922 262.98 192.168C263.116 193.598 263.264 194.698 263.264 194.698C263.264 194.698 255.815 197.009 254.687 195.006C254.401 194.498 254.259 193.607 254.209 192.563C254.055 189.482 254.687 185.042 254.687 185.042C254.687 185.042 254.379 178.214 254.225 177.546C254.163 177.277 254.068 176.427 253.975 175.506C253.84 174.138 253.71 172.616 253.71 172.616L263.88 167.224C263.88 167.224 263.88 168.235 263.862 169.79C263.806 174.677 263.643 184.928 263.057 186.006Z" fill="#FBBEBE"/>
<path opacity="0.1" d="M263.263 194.698C263.263 194.698 255.814 197.009 254.686 195.006C254.399 194.498 254.258 193.607 254.208 192.563C255.749 192.329 260.44 191.682 262.979 192.168C263.115 193.598 263.263 194.698 263.263 194.698Z" fill="black"/>
<path d="M263.519 233.519H263.402C262.505 233.553 257.408 233.519 257.408 233.519C257.333 233.441 257.263 233.359 257.198 233.273C256.748 232.709 256.45 232.038 256.334 231.326C256.218 230.614 256.287 229.884 256.535 229.206C257.46 226.689 257.562 222.067 257.562 222.067C257.562 222.067 257.922 220.887 257.614 220.218C257.306 219.55 257.509 218.524 257.509 218.524C257.462 218.118 257.358 217.721 257.201 217.344C256.945 216.728 257.254 215.597 257.254 215.597C257.218 214.501 257.045 213.414 256.739 212.362C256.277 211.028 252.887 195.16 253.709 193.259C253.709 193.259 260.899 192.027 263.624 192.951L263.263 205.275C263.263 205.275 261.978 208.972 263.057 209.949C264.135 210.926 263.109 213.955 263.109 213.955C263.109 213.955 262.955 214.518 263.879 216.419C264.804 218.32 263.879 219.192 263.879 219.192V222.837C263.879 222.837 263.161 225.302 263.981 227.305C264.801 229.308 263.879 233.455 263.519 233.519Z" fill="#3F3D56"/>
<path d="M277.63 186.006C277.158 186.884 277.34 189.922 277.553 192.168C277.688 193.598 277.836 194.698 277.836 194.698C277.836 194.698 270.387 197.009 269.259 195.006C268.973 194.498 268.831 193.607 268.782 192.563C268.628 189.482 269.259 185.042 269.259 185.042C269.259 185.042 268.951 178.214 268.797 177.546C268.714 177.185 268.569 173.747 268.455 170.662C268.36 168.031 268.283 165.653 268.283 165.653L278.452 167.224C278.452 167.224 278.452 171.695 278.326 176.289C278.215 180.744 278.009 185.31 277.63 186.006Z" fill="#FBBEBE"/>
<path opacity="0.1" d="M277.837 194.698C277.837 194.698 270.388 197.009 269.26 195.006C268.974 194.498 268.832 193.607 268.783 192.563C270.323 192.329 275.014 191.682 277.553 192.168C277.689 193.598 277.837 194.698 277.837 194.698Z" fill="black"/>
<path d="M278.093 233.519H277.975C277.079 233.553 271.981 233.519 271.981 233.519C271.907 233.441 271.837 233.359 271.772 233.273C271.321 232.709 271.024 232.039 270.908 231.326C270.792 230.614 270.861 229.884 271.109 229.206C272.034 226.676 272.126 222.055 272.126 222.055C272.126 222.055 272.487 220.875 272.179 220.206C271.87 219.538 272.074 218.512 272.074 218.512C272.027 218.106 271.923 217.709 271.766 217.332C271.51 216.715 271.818 215.585 271.818 215.585C271.783 214.489 271.61 213.402 271.303 212.349C270.841 211.015 267.451 195.148 268.274 193.247C268.274 193.247 275.464 192.014 278.188 192.939L277.828 205.263C277.828 205.263 276.542 208.96 277.621 209.937C278.7 210.914 277.673 213.942 277.673 213.942C277.673 213.942 277.519 214.506 278.444 216.407C279.368 218.308 278.444 219.18 278.444 219.18V222.825C278.444 222.825 277.726 225.29 278.546 227.293C279.365 229.295 278.453 233.455 278.093 233.519Z" fill="#3F3D56"/>
<path opacity="0.1" d="M268.04 103.914C272.04 103.914 275.282 100.672 275.282 96.6736C275.282 92.6747 272.04 89.4331 268.04 89.4331C264.041 89.4331 260.798 92.6747 260.798 96.6736C260.798 100.672 264.041 103.914 268.04 103.914Z" fill="black"/>
<path d="M268.04 103.606C272.04 103.606 275.282 100.364 275.282 96.3655C275.282 92.3666 272.04 89.1249 268.04 89.1249C264.041 89.1249 260.798 92.3666 260.798 96.3655C260.798 100.364 264.041 103.606 268.04 103.606Z" fill="#FBBEBE"/>
<path opacity="0.1" d="M253.71 172.616L263.88 167.224C263.88 167.224 263.88 168.235 263.862 169.79C262.376 170.678 260.136 172.012 257.982 173.272C256.81 173.959 255.667 174.625 254.687 175.182C254.459 175.306 254.221 175.409 253.975 175.49C253.84 174.138 253.71 172.616 253.71 172.616Z" fill="black"/>
<path opacity="0.1" d="M278.454 167.212C278.454 167.212 278.454 171.682 278.327 176.276H278.29C277.531 176.303 276.77 176.279 276.013 176.205C274.685 176.063 273.622 175.712 273.239 175.016C272.466 173.66 270.299 171.935 268.469 170.65C268.373 168.019 268.296 165.64 268.296 165.64L278.454 167.212Z" fill="black"/>
<path d="M276.56 128.054C276.302 130.06 276.253 132.087 276.412 134.102C281.084 137.954 280.212 146.066 280.212 146.066C280.212 146.066 283.808 162.501 283.038 163.989C282.267 165.477 284.782 174.618 284.782 174.618C282.639 175.025 280.468 175.274 278.289 175.364C277.529 175.391 276.768 175.367 276.011 175.293C274.683 175.151 273.62 174.8 273.238 174.104C271.802 171.59 265.586 167.84 265.586 167.84C265.586 167.84 261.647 170.2 257.98 172.348C256.809 173.035 255.665 173.7 254.685 174.258C253.89 174.68 253.011 174.921 252.112 174.963C247.751 175.287 241.942 172.557 242.867 171.59C243.998 170.407 249.597 149.662 249.597 149.662C249.597 149.662 252.42 136.823 254.886 135.027C255.318 134.7 255.64 134.25 255.81 133.736C256.655 131.391 255.243 127.632 255.243 127.632C255.243 127.632 247.283 117.825 247.64 117.258C247.998 116.691 248.001 113.666 248.001 113.666C248.001 113.666 248.978 108.89 249.542 106.579C250.106 104.268 254.165 103.701 255.345 103.908C256.525 104.114 259.194 104.832 260.322 103.908C261.45 102.983 263.354 104.268 263.354 104.268L268.033 105.556L272.239 103.091C272.239 103.091 276.455 103.307 276.816 103.871C277.176 104.435 282.723 105.516 282.723 105.516C285.546 107.414 285.445 116.454 285.445 116.454C285.445 116.454 278.665 122.357 277.278 125.389C276.919 126.241 276.677 127.137 276.56 128.054Z" fill="#575A89"/>
<path d="M283.91 115.203L285.451 116.436L287.044 130.763L288.634 145.142C288.634 145.142 289.25 146.581 289.765 146.427C290.28 146.273 290.227 154.949 290.227 154.949C290.227 154.949 284.329 151.323 282.215 156.138L280.569 144.526C280.569 144.526 278.461 132.664 278.514 131.739C278.566 130.815 277.435 120.802 277.435 120.802L283.91 115.203Z" fill="#575A89"/>
<path d="M248.779 115.872L247.648 117.258C247.648 117.258 247.753 123.214 246.878 124.653C246.003 126.092 249.294 134.512 250.527 133.998C251.759 133.483 254.533 120.339 254.533 120.185C254.533 120.031 248.779 115.872 248.779 115.872Z" fill="#575A89"/>
<path d="M248.677 124.345C248.677 124.345 245.081 127.99 245.336 129.736C245.592 131.483 249.035 136.971 253.965 134.022C253.965 134.022 258.539 125.423 248.677 124.345Z" fill="#575A89"/>
<path opacity="0.1" d="M263.402 233.529C262.505 233.562 257.408 233.529 257.408 233.529C257.333 233.451 257.264 233.368 257.199 233.282C258.502 232.838 261.319 232.173 263.402 233.529Z" fill="black"/>
<path opacity="0.1" d="M277.982 233.529C277.085 233.562 271.988 233.529 271.988 233.529C271.914 233.451 271.844 233.368 271.779 233.282C273.076 232.838 275.893 232.173 277.982 233.529Z" fill="black"/>
<path opacity="0.1" d="M258.345 143.213C257.559 150.749 257.818 165.705 257.981 172.348C256.81 173.035 255.667 173.7 254.687 174.258C253.892 174.68 253.013 174.921 252.114 174.964C251.787 172.955 256.311 152.321 258.345 143.213Z" fill="black"/>
<path opacity="0.1" d="M259.306 138.937C259.285 139.045 258.912 140.684 258.345 143.213C258.567 141.053 258.875 139.504 259.306 138.937Z" fill="black"/>
<path opacity="0.1" d="M271.817 138.123C271.817 138.123 276.184 165.545 263.253 168.934C263.25 168.922 272.2 167.563 271.817 138.123Z" fill="black"/>
<path opacity="0.1" d="M278.289 175.364C277.529 175.391 276.768 175.368 276.011 175.293L272.523 137.8C274.748 139.254 277.411 165.862 278.289 175.364Z" fill="black"/>
<path opacity="0.1" d="M262.647 92.1074C262.878 92.0891 263.111 92.1131 263.334 92.1783C263.661 92.3413 263.956 92.5626 264.203 92.8315C264.605 93.1673 265.086 93.3957 265.6 93.4954C266.114 93.5951 266.645 93.5628 267.143 93.4015C267.495 93.2445 267.867 93.1406 268.25 93.0934C268.838 93.0934 269.347 93.5247 269.652 94.0177C269.957 94.5107 270.114 95.0961 270.376 95.623C270.638 96.1498 271.057 96.6489 271.633 96.7784C271.91 96.7891 272.181 96.8518 272.435 96.9632C272.59 97.0892 272.709 97.254 272.78 97.4408C273.261 98.4791 273.643 99.7054 274.669 100.214C275.046 100.389 275.458 100.478 275.874 100.476C276.297 100.507 276.721 100.43 277.107 100.254C277.486 100.042 277.799 99.7296 278.013 99.351C278.654 98.2912 278.728 96.9786 278.577 95.7493C278.388 94.1984 277.836 92.7141 276.965 91.4173C276.047 90.1057 274.797 89.0613 273.344 88.3906C271.89 87.7199 270.284 87.447 268.69 87.5998C268.134 87.6624 267.583 87.7654 267.041 87.9079C265.081 88.4317 263.158 89.4115 261.969 91.0537C261.681 91.4636 261.365 91.8528 261.023 92.2184C261.562 92.166 262.104 92.1198 262.647 92.1074Z" fill="black"/>
<path d="M262.647 91.7993C262.878 91.7809 263.111 91.805 263.334 91.8702C263.661 92.0332 263.956 92.2545 264.203 92.5234C264.605 92.8592 265.086 93.0876 265.6 93.1873C266.114 93.287 266.645 93.2547 267.143 93.0934C267.495 92.9363 267.867 92.8325 268.25 92.7853C268.838 92.7853 269.347 93.2166 269.652 93.7096C269.957 94.2026 270.114 94.788 270.376 95.3148C270.638 95.8417 271.057 96.3408 271.633 96.4702C271.91 96.481 272.181 96.5437 272.435 96.6551C272.59 96.7811 272.709 96.9459 272.78 97.1327C273.261 98.171 273.643 99.3973 274.669 99.9056C275.046 100.081 275.458 100.17 275.874 100.168C276.297 100.199 276.721 100.122 277.107 99.9457C277.486 99.7339 277.799 99.4215 278.013 99.0429C278.654 97.9831 278.728 96.6705 278.577 95.4412C278.388 93.8903 277.836 92.406 276.965 91.1092C276.047 89.7976 274.797 88.7532 273.344 88.0825C271.89 87.4118 270.284 87.1389 268.69 87.2917C268.134 87.3543 267.583 87.4573 267.041 87.5998C265.081 88.1236 263.158 89.1034 261.969 90.7456C261.681 91.1555 261.365 91.5447 261.023 91.9103C261.562 91.8579 262.104 91.8117 262.647 91.7993Z" fill="#3F3D56"/>
<path opacity="0.1" d="M254.788 109.041C254.788 109.041 255.148 111.919 253.916 112.637C252.683 113.355 254.788 109.041 254.788 109.041Z" fill="black"/>
<path opacity="0.1" d="M280.931 131.33C280.931 131.33 283.858 127.016 284.271 128.248C284.684 129.481 280.931 131.33 280.931 131.33Z" fill="black"/>
<path opacity="0.1" d="M281.136 132.765C281.136 132.765 284.023 129.222 284.3 130.609C284.578 131.995 281.136 132.765 281.136 132.765Z" fill="black"/>
<path opacity="0.1" d="M272.655 128.547C271.608 128.562 270.586 128.226 269.752 127.592H269.499C268.635 128.382 267.499 128.809 266.328 128.784C265.719 128.799 265.114 128.689 264.549 128.462C263.984 128.236 263.47 127.897 263.04 127.466H262.704C261.817 128.188 260.702 128.573 259.558 128.552C258.414 128.531 257.315 128.106 256.454 127.352L255.249 127.33C255.249 127.33 256.661 131.089 255.816 133.434L276.412 133.8C276.252 131.785 276.302 129.758 276.56 127.752V127.725L275.429 127.703C274.615 128.267 273.645 128.562 272.655 128.547Z" fill="black"/>
<path opacity="0.1" d="M272.655 129.163C271.608 129.178 270.586 128.842 269.752 128.208H269.499C268.635 128.998 267.499 129.425 266.328 129.401C265.719 129.415 265.114 129.305 264.549 129.079C263.984 128.852 263.47 128.513 263.04 128.082H262.704C261.817 128.804 260.702 129.189 259.558 129.169C258.414 129.148 257.315 128.722 256.454 127.968L255.249 127.946C255.249 127.946 256.661 131.705 255.816 134.05L276.412 134.417C276.252 132.401 276.302 130.374 276.56 128.369V128.341L275.429 128.319C274.615 128.883 273.645 129.179 272.655 129.163Z" fill="black"/>
<path d="M272.655 128.855C271.608 128.87 270.586 128.534 269.752 127.9H269.499C268.635 128.69 267.499 129.117 266.328 129.093C265.719 129.107 265.114 128.997 264.549 128.77C263.984 128.544 263.47 128.205 263.04 127.774H262.704C261.817 128.496 260.702 128.881 259.558 128.86C258.414 128.84 257.315 128.414 256.454 127.66L255.249 127.638C255.249 127.638 256.661 131.397 255.816 133.742L276.412 134.109C276.252 132.093 276.302 130.066 276.56 128.06V128.033L275.429 128.011C274.615 128.575 273.645 128.87 272.655 128.855Z" fill="#3F3D56"/>
<path opacity="0.1" d="M271.742 108.311C271.742 108.311 276.077 108.588 276.104 109.204C276.132 109.821 271.742 108.311 271.742 108.311Z" fill="black"/>
<path opacity="0.1" d="M261.206 105.683C261.206 105.683 256.871 105.96 256.843 106.576C256.815 107.192 261.206 105.683 261.206 105.683Z" fill="black"/>
<path opacity="0.1" d="M277.777 118.281C277.734 118.25 277.691 118.226 277.648 118.198C278.757 119.196 278.572 121.378 277.21 123.177C275.848 124.976 273.78 125.725 272.523 124.918C272.563 124.952 272.597 124.989 272.64 125.022C273.873 125.965 276.03 125.226 277.454 123.365C278.877 121.504 279.016 119.227 277.777 118.281Z" fill="black"/>
<path opacity="0.1" d="M253.959 122.946C252.862 120.968 253.004 118.783 254.246 117.954C254.199 117.976 254.15 117.994 254.104 118.019C252.742 118.777 252.563 121.048 253.691 123.094C254.819 125.139 256.853 126.175 258.215 125.429C258.26 125.403 258.303 125.374 258.344 125.343C256.985 125.959 255.056 124.924 253.959 122.946Z" fill="black"/>
<path opacity="0.1" d="M255.426 106.265L255.029 106.881L254.015 106.342L254.548 105.522C254.9 105.689 255.203 105.945 255.426 106.265Z" fill="black"/>
<path d="M248.985 129.068C248.985 129.068 249.888 124.822 248.677 123.473C247.466 122.123 247.854 115.049 249.703 115.203C251.553 115.357 254.326 120.953 253.864 122.136C253.402 123.319 251.654 129.376 251.654 129.376L248.985 129.068Z" fill="#FBBEBE"/>
<path opacity="0.1" d="M277.98 98.4359C277.767 98.8144 277.454 99.1268 277.074 99.3386C276.689 99.5152 276.265 99.5915 275.842 99.5605C275.426 99.5629 275.014 99.4735 274.637 99.2986C273.61 98.7871 273.228 97.5609 272.747 96.5256C272.687 96.3389 272.578 96.1711 272.433 96.0388C272.184 95.9253 271.915 95.8595 271.641 95.8447C271.065 95.7153 270.649 95.2131 270.384 94.6893C270.119 94.1655 269.962 93.5863 269.66 93.0841C269.358 92.5819 268.846 92.1413 268.257 92.1597C267.874 92.2105 267.501 92.3196 267.151 92.4833C266.652 92.6432 266.121 92.6746 265.607 92.5744C265.093 92.4742 264.613 92.2457 264.211 91.9102C263.964 91.6413 263.669 91.42 263.342 91.257C263.119 91.1918 262.886 91.1677 262.655 91.1861C262.3 91.1861 261.949 91.22 261.595 91.2478C261.419 91.4779 261.231 91.698 261.031 91.9071C261.57 91.8609 262.112 91.8147 262.655 91.8023C262.886 91.7839 263.119 91.808 263.342 91.8732C263.669 92.0362 263.964 92.2575 264.211 92.5264C264.613 92.8619 265.093 93.0904 265.607 93.1906C266.121 93.2908 266.652 93.2595 267.151 93.0995C267.501 92.9358 267.874 92.8267 268.257 92.776C268.846 92.776 269.354 93.2073 269.66 93.7003C269.965 94.1933 270.122 94.7787 270.384 95.3055C270.646 95.8324 271.065 96.3315 271.641 96.4609C271.915 96.4757 272.184 96.5416 272.433 96.655C272.588 96.781 272.707 96.9458 272.778 97.1326C273.259 98.1709 273.641 99.3972 274.667 99.9056C275.045 100.08 275.456 100.17 275.872 100.167C276.295 100.198 276.719 100.122 277.105 99.9456C277.484 99.7338 277.798 99.4214 278.011 99.0429C278.49 98.1719 278.704 97.1805 278.628 96.1898C278.604 96.981 278.382 97.7535 277.98 98.4359Z" fill="black"/>
<path d="M250.351 132.436C251.883 132.436 253.125 131.594 253.125 130.556C253.125 129.518 251.883 128.677 250.351 128.677C248.819 128.677 247.577 129.518 247.577 130.556C247.577 131.594 248.819 132.436 250.351 132.436Z" fill="#575A89"/>
<path d="M159.942 235.174C212.45 235.174 255.015 192.618 255.015 140.123C255.015 87.6276 212.45 45.0718 159.942 45.0718C107.435 45.0718 64.8695 87.6276 64.8695 140.123C64.8695 192.618 107.435 235.174 159.942 235.174Z" fill="#C10606"/>
<path d="M209.829 187.889C209.829 202.893 186.235 189.17 160.939 189.17C135.644 189.17 110.059 202.326 110.059 187.322C110.059 178.766 118.214 166.866 129.912 158.224C138.726 151.711 149.549 147.046 160.422 147.046C171.602 147.046 182.555 152.096 191.292 159.028C202.318 167.769 209.829 179.514 209.829 187.889Z" fill="#444053"/>
<path d="M191.287 159.022C177.842 156.998 153.523 154.53 129.911 158.218C138.725 151.705 149.548 147.04 160.42 147.04C171.598 147.04 182.551 152.09 191.287 159.022Z" fill="#F6F8FB"/>
<path opacity="0.05" d="M110.059 73.0262C110.059 73.0262 81.42 91.3309 81.6542 119.963C81.8884 148.596 110.059 73.0262 110.059 73.0262Z" fill="black"/>
<path d="M254.978 21.3291C254.978 21.3291 229.03 19.767 232.09 37.9453C232.09 37.9453 231.474 41.1558 234.395 42.6162C234.395 42.6162 234.441 41.2698 237.055 41.7258C237.986 41.8816 238.932 41.9271 239.874 41.8614C241.147 41.7748 242.357 41.275 243.32 40.4379C243.32 40.4379 250.614 37.4277 253.453 25.507C253.453 25.507 255.551 22.9066 255.468 22.2411L251.089 24.1082C251.089 24.1082 252.584 27.2663 251.397 29.8914C251.397 29.8914 251.255 24.2253 250.414 24.3455C250.245 24.3732 248.14 25.4393 248.14 25.4393C248.14 25.4393 250.713 30.9421 248.756 34.9382C248.756 34.9382 249.493 28.1598 247.32 25.8367L244.238 27.6361C244.238 27.6361 247.246 33.3176 245.206 37.9546C245.206 37.9546 245.73 30.8435 243.591 28.0736L240.796 30.2519C240.796 30.2519 243.622 35.8533 241.899 39.6985C241.899 39.6985 241.674 31.4196 240.192 30.7942C240.192 30.7942 237.748 32.9509 237.375 33.8352C237.375 33.8352 239.31 37.8991 238.112 40.0435C238.112 40.0435 237.375 34.5284 236.771 34.4976C236.771 34.4976 234.336 38.1518 234.081 40.6598C234.081 40.6598 234.189 36.9317 236.179 34.1495C236.179 34.1495 233.825 34.5531 232.454 36.0813C232.454 36.0813 232.833 33.4963 236.768 33.2713C236.768 33.2713 238.78 30.4984 239.32 30.332C239.32 30.332 235.39 30.0023 233.008 31.0591C233.008 31.0591 235.104 28.622 240.038 29.7281L242.811 27.4789C242.811 27.4789 237.64 26.7703 235.446 27.5529C235.446 27.5529 237.97 25.3961 243.554 26.9675L246.559 25.1712C246.559 25.1712 242.149 24.2222 239.52 24.555C239.52 24.555 242.294 23.0607 247.437 24.6813L249.594 23.7169C249.594 23.7169 246.362 23.0822 245.415 22.9836C244.469 22.8851 244.42 22.6201 244.42 22.6201C246.473 22.2864 248.578 22.5307 250.5 23.3256C250.5 23.3256 255.055 21.6157 254.978 21.3291Z" fill="#C10606"/>
<path d="M228.365 13.2473C228.365 13.2473 216.654 12.5387 218.022 20.7528C218.022 20.7528 217.748 22.204 219.064 22.8634C219.064 22.8634 219.083 22.2472 220.266 22.4628C220.686 22.532 221.114 22.5527 221.539 22.5244C222.114 22.4834 222.661 22.2575 223.098 21.8805C223.098 21.8805 226.393 20.5187 227.675 15.133C227.675 15.133 228.624 13.9591 228.599 13.6571L226.621 14.5013C226.621 14.5013 227.299 15.9279 226.765 17.1141C226.765 17.1141 226.701 14.5537 226.322 14.6153C226.245 14.6153 225.292 15.1083 225.292 15.1083C225.292 15.1083 226.457 17.5947 225.579 19.4002C225.579 19.4002 225.912 16.3377 224.932 15.287L223.539 16.1004C223.539 16.1004 224.898 18.67 223.976 20.7652C223.976 20.7652 224.211 17.5516 223.246 16.3007L221.983 17.2835C221.983 17.2835 223.258 19.8131 222.482 21.5508C222.482 21.5508 222.38 17.8104 221.708 17.527C221.708 17.527 220.605 18.5006 220.435 18.9011C220.435 18.9011 221.311 20.7498 220.768 21.708C220.768 21.708 220.435 19.2154 220.152 19.2061C220.152 19.2061 219.052 20.8545 218.938 21.9791C218.991 20.9325 219.317 19.9181 219.884 19.0367C219.25 19.1566 218.665 19.4598 218.201 19.9086C218.201 19.9086 218.371 18.7409 220.155 18.6392C220.155 18.6392 221.064 17.3883 221.308 17.3113C221.308 17.3113 219.532 17.1634 218.457 17.641C218.457 17.641 219.403 16.5379 221.634 17.0247L222.867 16.0111C222.867 16.0111 220.531 15.703 219.539 16.0419C219.539 16.0419 220.679 15.0683 223.203 15.78L224.559 14.9666C224.559 14.9666 222.568 14.5383 221.378 14.6924C221.378 14.6924 222.633 14.0176 224.956 14.7509L225.927 14.3134C225.927 14.3134 224.466 14.0269 224.041 13.9837C223.616 13.9406 223.588 13.8204 223.588 13.8204C224.513 13.6666 225.463 13.7732 226.331 14.1285C226.331 14.1285 228.399 13.3767 228.365 13.2473Z" fill="#C10606"/>
<path opacity="0.1" d="M330.705 224.92C335.289 224.92 339.004 224.292 339.004 223.518C339.004 222.744 335.289 222.116 330.705 222.116C326.122 222.116 322.406 222.744 322.406 223.518C322.406 224.292 326.122 224.92 330.705 224.92Z" fill="#C10606"/>
<path opacity="0.1" d="M14.4145 248.241C18.998 248.241 22.7137 247.613 22.7137 246.839C22.7137 246.065 18.998 245.437 14.4145 245.437C9.83095 245.437 6.11526 246.065 6.11526 246.839C6.11526 247.613 9.83095 248.241 14.4145 248.241Z" fill="#C10606"/>
<path opacity="0.1" d="M62.5925 250C67.176 250 70.8917 249.372 70.8917 248.598C70.8917 247.824 67.176 247.196 62.5925 247.196C58.0089 247.196 54.2932 247.824 54.2932 248.598C54.2932 249.372 58.0089 250 62.5925 250Z" fill="#C10606"/>
<path d="M312.54 240.637C319.384 240.637 324.932 239.699 324.932 238.542C324.932 237.384 319.384 236.446 312.54 236.446C305.696 236.446 300.148 237.384 300.148 238.542C300.148 239.699 305.696 240.637 312.54 240.637Z" fill="#C10606"/>
<path d="M317.662 235.119C318.228 234.657 318.64 234.035 318.845 233.335C318.996 232.629 318.694 231.779 318.02 231.52C317.261 231.23 316.451 231.757 315.838 232.287C315.224 232.817 314.519 233.421 313.714 233.31C314.128 232.935 314.437 232.46 314.612 231.93C314.787 231.401 314.822 230.834 314.713 230.287C314.678 230.061 314.582 229.848 314.435 229.671C314.013 229.221 313.252 229.412 312.747 229.767C311.144 230.894 310.697 233.07 310.688 235.029C310.528 234.324 310.663 233.587 310.66 232.872C310.657 232.158 310.457 231.332 309.847 230.953C309.468 230.751 309.043 230.651 308.614 230.663C307.893 230.636 307.092 230.706 306.598 231.233C305.982 231.89 306.145 232.986 306.679 233.698C307.212 234.41 308.019 234.872 308.762 235.368C309.36 235.723 309.869 236.209 310.253 236.788C310.298 236.87 310.335 236.956 310.364 237.044H314.879C315.889 236.531 316.826 235.883 317.662 235.119Z" fill="#C10606"/>
<path d="M18.2889 209.284C18.2889 209.284 19.9808 211.496 17.5061 214.83C15.0314 218.163 12.9913 220.992 13.808 223.075C13.808 223.075 17.54 216.869 20.5879 216.78C23.6358 216.691 21.6295 213.015 18.2889 209.284Z" fill="#C10606"/>
<path opacity="0.1" d="M18.2888 209.284C18.4357 209.498 18.5519 209.731 18.6339 209.977C21.5986 213.459 23.1765 216.709 20.3289 216.789C17.6724 216.866 14.4735 221.611 13.7247 222.81C13.7509 222.903 13.7817 222.994 13.8171 223.084C13.8171 223.084 17.5492 216.879 20.597 216.789C23.6449 216.7 21.6294 213.015 18.2888 209.284Z" fill="black"/>
<path d="M21.4363 212.103C21.4363 212.882 21.347 213.514 21.2391 213.514C21.1313 213.514 21.045 212.898 21.045 212.103C21.045 211.308 21.1529 211.69 21.2638 211.69C21.3747 211.69 21.4363 211.323 21.4363 212.103Z" fill="#FFD037"/>
<path d="M22.5008 213.033C21.8168 213.406 21.2222 213.631 21.1698 213.535C21.1174 213.44 21.6319 213.064 22.3159 212.691C22.9999 212.318 22.7288 212.59 22.7812 212.691C22.8336 212.793 23.1971 212.66 22.5008 213.033Z" fill="#FFD037"/>
<path d="M9.34619 209.284C9.34619 209.284 7.65429 211.496 10.1259 214.83C12.5975 218.163 14.6407 220.992 13.824 223.075C13.824 223.075 10.0889 216.869 7.0441 216.78C3.99931 216.691 6.00246 213.015 9.34619 209.284Z" fill="#C10606"/>
<path opacity="0.1" d="M9.34675 209.284C9.19848 209.497 9.08219 209.73 9.00159 209.977C6.03692 213.459 4.45597 216.709 7.30662 216.789C9.96003 216.866 13.162 221.611 13.9078 222.81C13.8826 222.903 13.8528 222.994 13.8184 223.084C13.8184 223.084 10.0833 216.879 7.0385 216.789C3.9937 216.7 6.00302 213.015 9.34675 209.284Z" fill="black"/>
<path d="M6.19925 212.103C6.19925 212.882 6.28552 213.514 6.39336 213.514C6.5012 213.514 6.58746 212.898 6.58746 212.103C6.58746 211.308 6.47963 211.69 6.37179 211.69C6.26395 211.69 6.19925 211.323 6.19925 212.103Z" fill="#FFD037"/>
<path d="M5.11758 213.033C5.80157 213.406 6.3993 213.631 6.45168 213.535C6.50406 213.44 5.98952 213.064 5.30552 212.691C4.62152 212.318 4.88958 212.59 4.84028 212.691C4.79098 212.793 4.43358 212.66 5.11758 213.033Z" fill="#FFD037"/>
<path d="M6.73831 222.794C6.73831 222.794 11.4719 222.649 12.9019 221.633C14.3318 220.616 20.1841 219.405 20.5385 221.016C20.8929 222.628 27.6513 229.12 22.3075 229.163C16.9637 229.206 9.89097 228.328 8.46719 227.462C7.04341 226.596 6.73831 222.794 6.73831 222.794Z" fill="#A8A8A8"/>
<path opacity="0.2" d="M22.3968 228.611C17.053 228.654 9.98034 227.776 8.55656 226.91C7.47178 226.251 7.04033 223.882 6.89549 222.788H6.73831C6.73831 222.788 7.04649 226.605 8.46103 227.471C9.87556 228.337 16.9575 229.215 22.3013 229.172C23.8422 229.172 24.3753 228.608 24.3476 227.798C24.1319 228.294 23.5463 228.602 22.3968 228.611Z" fill="black"/>
<path d="M126.143 127.66C127.952 127.558 136.467 126.917 141.875 123.833C142.744 123.322 143.725 123.034 144.732 122.992C146.452 122.943 148.43 123.661 147.164 127.678C145.111 134.25 133.194 141.645 125.798 141.235C118.685 140.841 110.247 137.975 104.675 127.9C104.141 126.931 103.878 125.836 103.914 124.73C103.979 122.696 104.718 120.148 108.537 122.989C113.695 126.825 123.483 127.552 125.446 127.66C125.678 127.672 125.911 127.672 126.143 127.66Z" fill="#444053"/>
<path d="M194.557 127.66C196.366 127.558 204.881 126.917 210.29 123.833C211.158 123.322 212.139 123.034 213.146 122.992C214.866 122.943 216.845 123.661 215.578 127.678C213.525 134.25 201.608 141.645 194.212 141.235C187.099 140.841 178.661 137.975 173.089 127.9C172.556 126.931 172.293 125.836 172.328 124.73C172.393 122.696 173.133 120.148 176.951 122.989C182.11 126.825 191.898 127.552 193.861 127.66C194.093 127.672 194.325 127.672 194.557 127.66Z" fill="#444053"/>
<defs>
<linearGradient id="paint0_linear_1658_4351" x1="274.939" y1="233.541" x2="274.939" y2="81.3237" gradientUnits="userSpaceOnUse">
<stop stop-color="#808080" stop-opacity="0.25"/>
<stop offset="0.54" stop-color="#808080" stop-opacity="0.12"/>
<stop offset="1" stop-color="#808080" stop-opacity="0.1"/>
</linearGradient>
</defs>
</svg>
