<svg width="20" height="20" viewBox="0 0 20 20" fill="none" xmlns="http://www.w3.org/2000/svg">
<path fill-rule="evenodd" clip-rule="evenodd" d="M8.16874 12.7104C8.68914 13.0632 9.32337 13.2765 9.99825 13.2765C11.7871 13.2765 13.2426 11.808 13.2426 10.003C13.2426 9.32208 13.0312 8.68215 12.6815 8.15708L11.7952 9.05134C11.9416 9.33029 12.0229 9.65846 12.0229 10.003C12.0229 11.127 11.1122 12.0459 9.99825 12.0459C9.65674 12.0459 9.3315 11.9638 9.05504 11.8162L8.16874 12.7104ZM15.3567 5.45789C16.5357 6.54085 17.5358 8.0012 18.2839 9.75691C18.3489 9.91279 18.3489 10.0933 18.2839 10.241C16.5438 14.3267 13.4459 16.7715 9.99825 16.7715H9.99012C8.42081 16.7715 6.91654 16.2547 5.59117 15.3112L4.01372 16.9028C3.89176 17.0259 3.73726 17.0833 3.58277 17.0833C3.42828 17.0833 3.26566 17.0259 3.15182 16.9028C2.94854 16.6977 2.91602 16.3695 3.07864 16.1316L3.10303 16.0988L15.129 3.96472C15.1453 3.94831 15.1615 3.9319 15.1697 3.91549L15.1697 3.91549C15.1859 3.89908 15.2022 3.88267 15.2103 3.86627L15.9746 3.09507C16.2186 2.85715 16.6007 2.85715 16.8366 3.09507C17.0805 3.33299 17.0805 3.72679 16.8366 3.96472L15.3567 5.45789ZM6.74799 10.0062C6.74799 10.2195 6.77238 10.4329 6.8049 10.6298L3.79638 13.6653C2.98326 12.7136 2.27585 11.565 1.7148 10.2442C1.64975 10.0965 1.64975 9.91599 1.7148 9.76011C3.45487 5.6744 6.55284 3.23774 9.99232 3.23774H10.0004C11.1632 3.23774 12.2934 3.51668 13.3342 4.04176L10.6184 6.78197C10.4233 6.74915 10.2119 6.72454 10.0004 6.72454C8.20346 6.72454 6.74799 8.1931 6.74799 10.0062Z" fill="#9E9E9E"/>
</svg>
