<svg width="237" height="200" viewBox="0 0 237 200" fill="none" xmlns="http://www.w3.org/2000/svg">
<path d="M193.018 96.5275C193.018 99.3378 192.9 102.12 192.663 104.873C192.477 107.022 192.224 109.152 191.902 111.263C191.56 113.498 191.141 115.706 190.645 117.887V117.889C190.321 119.325 189.965 120.748 189.577 122.16C188.452 126.264 187.052 130.289 185.388 134.206C185.026 135.058 184.652 135.904 184.267 136.745C182.808 139.928 181.176 143.027 179.376 146.03C174.328 154.463 168.028 162.079 160.69 168.616C159.896 169.323 159.091 170.017 158.275 170.7C140.95 185.176 119.083 193.09 96.5089 193.055C43.2078 193.055 0 149.839 0 96.5275C0 43.2162 43.2078 0.000119556 96.5089 0.000119556C118.306 -0.034256 139.467 7.34522 156.518 20.9269C157.317 21.5604 158.106 22.2081 158.885 22.8701C162.687 26.0951 166.236 29.6079 169.499 33.3775H169.501C184.7 50.9008 193.052 73.3293 193.018 96.5275Z" fill="#F2F2F2"/>
<path d="M28.4901 113.201C19.2965 107.729 12.3576 97.5006 13.2584 86.8379C21.6636 94.884 32.6434 99.6972 44.2551 100.426C48.7343 100.691 53.7438 100.519 57.0409 103.563C59.0926 105.456 60.0476 108.308 60.2042 111.096C60.3608 113.884 59.8024 116.657 59.2469 119.394L59.4381 120.064C48.7394 120.104 37.6837 118.674 28.4901 113.201Z" fill="#FAFAFA"/>
<path d="M13.4809 86.826C17.1645 94.8806 23.292 101.569 30.9928 105.943C32.6483 106.869 34.4084 107.666 36.2787 108.035C38.1046 108.381 39.9897 108.231 41.7383 107.602C43.3805 107.048 44.9962 106.291 46.7444 106.146C48.5871 105.994 50.2931 106.705 51.6334 107.95C53.2733 109.474 54.268 111.496 55.1721 113.508C56.1758 115.741 57.183 118.077 59.1075 119.683C59.3407 119.877 59.0251 120.228 58.7923 120.033C55.4441 117.239 54.8975 112.56 52.2211 109.269C50.9722 107.733 49.2531 106.565 47.2108 106.595C45.425 106.622 43.7582 107.401 42.1003 107.977C40.3595 108.581 38.6156 108.864 36.7777 108.599C34.8977 108.327 33.1029 107.598 31.4309 106.717C27.6545 104.693 24.2198 102.086 21.2527 98.9945C17.8469 95.4845 15.0665 91.4176 13.0317 86.9698C12.9059 86.6945 13.3559 86.5525 13.4809 86.826H13.4809Z" fill="white"/>
<path d="M28.4307 104.681C27.5217 105.874 26.2185 106.704 24.7537 107.025C23.2889 107.345 21.758 107.134 20.4343 106.43C20.1669 106.286 20.3773 105.864 20.645 106.007C21.8764 106.666 23.3024 106.862 24.6658 106.561C26.0292 106.26 27.2401 105.481 28.08 104.366C28.2628 104.123 28.6124 104.44 28.4307 104.681L28.4307 104.681Z" fill="white"/>
<path d="M40.9436 107.993C40.5609 104.951 39.0459 102.166 36.7006 100.191C36.4681 99.9959 36.7836 99.6453 37.0159 99.8405C39.4526 101.899 41.0233 104.802 41.4145 107.968C41.4516 108.27 40.9805 108.293 40.9436 107.993V107.993Z" fill="white"/>
<path d="M18.433 95.2634C18.8809 94.8753 19.2254 94.3819 19.4356 93.8277C19.6457 93.2735 19.7149 92.6758 19.6369 92.0882C19.596 91.787 20.0673 91.7638 20.1079 92.063C20.191 92.7126 20.1138 93.3727 19.883 93.9855C19.6521 94.5983 19.2748 95.1453 18.7838 95.5787C18.7409 95.6234 18.6826 95.6501 18.6208 95.6534C18.5589 95.6568 18.4981 95.6364 18.4508 95.5965C18.4045 95.5545 18.3767 95.496 18.3734 95.4336C18.3701 95.3713 18.3915 95.3101 18.433 95.2635V95.2634Z" fill="white"/>
<path d="M43.017 66.1802C43.0479 66.3675 43.0788 66.5548 43.1132 66.744C43.5414 69.2604 44.1732 71.7379 45.0024 74.1521C45.0636 74.3397 45.1284 74.529 45.1948 74.7145C47.2546 80.5094 50.3723 85.8714 54.3892 90.528C55.9893 92.3794 57.7279 94.1065 59.59 95.6941C62.1618 97.8866 65.1246 100.059 66.7735 102.89C66.9488 103.183 67.1058 103.487 67.2436 103.8L60.2405 119.779C60.2064 119.807 60.1758 119.837 60.1416 119.865L59.8912 120.516C59.7894 120.441 59.6855 120.361 59.5837 120.286C59.5245 120.242 59.4669 120.195 59.4077 120.152C59.3687 120.122 59.3298 120.092 59.2929 120.067C59.2799 120.057 59.2669 120.047 59.2576 120.038C59.2207 120.014 59.189 119.987 59.1558 119.963C58.5737 119.517 57.9937 119.066 57.4158 118.609C57.4122 118.608 57.4122 118.608 57.4101 118.603C53.0158 115.116 48.8741 111.231 45.4534 106.841C45.3506 106.709 45.244 106.575 45.1443 106.436C43.6134 104.449 42.2475 102.34 41.0602 100.13C40.4139 98.9176 39.8294 97.6735 39.309 96.4022C37.9704 93.1149 37.1572 89.6374 36.8992 86.0973C36.3857 79.0401 38.1346 71.8972 42.6668 66.5828C42.7828 66.4469 42.8974 66.3144 43.017 66.1802Z" fill="#FAFAFA"/>
<path d="M43.2045 66.305C41.2972 74.9543 42.1632 83.9848 45.6794 92.1139C46.4434 93.8508 47.3694 95.5463 48.6405 96.9675C49.8901 98.3432 51.4852 99.3591 53.2602 99.9097C54.9048 100.456 56.6504 100.825 58.1335 101.762C59.6968 102.75 60.6309 104.345 60.9514 106.146C61.3435 108.35 60.9204 110.564 60.4314 112.714C59.8885 115.102 59.2867 117.574 59.8566 120.015C59.9256 120.311 59.4627 120.4 59.3937 120.105C58.4024 115.858 60.7829 111.792 60.6269 107.553C60.5541 105.575 59.8848 103.607 58.2356 102.401C56.7935 101.347 54.9938 100.966 53.3238 100.427C51.5702 99.8607 50.007 99.0371 48.6996 97.7182C47.3621 96.369 46.3678 94.7061 45.5628 92.9963C43.7664 89.1055 42.5928 84.9564 42.0849 80.7009C41.4785 75.8474 41.7065 70.9259 42.7593 66.1493C42.8246 65.8537 43.2693 66.0113 43.2045 66.305Z" fill="white"/>
<path d="M44.3925 89.5633C42.9488 89.9682 41.4082 89.8467 40.0459 89.2203C38.6835 88.594 37.5881 87.5037 36.9552 86.1442C36.8281 85.8687 37.2502 85.6582 37.3775 85.9341C37.9645 87.2012 38.985 88.2167 40.2548 88.7973C41.5246 89.3779 42.9601 89.4854 44.3022 89.1004C44.594 89.0171 44.6826 89.4804 44.3925 89.5633H44.3925Z" fill="white"/>
<path d="M52.3897 99.7428C53.9155 97.0839 54.383 93.9475 53.6991 90.9591C53.6311 90.6631 54.094 90.5732 54.162 90.8688C54.8679 93.9799 54.3747 97.2428 52.7809 100.006C52.6288 100.27 52.2384 100.005 52.3897 99.7428Z" fill="white"/>
<path d="M42.0772 76.0228C42.6685 75.9825 43.2406 75.796 43.7421 75.48C44.2436 75.164 44.6587 74.7284 44.9502 74.2124C45.0989 73.9473 45.4891 74.2125 45.3414 74.4758C45.0166 75.0445 44.5576 75.525 44.0043 75.8754C43.451 76.2257 42.8204 76.4353 42.1675 76.4857C42.1063 76.4956 42.0437 76.4818 41.9923 76.4472C41.941 76.4126 41.9047 76.3598 41.8909 76.2994C41.8792 76.238 41.8923 76.1746 41.9271 76.1228C41.962 76.071 42.0159 76.035 42.0772 76.0228V76.0228Z" fill="white"/>
<path d="M66.8533 22.3724L78.6656 160.676L55.041 162.453V24.1321C57.8561 22.269 61.8971 21.9775 66.8533 22.3724Z" fill="#BDBDBD"/>
<path d="M125.16 22.3724L113.348 160.676L136.972 162.453V24.1321C134.157 22.269 130.116 21.9775 125.16 22.3724Z" fill="#BDBDBD"/>
<path d="M133.435 168.169H58.3258C57.1215 168.167 55.9668 167.688 55.1152 166.836C54.2636 165.985 53.7846 164.83 53.7832 163.625V26.1617C53.7846 24.9571 54.2636 23.8022 55.1152 22.9504C55.9668 22.0987 57.1215 21.6195 58.3258 21.6182H133.435C134.639 21.6195 135.794 22.0987 136.645 22.9504C137.497 23.8022 137.976 24.9571 137.977 26.1617V163.625C137.976 164.83 137.497 165.985 136.645 166.836C135.794 167.688 134.639 168.167 133.435 168.169ZM58.3258 23.1264C57.5213 23.1273 56.7499 23.4474 56.181 24.0164C55.6121 24.5854 55.292 25.3569 55.2912 26.1617V163.625C55.292 164.43 55.6121 165.201 56.181 165.77C56.7499 166.34 57.5212 166.66 58.3258 166.661H133.435C134.239 166.66 135.01 166.34 135.579 165.77C136.148 165.201 136.468 164.43 136.469 163.625V26.1617C136.468 25.3569 136.148 24.5854 135.579 24.0164C135.01 23.4474 134.239 23.1273 133.435 23.1264L58.3258 23.1264Z" fill="#BDBDBD"/>
<path d="M137.223 44.4932H54.5371V46.0014H137.223V44.4932Z" fill="#BDBDBD"/>
<path d="M137.223 69.6304H54.5371V71.1386H137.223V69.6304Z" fill="#BDBDBD"/>
<path d="M81.3696 22.3721H79.8613V90.997H81.3696V22.3721Z" fill="#BDBDBD"/>
<path d="M111.899 22.3721H110.391V90.997H111.899V22.3721Z" fill="#BDBDBD"/>
<path d="M146.648 172.316H47.6256C45.8259 172.316 44.0999 171.601 42.8274 170.328C41.5548 169.056 40.8398 167.329 40.8398 165.529C40.8398 163.729 41.5548 162.003 42.8274 160.73C44.0999 159.457 45.8259 158.742 47.6256 158.742H146.648C148.447 158.742 150.173 159.457 151.446 160.73C152.719 162.003 153.434 163.729 153.434 165.529C153.434 167.329 152.719 169.056 151.446 170.328C150.173 171.601 148.447 172.316 146.648 172.316Z" fill="#BDBDBD"/>
<path d="M137.224 87.478H55.041V92.5055H137.224V87.478Z" fill="#BDBDBD"/>
<path d="M81.6046 103.478L81.5003 103.428C75.8979 100.721 68.5613 100.723 57.7115 103.436L57.5957 103.465L57.5609 103.351C56.4132 99.5869 55.113 95.3236 57.5555 93.2261C57.5898 87.0711 62.9878 82.0732 69.6181 82.0732C76.247 82.0732 81.6442 87.0686 81.6804 93.2219C85.314 96.0005 83.5823 100.107 81.6633 103.378L81.6046 103.478Z" fill="#2F2E41"/>
<path d="M116.039 90.2985C115.938 90.7972 115.73 91.2679 115.428 91.6773C115.126 92.0867 114.738 92.4249 114.291 92.6681C113.844 92.9113 113.349 93.0535 112.842 93.0848C112.334 93.1161 111.826 93.0356 111.352 92.8491L91.5536 112.749L89.7871 106.57L109.451 88.0903C109.817 87.3159 110.454 86.7026 111.242 86.3667C112.03 86.0308 112.913 85.9956 113.725 86.2678C114.537 86.54 115.221 87.1006 115.648 87.8435C116.074 88.5864 116.213 89.4599 116.039 90.2985L116.039 90.2985Z" fill="#FFB6B6"/>
<path d="M67.1061 109.456C67.1061 109.456 65.3098 113.527 69.7421 116.038C74.1744 118.549 89.6653 115.08 92.1789 114.596C94.6925 114.111 104.08 100.059 104.08 100.059L102.753 93.168L90.3023 103.978L67.1061 109.456Z" fill="#C10606"/>
<path d="M63.836 131.971L64.0873 136.747C64.0873 136.747 63.3455 140.978 63.9556 141.891C64.5611 142.799 81.0835 142.914 81.0835 142.914C81.0835 142.914 82.1752 137.028 83.1156 131.875L63.836 131.971Z" fill="#FFB6B6"/>
<path d="M111.341 195.121L114.796 194.423L113.807 180.469L108.709 181.499L111.341 195.121Z" fill="#FFB6B6"/>
<path d="M116.288 176.961L119.499 175.517L115.333 162.165L110.594 164.297L116.288 176.961Z" fill="#FFB6B6"/>
<path d="M119.086 169.438L113.04 172.862L98.1285 148.896C87.6604 155.95 77.424 159.328 67.1047 161.13C63.6158 161.752 60.0587 161.437 59.3889 157.885C59.3576 157.719 59.3326 157.552 59.314 157.384C58.902 153.505 63.7268 148.532 64.3401 143.786L77.5449 142.993L79.1732 145.081L94.4441 135.691C97.5151 133.802 101.554 134.824 103.466 137.972C103.567 138.138 103.66 138.309 103.747 138.483L119.086 169.438Z" fill="#2F2E41"/>
<path d="M115.385 185.561L108.466 186.204L95.9217 160.543C83.4822 162.683 71.7467 163.369 61.596 160.78C58.1592 159.916 56.0584 156.366 56.9038 152.852C56.9433 152.688 56.989 152.526 57.0408 152.365C58.2557 148.658 61.4357 146.035 63.9412 141.957L82.2419 142.235L80.1978 149.289L97.9757 146.988C101.551 146.525 104.816 149.114 105.269 152.769C105.292 152.962 105.308 153.156 105.315 153.351L115.385 185.561Z" fill="#2F2E41"/>
<path d="M70.9819 99.8299C75.086 99.8299 78.413 96.5023 78.413 92.3974C78.413 88.2925 75.086 84.9648 70.9819 84.9648C66.8778 84.9648 63.5508 88.2925 63.5508 92.3974C63.5508 96.5023 66.8778 99.8299 70.9819 99.8299Z" fill="#FFB6B6"/>
<path d="M66.6267 102.513L73.4404 103.314C73.7277 103.348 73.9973 103.471 74.2117 103.665C74.4261 103.86 74.5745 104.116 74.6362 104.399L75.7198 109.358L82.4746 117.314C82.4746 117.314 84.9002 121.863 83.9906 127.018C83.081 132.174 82.6813 136.004 82.6813 136.004C82.6813 136.004 64.5617 142.799 63.9553 141.89C63.3489 140.98 63.1521 136.847 63.1521 136.847L60.7266 109.858C60.7266 109.858 63.4553 105.309 64.9713 105.309C65.9497 105.276 65.8242 103.073 66.6267 102.513Z" fill="#C10606"/>
<path d="M82.8652 137.664C83.8208 137.664 84.5956 136.735 84.5956 135.588C84.5956 134.441 83.8208 133.511 82.8652 133.511C81.9095 133.511 81.1348 134.441 81.1348 135.588C81.1348 136.735 81.9095 137.664 82.8652 137.664Z" fill="#C10606"/>
<path d="M109.627 191.528L114.893 188.889L115.886 191.205L122.545 192.551C122.874 192.617 123.173 192.787 123.398 193.036C123.624 193.284 123.764 193.598 123.799 193.932C123.833 194.266 123.76 194.602 123.59 194.892C123.42 195.181 123.162 195.408 122.853 195.54L116.419 198.299L114.328 196.484L114.877 198.96L112.451 200L109.627 191.528Z" fill="#2F2E41"/>
<path d="M114.781 175.851L120 173.119L121.033 175.417L127.715 176.646C128.045 176.706 128.347 176.871 128.577 177.116C128.807 177.36 128.953 177.672 128.993 178.005C129.033 178.338 128.966 178.675 128.801 178.968C128.636 179.26 128.382 179.492 128.076 179.629L121.691 182.501L119.569 180.722L120.161 183.189L117.754 184.271L114.781 175.851Z" fill="#2F2E41"/>
<path d="M66.7362 90.0659C64.773 90.0691 62.8569 89.4644 61.2509 88.335L61.1973 88.2974V88.232C61.1994 86.3326 61.9548 84.5117 63.2976 83.1686C64.6404 81.8255 66.461 81.07 68.36 81.0679H71.3759C73.275 81.07 75.0956 81.8255 76.4384 83.1686C77.7812 84.5117 78.5366 86.3326 78.5387 88.232C78.5367 88.6667 78.3651 89.0835 78.0604 89.3936C77.7557 89.7036 77.3421 89.8824 76.9075 89.892L66.9057 90.0644C66.8493 90.0654 66.7926 90.0659 66.7362 90.0659Z" fill="#2F2E41"/>
<path d="M79.0413 86.8562C80.0031 86.3008 80.1639 84.7784 79.4005 83.4558C78.637 82.1332 77.2384 81.5112 76.2766 82.0666C75.3148 82.622 75.1541 84.1444 75.9175 85.467C76.681 86.7896 78.0796 87.4116 79.0413 86.8562Z" fill="#2F2E41"/>
<path d="M64.0019 85.3805C65.0816 84.3006 65.3203 82.7884 64.535 82.003C63.7498 81.2176 62.2379 81.4563 61.1582 82.5363C60.0784 83.6162 59.8397 85.1284 60.625 85.9138C61.4102 86.6992 62.9221 86.4605 64.0019 85.3805Z" fill="#2F2E41"/>
<path d="M129.768 153.338H122.351C122.183 153.338 122.018 153.374 121.866 153.444C121.714 153.514 121.58 153.617 121.472 153.744C121.198 153.694 120.916 153.709 120.65 153.789C120.383 153.869 120.139 154.011 119.938 154.203C119.737 154.395 119.585 154.632 119.493 154.895C119.401 155.157 119.373 155.438 119.411 155.714C119.449 155.989 119.551 156.252 119.71 156.48C119.869 156.709 120.08 156.896 120.325 157.027C120.571 157.158 120.844 157.229 121.122 157.234C121.4 157.239 121.675 157.178 121.925 157.056L122.541 159.055C122.613 159.292 122.76 159.5 122.96 159.647C123.159 159.794 123.4 159.874 123.648 159.874H128.471C128.719 159.874 128.96 159.794 129.159 159.647C129.359 159.5 129.505 159.292 129.578 159.055L130.876 154.838C130.929 154.665 130.941 154.481 130.911 154.302C130.88 154.124 130.808 153.954 130.7 153.808C130.593 153.663 130.452 153.544 130.29 153.462C130.128 153.38 129.949 153.338 129.768 153.338ZM121.159 156.731C120.825 156.731 120.506 156.599 120.27 156.363C120.034 156.128 119.902 155.808 119.902 155.475C119.902 155.141 120.034 154.822 120.27 154.586C120.506 154.35 120.825 154.218 121.159 154.218C121.182 154.218 121.203 154.223 121.226 154.224C121.176 154.427 121.182 154.639 121.243 154.838L121.774 156.564C121.587 156.672 121.375 156.73 121.159 156.731Z" fill="#3F3D56"/>
<path d="M96.6469 147.881C96.1404 147.928 95.6297 147.863 95.151 147.691C94.6722 147.519 94.2369 147.245 93.8758 146.886C93.5147 146.528 93.2365 146.095 93.0609 145.617C92.8853 145.14 92.8165 144.63 92.8593 144.123L68.1191 130.862L73.5304 127.397L96.8717 140.936C97.7184 141.064 98.4886 141.499 99.0364 142.157C99.5841 142.815 99.8714 143.652 99.8437 144.508C99.8159 145.364 99.4752 146.181 98.886 146.802C98.2968 147.424 97.5001 147.808 96.6469 147.881Z" fill="#FFB6B6"/>
<path d="M64.2602 106.493C64.2602 106.493 59.8453 105.94 58.7122 110.908C57.5791 115.875 65.3461 129.722 66.5312 131.991C67.7163 134.261 83.8684 139.224 83.8684 139.224L90.0879 135.975L76.1618 127.147L64.2602 106.493Z" fill="#C10606"/>
<path d="M95.3779 85.9697H96.8858C97.619 85.9697 98.3222 86.2611 98.8407 86.7796C99.3591 87.2982 99.6504 88.0015 99.6504 88.7348H92.6133C92.6133 88.0015 92.9046 87.2982 93.423 86.7796C93.9415 86.2611 94.6446 85.9697 95.3779 85.9697Z" fill="#BDBDBD"/>
<path d="M47.5603 34.3793C55.8111 34.3793 62.4996 27.6895 62.4996 19.4372C62.4996 11.1849 55.8111 4.49512 47.5603 4.49512C39.3096 4.49512 32.6211 11.1849 32.6211 19.4372C32.6211 27.6895 39.3096 34.3793 47.5603 34.3793Z" fill="#FF6584"/>
<path d="M93.302 18.6583C89.3484 14.51 84.7566 10.7257 79.3209 8.72593C77.8067 8.16652 76.2367 7.77191 74.638 7.54892C74.6252 7.54716 74.613 7.54977 74.6002 7.54873C74.5742 7.54203 74.5478 7.53685 74.5212 7.53322C72.2853 7.24832 70.0158 7.38536 67.8304 7.93724C66.7617 8.20547 65.7191 8.56874 64.7151 9.0227C63.7075 9.51435 62.7312 10.0677 61.7918 10.6797C59.8035 11.8701 57.6142 12.687 55.3321 13.09C54.1866 13.2963 53.0264 13.4102 51.8627 13.4306C50.8529 13.4508 49.9007 13.4859 48.944 13.8508C47.922 14.2352 47.0041 14.8531 46.2633 15.6553C45.5225 16.4576 44.9795 17.4219 44.6775 18.4713C44.6543 18.5647 44.6613 18.6632 44.6976 18.7524C44.7339 18.8416 44.7976 18.917 44.8795 18.9676C45.1382 19.153 45.3905 19.3633 45.6624 19.5285C45.9043 19.6392 46.1627 19.7097 46.4273 19.7371C46.8596 19.8283 47.2924 19.9169 47.7258 20.0028C49.3224 20.3192 50.9256 20.5993 52.5355 20.8431C55.7931 21.3363 59.0682 21.6837 62.3609 21.8854C68.9572 22.285 75.5761 22.086 82.1364 21.2909C85.8234 20.8443 89.4853 20.2107 93.1081 19.3928C93.1815 19.3714 93.248 19.3314 93.3014 19.2766C93.3547 19.2219 93.393 19.1543 93.4125 19.0803C93.432 19.0064 93.4321 18.9288 93.4127 18.8548C93.3934 18.7809 93.3552 18.7132 93.302 18.6583Z" fill="#FAFAFA"/>
<path d="M48.2701 28.6488C46.7559 28.0894 45.1859 27.6948 43.5873 27.4718C43.5744 27.47 43.5622 27.4726 43.5494 27.4716C43.5234 27.4649 43.4971 27.4597 43.4704 27.4561C41.2345 27.1712 38.965 27.3082 36.7796 27.8601C35.7109 28.1283 34.6683 28.4916 33.6643 28.9456C32.6567 29.4372 31.6805 29.9906 30.7411 30.6025C28.7527 31.793 26.5635 32.6099 24.2814 33.0129C23.1359 33.2191 21.9757 33.333 20.8119 33.3534C19.8022 33.3737 18.8499 33.4088 17.8932 33.7736C16.8713 34.158 15.9533 34.776 15.2125 35.5782C14.4718 36.3804 13.9287 37.3447 13.6268 38.3941C13.6035 38.4876 13.6105 38.586 13.6468 38.6752C13.6831 38.7644 13.7468 38.8398 13.8287 38.8904C14.0875 39.0758 14.3398 39.2861 14.6117 39.4513C14.8535 39.562 15.1119 39.6325 15.3765 39.6599C15.8088 39.7512 16.2416 39.8397 16.675 39.9256C18.2716 40.242 19.8749 40.5221 21.4847 40.7659C24.7423 41.2591 28.0174 41.6066 31.3101 41.8082C37.9064 42.2078 44.5253 42.0089 51.0857 41.2137C54.7726 40.7671 58.4346 40.1336 62.0573 39.3157C62.1307 39.2942 62.1973 39.2542 62.2506 39.1994C62.3039 39.1447 62.3422 39.0771 62.3617 39.0032C62.3812 38.9293 62.3813 38.8516 62.3619 38.7776C62.3426 38.7037 62.3044 38.636 62.2512 38.5811C58.2976 34.4329 53.7059 30.6486 48.2701 28.6488Z" fill="#FAFAFA"/>
<path d="M156.003 140.04L144.514 124.945L135.449 130.071L154.658 152.886L156.003 140.04Z" fill="#3F3D56"/>
<path d="M182.467 115.501C182.722 121.827 183.702 128.103 185.387 134.206C185.025 135.058 184.652 135.904 184.266 136.745C182.808 139.927 181.175 143.027 179.375 146.03C174.328 154.463 168.027 162.079 160.689 168.616C159.895 169.323 159.09 170.017 158.274 170.7C153.622 164.285 151.111 157.206 150.119 149.922C149.993 148.997 149.89 148.061 149.812 147.131V147.126C149.621 144.866 149.56 142.597 149.629 140.329C149.631 140.148 149.636 139.965 149.644 139.781C149.732 137.358 149.95 134.93 150.28 132.524V132.522C150.317 132.245 150.355 131.969 150.398 131.692C150.518 130.862 150.654 130.033 150.802 129.208C151.665 124.453 152.87 119.766 154.406 115.184V115.182C154.449 115.049 154.492 114.918 154.54 114.787C154.705 114.289 154.874 113.797 155.047 113.304C155.058 113.265 155.071 113.228 155.087 113.191C155.311 112.547 155.54 111.909 155.774 111.275C155.836 111.1 155.902 110.924 155.97 110.748C156.233 110.041 156.502 109.34 156.776 108.649C156.862 108.427 156.95 108.206 157.038 107.988C157.106 107.819 157.171 107.651 157.241 107.485V107.482C157.641 106.494 158.046 105.526 158.455 104.576C159.604 101.907 160.785 99.3956 161.936 97.0804L161.939 97.0779C166.716 87.493 171.059 81.269 171.059 81.269L187.368 86.5479C185.422 89.9992 183.917 95.0895 183.093 101.095C182.457 105.868 182.248 110.688 182.467 115.499L182.467 115.501Z" fill="#3F3D56"/>
<path d="M155.363 113.965C155.267 113.741 155.159 113.523 155.048 113.304C154.475 112.194 153.737 111.177 152.859 110.288C152.729 110.154 152.593 110.021 152.452 109.895C150.938 108.501 149.097 107.51 147.1 107.016C145.102 106.521 143.011 106.538 141.022 107.065L141.012 107.07L140.936 107.09L140.954 107.176C141.029 107.574 141.139 107.965 141.281 108.344C141.318 108.448 141.361 108.546 141.404 108.644C141.422 108.689 141.444 108.729 141.464 108.774C141.464 108.774 141.462 108.777 141.467 108.777C141.467 108.779 141.469 108.782 141.469 108.784C141.517 108.877 141.562 108.973 141.613 109.063C141.509 108.965 141.411 108.865 141.316 108.762C141.223 108.666 141.138 108.566 141.052 108.465C140.759 108.123 140.494 107.759 140.26 107.374L140.22 107.306L140.15 107.334C139.201 107.663 138.297 108.106 137.456 108.654L137.365 108.714C136.723 109.136 135.999 109.418 135.241 109.541C134.483 109.665 133.707 109.628 132.964 109.433C131.793 109.131 130.572 109.076 129.378 109.271C128.185 109.466 127.044 109.907 126.03 110.567C125.359 111.005 124.751 111.534 124.226 112.14C124.181 112.193 124.135 112.248 124.09 112.301C123.995 112.417 123.904 112.535 123.816 112.656C122.871 113.919 122.292 115.417 122.14 116.987L122.135 117.045L122.183 117.077C123.033 117.66 123.995 118.061 125.007 118.254C124.371 118.342 123.727 118.359 123.087 118.301H123.085C122.795 118.277 122.506 118.237 122.22 118.181L122.167 118.171H122.165L122.1 118.158L122.11 118.279C122.185 119.815 122.668 121.303 123.51 122.59L123.535 122.625C123.544 122.638 123.552 122.651 123.56 122.665C123.916 123.211 124.213 123.793 124.444 124.402C125.032 125.916 125.161 127.569 124.816 129.156C124.426 130.853 124.556 132.628 125.189 134.25C125.822 135.873 126.929 137.266 128.365 138.25C129.627 139.119 131.097 139.635 132.625 139.746C132.834 139.764 133.045 139.774 133.256 139.774C134.464 139.777 135.66 139.528 136.767 139.042L136.807 139.027L136.817 138.982C137.03 138.295 137.329 137.638 137.707 137.026C137.583 137.508 137.521 138.004 137.521 138.502V138.668L137.664 138.585C137.787 138.512 137.913 138.434 138.026 138.361C138.705 137.918 139.32 137.383 139.853 136.772C140.062 136.531 140.273 136.297 140.494 136.063L140.497 136.061C140.926 135.603 141.381 135.156 141.854 134.729C142.859 133.826 143.935 133.004 145.071 132.273C146.206 131.544 147.393 130.898 148.622 130.342H148.624C148.763 130.277 148.903 130.214 149.042 130.154C149.654 129.887 150.243 129.571 150.803 129.209C150.824 129.196 150.841 129.186 150.859 129.173C153.288 127.582 155.074 125.18 155.899 122.395C156.724 119.61 156.534 116.623 155.363 113.965L155.363 113.965Z" fill="#C10606"/>
<path opacity="0.15" d="M125.229 132.725C125.16 133.031 125.108 133.34 125.073 133.651C124.605 132.172 124.537 130.595 124.877 129.082C124.929 128.85 124.968 128.616 124.999 128.38C125.463 129.782 125.543 131.282 125.229 132.725Z" fill="#212121"/>
<path opacity="0.15" d="M125.42 121.821C124.675 121.924 123.92 121.928 123.174 121.831C122.979 121.463 122.81 121.081 122.67 120.689C123.5 121.249 124.436 121.634 125.42 121.821Z" fill="#212121"/>
<path opacity="0.15" d="M123.116 118.221C122.841 118.924 122.659 119.659 122.573 120.409C122.344 119.695 122.208 118.954 122.17 118.205L122.164 118.084L122.283 118.107C122.558 118.159 122.837 118.197 123.116 118.221Z" fill="#212121"/>
<path opacity="0.15" d="M126.094 110.492C127.107 109.832 128.247 109.39 129.44 109.194C130.633 108.999 131.854 109.054 133.024 109.357C133.767 109.553 134.544 109.591 135.302 109.467C136.061 109.344 136.785 109.061 137.427 108.639L137.518 108.579C138.358 108.03 139.263 107.586 140.211 107.256L140.283 107.231L140.323 107.297C140.698 107.917 141.152 108.485 141.674 108.987C141.357 108.396 141.135 107.759 141.016 107.099L140.999 107.012L141.085 106.99C142.951 106.496 144.907 106.45 146.794 106.856C148.681 107.262 150.445 108.109 151.943 109.327C153.441 110.545 154.629 112.1 155.411 113.865C156.194 115.63 156.548 117.555 156.445 119.483C156.049 117.911 155.345 116.434 154.374 115.136C153.403 113.838 152.185 112.746 150.789 111.923C149.393 111.1 147.847 110.562 146.242 110.34C144.637 110.119 143.004 110.218 141.437 110.633L141.351 110.655L141.368 110.742C141.487 111.402 141.709 112.04 142.026 112.63C141.504 112.128 141.05 111.56 140.675 110.94L140.635 110.874L140.563 110.899C139.615 111.229 138.711 111.673 137.87 112.222L137.78 112.282C137.137 112.704 136.413 112.987 135.655 113.11C134.896 113.234 134.12 113.196 133.377 113C131.431 112.495 129.37 112.681 127.546 113.525C125.722 114.37 124.248 115.821 123.374 117.632C122.985 117.445 122.608 117.234 122.245 117.001L122.195 116.97L122.201 116.912C122.326 115.618 122.741 114.369 123.415 113.257C124.089 112.146 125.005 111.201 126.094 110.492Z" fill="#212121"/>
<path d="M219.528 46.2629L219.289 46.1046L219.115 46.3308C217.773 48.0209 216.706 49.9117 215.951 51.9339C216.055 49.6043 216.463 47.2982 217.163 45.0739L217.238 44.8402L217.022 44.717C214.21 43.1244 211.214 41.8817 208.1 41.0168L207.761 40.9263C205.374 40.2713 203.153 39.1207 201.241 37.5493C199.329 35.9779 197.77 34.0211 196.665 31.8064C194.097 26.7238 190.04 22.5453 185.037 19.8285C180.033 17.1116 174.32 15.9857 168.659 16.6009H168.657C168.597 16.6059 168.534 16.6134 168.473 16.621C168.37 16.631 168.27 16.6436 168.169 16.6562C167.963 16.6838 167.762 16.7115 167.561 16.7416C167.39 16.7668 167.217 16.7944 167.046 16.8246C166.955 16.8372 166.867 16.8523 166.779 16.8698C166.691 16.8849 166.601 16.9 166.513 16.9176H166.511C164.823 17.2369 163.169 17.7123 161.569 18.3379H161.567V18.3404L161.162 18.4987C160.745 18.6697 160.331 18.8507 159.921 19.0417C159.828 19.0844 159.737 19.1297 159.644 19.1724C159.619 19.185 159.592 19.1976 159.566 19.2126C159.303 19.3383 159.041 19.469 158.782 19.6073C158.745 19.6249 158.707 19.645 158.669 19.6651L158.428 19.7933C157.898 20.0799 157.377 20.384 156.865 20.7058C156.822 20.7309 156.782 20.7561 156.739 20.7837C156.694 20.8139 156.646 20.844 156.601 20.8742C156.573 20.8893 156.545 20.9094 156.518 20.927C156.44 20.9748 156.365 21.025 156.289 21.0778C156.138 21.1759 155.988 21.2764 155.839 21.3795C155.686 21.4825 155.535 21.5906 155.384 21.6987L155.234 21.8068L155.261 21.9928C155.286 22.1462 155.309 22.2995 155.337 22.4503C155.362 22.6011 155.387 22.7495 155.415 22.8978C155.457 23.1466 155.505 23.393 155.553 23.6318C155.585 23.7901 155.616 23.946 155.651 24.0993C155.683 24.2577 155.719 24.4161 155.756 24.5744C155.829 24.9012 155.907 25.2179 155.99 25.5296C156.03 25.6855 156.073 25.8413 156.118 25.9947C156.143 26.0877 156.169 26.1807 156.196 26.2712C156.216 26.334 156.236 26.3969 156.256 26.4597C156.262 26.4798 156.267 26.5025 156.274 26.5251C156.28 26.5464 156.286 26.5674 156.294 26.5879C156.322 26.6809 156.349 26.7714 156.377 26.8594C156.392 26.9072 156.407 26.9549 156.425 27.0002C156.46 27.1083 156.498 27.2189 156.535 27.3245C156.576 27.4451 156.618 27.5658 156.661 27.6839C156.671 27.7141 156.681 27.7417 156.691 27.7719C156.699 27.7945 156.706 27.8171 156.716 27.8398C156.726 27.8649 156.737 27.8926 156.747 27.9177C156.789 28.0308 156.832 28.1464 156.877 28.2596C156.892 28.2998 156.907 28.3425 156.925 28.3827C157.332 29.4068 157.833 30.3913 158.42 31.3238C157.769 30.7658 157.143 30.1742 156.54 29.5491C155.61 28.5826 154.754 27.5483 153.977 26.4547C153.914 26.3692 153.851 26.2813 153.794 26.1933C153.675 26.0249 153.56 25.8564 153.447 25.6855C153.326 25.5095 153.21 25.326 153.097 25.145C153.022 25.0244 152.947 24.9012 152.874 24.7806C152.801 24.6649 152.733 24.5518 152.668 24.4362L152.472 24.0993H152.469V24.1018L152.193 24.3733C152.082 24.4814 151.971 24.5895 151.863 24.6976C148.485 28.0969 146.039 32.3084 144.758 36.9269L144.721 37.0652L144.683 37.2084C144.61 37.4648 144.537 37.7137 144.459 37.9676V37.9701C144.384 38.2215 144.303 38.4728 144.218 38.7192C144.14 38.953 144.06 39.1842 143.974 39.4155C143.947 39.4934 143.916 39.5713 143.884 39.6493C143.831 39.8001 143.773 39.9484 143.715 40.0992C143.688 40.1671 143.66 40.2375 143.632 40.3054C143.565 40.4713 143.497 40.6372 143.429 40.8006C143.419 40.8257 143.406 40.8533 143.394 40.8785C143.374 40.9288 143.351 40.979 143.331 41.0268C143.278 41.1475 143.223 41.2706 143.17 41.3913C143.132 41.4692 143.097 41.5497 143.062 41.6276C143.047 41.6628 143.029 41.698 143.014 41.7332C142.921 41.9343 142.826 42.1328 142.725 42.3289C142.612 42.5602 142.496 42.7915 142.373 43.0177C142.265 43.2288 142.152 43.435 142.034 43.6411C141.83 44.0056 141.617 44.3676 141.396 44.7195C141.31 44.8552 141.225 44.991 141.137 45.1267C141.117 45.1594 141.097 45.1921 141.076 45.2222C141.004 45.3404 140.928 45.4535 140.85 45.5691C140.797 45.6471 140.745 45.725 140.692 45.8004C140.604 45.9361 140.511 46.0668 140.415 46.195C140.39 46.2353 140.363 46.273 140.335 46.3107C140.194 46.5068 140.054 46.6978 139.91 46.8888C139.905 46.8913 139.905 46.8939 139.903 46.8964C139.898 46.8964 139.898 46.8989 139.895 46.9014C139.832 46.9844 139.77 47.0673 139.704 47.1477C139.619 47.2659 139.526 47.3815 139.433 47.4946C139.282 47.6857 139.124 47.8792 138.963 48.0678C138.958 48.0728 138.955 48.0778 138.95 48.0803C138.118 49.0589 137.215 49.9763 136.251 50.8253C136.233 50.8404 136.221 50.8555 136.203 50.8681C136.068 50.9862 135.932 51.1044 135.791 51.22C135.733 51.2678 135.675 51.3155 135.618 51.3633C135.522 51.4437 135.424 51.5242 135.329 51.5971C135.317 51.6086 135.305 51.6187 135.291 51.6272C135.206 51.6976 135.123 51.763 135.037 51.8283C134.934 51.9113 134.831 51.9892 134.725 52.0671C134.228 52.4442 133.717 52.8003 133.192 53.1355C133.114 53.1882 133.032 53.241 132.951 53.2913C132.903 53.3215 132.856 53.3516 132.81 53.3768C132.619 53.4949 132.428 53.6106 132.237 53.7212C132.046 53.8343 131.85 53.9424 131.657 54.0479C131.242 54.2742 130.832 54.5105 130.433 54.7568C130.232 54.8825 130.031 55.0082 129.832 55.1364C129.043 55.6492 128.283 56.198 127.553 56.7829C126.822 57.3681 126.122 57.9898 125.454 58.6456C125.371 58.726 125.288 58.809 125.205 58.8944C125.039 59.0578 124.879 59.2237 124.725 59.3896C124.479 59.6435 124.243 59.9049 124.009 60.1689C122.776 61.5676 121.685 63.0849 120.752 64.6986C120.283 65.5044 119.857 66.3342 119.475 67.1847C119.186 67.8207 118.922 68.4718 118.683 69.1303C118.525 69.5702 118.377 70.0143 118.239 70.4626C118.171 70.6863 118.105 70.9126 118.043 71.1388C117.829 71.9055 117.65 72.6797 117.505 73.4565C117.387 74.0799 117.291 74.7041 117.218 75.3292C117.18 75.6434 117.15 75.9576 117.123 76.2693C117.058 77.0355 117.025 77.8023 117.023 78.57C117.019 80.8728 117.299 83.1674 117.857 85.4017C117.98 85.8944 118.116 86.3846 118.266 86.8723C118.342 87.1161 118.422 87.3574 118.502 87.5987C118.706 88.202 118.931 88.7995 119.178 89.391C119.327 89.7455 119.483 90.0974 119.646 90.4468C120.684 92.6681 122.009 94.7437 123.587 96.6205C123.846 96.9297 124.113 97.2339 124.388 97.533C124.391 97.533 124.388 97.5355 124.388 97.5355C125.072 98.2816 125.796 98.9898 126.557 99.6571H126.56C126.864 99.9261 127.173 100.187 127.487 100.439C127.49 100.436 127.49 100.439 127.49 100.439C127.806 100.695 128.126 100.942 128.452 101.18C128.616 101.299 128.782 101.417 128.95 101.535C129.279 101.769 129.615 101.994 129.958 102.211H129.96C130.302 102.432 130.649 102.643 131.001 102.845C131.707 103.249 132.431 103.629 133.175 103.973L133.3 104.031L133.429 103.973C134.621 103.436 135.851 102.985 137.108 102.623C137.384 102.543 137.663 102.47 137.94 102.4C138.639 102.226 139.342 102.08 140.051 101.962C139.361 102.309 138.694 102.701 138.056 103.136C137.56 103.47 137.073 103.835 136.583 104.237C136.419 104.37 136.256 104.509 136.093 104.649L135.686 105.001L136.196 105.17C136.382 105.23 136.568 105.29 136.754 105.346C137.007 105.426 137.259 105.499 137.505 105.567C138.043 105.718 138.584 105.851 139.129 105.967C139.262 105.994 139.393 106.022 139.526 106.05C139.785 106.1 140.046 106.15 140.307 106.195C140.318 106.198 140.329 106.2 140.34 106.2C140.612 106.246 140.885 106.288 141.157 106.326C141.662 106.399 142.167 106.457 142.672 106.499C142.728 106.507 142.783 106.51 142.841 106.512C142.964 106.522 143.085 106.532 143.208 106.54C143.479 106.557 143.753 106.57 144.027 106.58C144.047 106.58 144.065 106.582 144.085 106.582C144.223 106.587 144.361 106.592 144.5 106.595C144.5 106.595 144.5 106.598 144.502 106.595C144.64 106.598 144.778 106.6 144.917 106.6H145.681C145.824 106.6 145.967 106.603 146.113 106.603C146.314 106.603 146.518 106.605 146.719 106.608C146.772 106.608 146.827 106.61 146.882 106.61C147.204 106.615 147.525 106.623 147.847 106.63C147.867 106.63 147.887 106.633 147.907 106.633C148.229 106.643 148.551 106.653 148.873 106.668C148.943 106.67 149.013 106.673 149.086 106.678C149.395 106.691 149.704 106.706 150.014 106.723C150.102 106.728 150.192 106.736 150.283 106.741C150.516 106.753 150.752 106.768 150.986 106.786C151.124 106.794 151.26 106.804 151.398 106.816C151.956 106.859 152.512 106.907 153.07 106.962C153.256 106.977 153.442 106.997 153.628 107.017C154.125 107.07 154.625 107.128 155.126 107.191C155.349 107.216 155.573 107.246 155.797 107.276C155.822 107.279 155.847 107.281 155.872 107.286C156.148 107.324 156.422 107.362 156.699 107.402C156.88 107.427 157.061 107.455 157.242 107.482C157.428 107.51 157.614 107.538 157.8 107.57C157.9 107.585 158.001 107.603 158.104 107.621C158.345 107.658 158.589 107.699 158.833 107.744C158.855 107.746 158.876 107.749 158.898 107.754C159.416 107.844 159.936 107.94 160.454 108.043C160.758 108.101 161.059 108.161 161.361 108.224C161.597 108.272 161.833 108.322 162.07 108.372C162.11 108.38 162.15 108.39 162.19 108.4C162.199 108.403 162.209 108.404 162.218 108.405C162.575 108.483 162.934 108.563 163.291 108.649C164.53 108.935 165.768 109.254 167.003 109.604C167.287 109.682 167.571 109.765 167.855 109.848C167.976 109.883 168.094 109.918 168.212 109.953C168.458 110.026 168.702 110.099 168.948 110.177C169.165 110.242 169.383 110.31 169.599 110.381C169.735 110.423 169.871 110.466 170.007 110.511C170.218 110.577 170.429 110.645 170.637 110.718C170.816 110.773 170.992 110.831 171.168 110.893C171.419 110.976 171.673 111.062 171.924 111.152C171.997 111.178 172.072 111.203 172.145 111.23C172.452 111.336 172.759 111.444 173.065 111.557C173.364 111.665 173.663 111.776 173.96 111.886C174.166 111.964 174.372 112.04 174.576 112.12C174.804 112.208 175.033 112.296 175.259 112.387C175.586 112.515 175.915 112.646 176.242 112.779C176.543 112.899 176.843 113.023 177.144 113.151C177.199 113.173 177.257 113.196 177.313 113.221C177.574 113.329 177.835 113.442 178.094 113.556C178.263 113.626 178.428 113.699 178.594 113.772C179.318 114.088 180.041 114.416 180.763 114.755H180.766C181.218 114.968 181.678 115.172 182.141 115.365C182.249 115.411 182.357 115.456 182.467 115.499C182.651 115.577 182.837 115.649 183.023 115.725C183.143 115.773 183.264 115.82 183.387 115.866C183.566 115.936 183.746 116.004 183.927 116.069C184.118 116.14 184.307 116.21 184.5 116.275C184.568 116.301 184.636 116.323 184.707 116.348C184.93 116.424 185.154 116.499 185.38 116.572C185.403 116.58 185.425 116.587 185.45 116.595C185.687 116.67 185.923 116.745 186.162 116.816C186.181 116.823 186.2 116.829 186.22 116.833C186.476 116.911 186.737 116.987 186.996 117.06C187.378 117.165 187.763 117.266 188.147 117.359C188.218 117.376 188.288 117.394 188.358 117.409C188.564 117.459 188.768 117.507 188.974 117.552C189.193 117.603 189.414 117.648 189.633 117.693C189.854 117.738 190.075 117.784 190.294 117.824C190.412 117.846 190.53 117.869 190.645 117.889L190.954 117.942C191.168 117.98 191.382 118.012 191.598 118.048C191.604 118.047 191.61 118.048 191.615 118.05C191.859 118.088 192.101 118.123 192.344 118.153C192.578 118.186 192.812 118.214 193.046 118.241C193.093 118.246 193.144 118.251 193.194 118.256C193.387 118.279 193.581 118.301 193.774 118.319C193.83 118.324 193.885 118.329 193.94 118.334C194.131 118.352 194.322 118.369 194.513 118.382C194.552 118.387 194.59 118.389 194.629 118.389C194.8 118.405 194.971 118.417 195.142 118.425C195.262 118.435 195.38 118.44 195.501 118.447C195.564 118.45 195.624 118.452 195.687 118.455C195.853 118.465 196.019 118.47 196.187 118.475C196.391 118.482 196.594 118.488 196.795 118.493C197.039 118.498 197.285 118.5 197.529 118.5H197.534C197.773 118.5 198.014 118.498 198.253 118.493H198.343L198.607 118.485C198.743 118.482 198.879 118.477 199.012 118.472C199.268 118.462 199.522 118.45 199.776 118.435C199.877 118.43 199.98 118.422 200.08 118.417C200.125 118.415 200.173 118.41 200.218 118.407C200.377 118.397 200.533 118.387 200.691 118.374C200.854 118.362 201.02 118.347 201.183 118.329C201.395 118.309 201.606 118.286 201.817 118.264C201.983 118.246 202.149 118.226 202.312 118.206C202.334 118.204 202.356 118.201 202.377 118.196C202.536 118.178 202.694 118.158 202.85 118.136C203.036 118.11 203.219 118.083 203.403 118.055C203.423 118.053 203.44 118.05 203.46 118.048C203.777 117.997 204.096 117.947 204.416 117.889C204.75 117.829 205.084 117.764 205.416 117.696C205.539 117.671 205.66 117.643 205.783 117.618C205.851 117.603 205.921 117.59 205.986 117.575C206.089 117.552 206.19 117.53 206.29 117.505C206.308 117.502 206.328 117.497 206.346 117.495C206.486 117.464 206.625 117.429 206.765 117.394C207.047 117.326 207.323 117.256 207.6 117.18C207.723 117.15 207.846 117.118 207.964 117.085C207.999 117.075 208.035 117.065 208.067 117.055C208.577 116.911 209.083 116.76 209.585 116.6C209.806 116.529 210.025 116.456 210.244 116.378C210.714 116.218 211.18 116.048 211.641 115.871C211.764 115.825 211.887 115.775 212.011 115.727C212.192 115.655 212.372 115.582 212.551 115.509C212.712 115.441 212.873 115.373 213.036 115.303C213.116 115.27 213.197 115.235 213.277 115.2C213.519 115.094 213.76 114.986 213.999 114.878C214.159 114.802 214.318 114.729 214.476 114.654C214.727 114.533 214.976 114.41 215.225 114.287C215.288 114.254 215.348 114.222 215.409 114.192C215.567 114.111 215.725 114.028 215.886 113.948C216.14 113.812 216.394 113.676 216.645 113.535C216.73 113.49 216.813 113.442 216.899 113.395C217.175 113.239 217.449 113.08 217.721 112.92C218.321 112.56 218.914 112.185 219.498 111.793C219.643 111.698 219.789 111.597 219.932 111.499C220.204 111.313 220.47 111.122 220.737 110.931C220.764 110.911 220.789 110.891 220.817 110.873C220.95 110.775 221.083 110.677 221.217 110.577C221.493 110.368 221.767 110.157 222.041 109.941C222.046 109.938 222.054 109.931 222.061 109.926C222.184 109.828 222.307 109.73 222.428 109.632C222.802 109.327 223.172 109.018 223.534 108.699C223.712 108.546 223.888 108.387 224.062 108.229C224.192 108.111 224.323 107.993 224.451 107.872C224.71 107.628 224.964 107.387 225.215 107.141C225.341 107.02 225.464 106.894 225.59 106.768C225.713 106.643 225.838 106.517 225.962 106.389C226.004 106.346 226.047 106.301 226.09 106.256C226.215 106.122 226.341 105.987 226.467 105.853C226.575 105.738 226.68 105.617 226.788 105.497C226.969 105.295 227.153 105.094 227.331 104.891C227.341 104.879 227.351 104.868 227.362 104.858C227.372 104.845 227.382 104.835 227.389 104.825H227.387C231.04 100.6 233.754 95.6472 235.35 90.2942C236.946 84.9411 237.387 79.3102 236.644 73.7739C235.901 68.2376 233.991 62.9222 231.04 58.1796C228.09 53.4369 224.165 49.3751 219.528 46.263L219.528 46.2629Z" fill="#C10606"/>
<g opacity="0.15">
<path opacity="0.15" d="M168.657 16.5986C169.158 18.3986 169.912 20.1183 170.896 21.7065C169.249 20.2912 167.777 18.6836 166.512 16.918C167.222 16.7836 167.938 16.6772 168.657 16.5986Z" fill="#212121"/>
<path opacity="0.15" d="M144.134 44.435C142.273 45.4504 140.534 46.6732 138.949 48.08C141.626 44.9146 143.582 41.205 144.682 37.2082C144.695 37.1602 144.708 37.1119 144.721 37.0638L144.759 36.9278C146.081 32.1576 148.646 27.8242 152.191 24.3708L152.47 24.0991L152.667 24.4348C153.754 26.2834 155.054 27.9975 156.542 29.5419C154.263 35.9755 149.827 41.3301 144.134 44.435Z" fill="#212121"/>
<path opacity="0.15" d="M157.235 27.3126L157.198 27.4487C157.185 27.4968 157.171 27.5451 157.158 27.5931C157.084 27.8576 157.006 28.1202 156.926 28.3816C156.131 26.3219 155.573 24.1785 155.262 21.9926L155.232 21.8071L155.385 21.6981C157.297 20.3237 159.374 19.1943 161.568 18.3364C159.599 21.0453 158.131 24.0855 157.235 27.3126Z" fill="#212121"/>
<path opacity="0.15" d="M131.658 54.05C133.304 53.1488 134.845 52.067 136.251 50.8247C133.441 54.0972 131.427 57.9762 130.366 62.1576C129.305 66.3391 129.227 70.7094 130.137 74.9261C131.048 79.1429 132.922 83.0915 135.613 86.4626C138.305 89.8337 141.74 92.5356 145.65 94.3568L145.777 94.4155L145.904 94.3582C148.016 93.4039 150.242 92.7276 152.528 92.3462C151.101 93.0731 149.771 93.9762 148.569 95.0342L148.163 95.3859L148.673 95.5543C149.113 95.6999 149.554 95.8339 149.982 95.9528C152.497 96.6535 155.097 97.0015 157.708 96.9868C169.571 96.9108 181.526 99.6539 193.241 105.14C195.25 106.079 197.334 106.85 199.471 107.443C208.784 110.036 218.726 109.103 227.394 104.823C222.507 110.476 216.117 114.626 208.966 116.792C201.815 118.957 194.196 119.05 186.995 117.058C184.858 116.465 182.774 115.694 180.765 114.755C169.05 109.269 157.095 106.526 145.232 106.602C142.621 106.617 140.021 106.269 137.506 105.568C137.078 105.449 136.637 105.315 136.197 105.169L135.687 105.001L136.093 104.649C137.295 103.591 138.625 102.688 140.052 101.961C137.766 102.343 135.539 103.019 133.428 103.973L133.301 104.03L133.174 103.972C128.478 101.786 124.483 98.3381 121.632 94.013C118.782 89.688 117.19 84.6559 117.032 79.4782C116.875 74.3006 118.159 69.1811 120.742 64.691C123.325 60.2009 127.104 56.5168 131.658 54.05L131.658 54.05Z" fill="#212121"/>
</g>
</svg>
