<svg width="186" height="180" viewBox="0 0 186 180" fill="none" xmlns="http://www.w3.org/2000/svg">
<path d="M185.934 27.5C185.934 31.6421 182.576 35 178.434 35C174.291 35 170.934 31.6421 170.934 27.5C170.934 23.3579 174.291 20 178.434 20C182.576 20 185.934 23.3579 185.934 27.5Z" fill="#6ADA92"/>
<path d="M30 10C30 15.5228 25.5228 20 20 20C14.4772 20 10 15.5228 10 10C10 4.47715 14.4772 0 20 0C25.5228 0 30 4.47715 30 10Z" fill="#6ADA92"/>
<path d="M15 133C15 135.761 12.7614 138 10 138C7.23858 138 5 135.761 5 133C5 130.239 7.23858 128 10 128C12.7614 128 15 130.239 15 133Z" fill="#6ADA92"/>
<path d="M168 160.5C168 161.881 166.881 163 165.5 163C164.119 163 163 161.881 163 160.5C163 159.119 164.119 158 165.5 158C166.881 158 168 159.119 168 160.5Z" fill="#6ADA92"/>
<path d="M109 4.5C109 5.88071 107.881 7 106.5 7C105.119 7 104 5.88071 104 4.5C104 3.11929 105.119 2 106.5 2C107.881 2 109 3.11929 109 4.5Z" fill="#6ADA92"/>
<path d="M66 176.5C66 178.433 64.433 180 62.5 180C60.567 180 59 178.433 59 176.5C59 174.567 60.567 173 62.5 173C64.433 173 66 174.567 66 176.5Z" fill="#6ADA92"/>
<path d="M123 171C123 171.552 122.552 172 122 172C121.448 172 121 171.552 121 171C121 170.448 121.448 170 122 170C122.552 170 123 170.448 123 171Z" fill="#6ADA92"/>
<path d="M173 110.5C173 111.881 171.881 113 170.5 113C169.119 113 168 111.881 168 110.5C168 109.119 169.119 108 170.5 108C171.881 108 173 109.119 173 110.5Z" fill="#6ADA92"/>
<path d="M2 75C2 75.5523 1.55228 76 1 76C0.447715 76 0 75.5523 0 75C0 74.4477 0.447715 74 1 74C1.55228 74 2 74.4477 2 75Z" fill="#6ADA92"/>
</svg>
