<svg width="32" height="32" viewBox="0 0 32 32" fill="none" xmlns="http://www.w3.org/2000/svg">
<path fill-rule="evenodd" clip-rule="evenodd" d="M21.1327 3.3342C21.974 3.3342 22.814 3.45286 23.6127 3.72086C28.534 5.32086 30.3074 10.7209 28.826 15.4409C27.986 17.8529 26.6127 20.0542 24.814 21.8529C22.2394 24.3462 19.414 26.5595 16.3727 28.4662L16.0394 28.6675L15.6927 28.4529C12.6407 26.5595 9.79937 24.3462 7.2007 21.8395C5.41404 20.0409 4.03937 17.8529 3.18604 15.4409C1.67937 10.7209 3.4527 5.32086 8.42737 3.69286C8.81404 3.55953 9.2127 3.4662 9.6127 3.4142H9.7727C10.1474 3.35953 10.5194 3.3342 10.8927 3.3342H11.0394C11.8794 3.35953 12.6927 3.5062 13.4807 3.7742H13.5594C13.6127 3.79953 13.6527 3.82753 13.6794 3.85286C13.974 3.94753 14.2527 4.0542 14.5194 4.20086L15.026 4.42753C15.1485 4.49283 15.2859 4.5926 15.4047 4.67883C15.4799 4.73346 15.5477 4.78265 15.5994 4.8142C15.6211 4.82704 15.6432 4.83994 15.6655 4.85296C15.7799 4.9197 15.899 4.98921 15.9994 5.0662C17.4807 3.9342 19.2794 3.32086 21.1327 3.3342ZM24.6794 12.9342C25.226 12.9195 25.6927 12.4809 25.7327 11.9195V11.7609C25.7727 9.89286 24.6407 8.20086 22.9194 7.54753C22.3727 7.35953 21.7727 7.6542 21.5727 8.2142C21.386 8.7742 21.6794 9.38753 22.2394 9.5862C23.094 9.9062 23.666 10.7475 23.666 11.6795V11.7209C23.6407 12.0262 23.7327 12.3209 23.9194 12.5475C24.106 12.7742 24.386 12.9062 24.6794 12.9342Z" fill="white"/>
</svg>
