<svg width="32" height="32" viewBox="0 0 32 32" fill="none" xmlns="http://www.w3.org/2000/svg">
<path d="M25.334 15.3333H17.334V7.33333C17.334 6.97971 17.1935 6.64057 16.9435 6.39052C16.6934 6.14048 16.3543 6 16.0007 6C15.647 6 15.3079 6.14048 15.0578 6.39052C14.8078 6.64057 14.6673 6.97971 14.6673 7.33333V15.3333H6.66732C6.3137 15.3333 5.97456 15.4738 5.72451 15.7239C5.47446 15.9739 5.33398 16.313 5.33398 16.6667C5.33398 17.0203 5.47446 17.3594 5.72451 17.6095C5.97456 17.8595 6.3137 18 6.66732 18H14.6673V26C14.6673 26.3536 14.8078 26.6928 15.0578 26.9428C15.3079 27.1929 15.647 27.3333 16.0007 27.3333C16.3543 27.3333 16.6934 27.1929 16.9435 26.9428C17.1935 26.6928 17.334 26.3536 17.334 26V18H25.334C25.6876 18 26.0267 17.8595 26.2768 17.6095C26.5268 17.3594 26.6673 17.0203 26.6673 16.6667C26.6673 16.313 26.5268 15.9739 26.2768 15.7239C26.0267 15.4738 25.6876 15.3333 25.334 15.3333Z" fill="white"/>
</svg>
