<svg width="28" height="28" viewBox="0 0 28 28" fill="none" xmlns="http://www.w3.org/2000/svg">
<path d="M11.375 14.292V21.292L17.5 17.792L11.375 14.292Z" fill="#212121"/>
<path d="M22.75 25.667H5.25C4.78601 25.6665 4.34116 25.482 4.01307 25.1539C3.68499 24.8258 3.50046 24.381 3.5 23.917V11.667C3.50046 11.203 3.68499 10.7582 4.01307 10.4301C4.34116 10.102 4.78601 9.91746 5.25 9.91699H22.75C23.214 9.91746 23.6588 10.102 23.9869 10.4301C24.315 10.7582 24.4995 11.203 24.5 11.667V23.917C24.4995 24.381 24.315 24.8258 23.9869 25.1539C23.6588 25.482 23.214 25.6665 22.75 25.667ZM5.25 11.667V23.917H22.75V11.667H5.25ZM5.25 6.41699H22.75V8.16699H5.25V6.41699ZM7 2.91699H21V4.66699H7V2.91699Z" fill="#212121"/>
</svg>
