<svg width="60" height="18" viewBox="0 0 60 18" fill="none" xmlns="http://www.w3.org/2000/svg">
<path fill-rule="evenodd" clip-rule="evenodd" d="M24.8599 5.85593C24.5057 6.39669 24.3268 7.03422 24.3478 7.681L24.3458 7.67848C24.3458 9.59981 25.5606 10.5608 27.124 10.5665C27.7037 10.5996 28.283 10.4954 28.8145 10.2617C29.3466 10.028 29.8161 9.67132 30.1847 9.22141C30.4615 9.69462 30.8229 10.113 31.2499 10.4555C31.3196 10.4932 31.398 10.5094 31.4764 10.5017C31.5549 10.494 31.6292 10.4627 31.6897 10.4123L31.6927 10.4153C32.0644 10.0899 32.7369 9.50135 33.1142 9.18824C33.1465 9.15673 33.1726 9.11899 33.191 9.07729C33.209 9.0356 33.2187 8.99071 33.2192 8.94526C33.2203 8.89976 33.2121 8.85447 33.1951 8.8122C33.1787 8.76989 33.1536 8.73138 33.1218 8.69874C32.6831 8.23586 32.435 7.62373 32.4273 6.98512V4.10314C32.4273 4.00781 32.4278 3.91308 32.4283 3.81904V3.81897V3.81889V3.81881C32.4342 2.71036 32.4397 1.69726 31.6076 0.922438C30.8152 0.290412 29.8228 -0.0357556 28.8115 0.003113C27.0451 0.003113 25.0695 0.656579 24.6595 2.83086C24.6502 2.87471 24.6502 2.92011 24.6595 2.96392C24.6692 3.00772 24.6871 3.04895 24.7128 3.08541C24.7389 3.12186 24.7722 3.15281 24.8102 3.17579C24.8486 3.19877 24.8911 3.21322 24.9357 3.21898L26.7339 3.41126C26.8175 3.39759 26.8944 3.35728 26.9528 3.2963C27.0112 3.23533 27.0481 3.15682 27.0589 3.07286C27.1312 2.73785 27.3224 2.44099 27.5966 2.23688C27.8714 2.03276 28.2107 1.93575 28.5511 1.96377C28.7499 1.9541 28.9483 1.99292 29.1293 2.07672C29.3102 2.16053 29.4681 2.28654 29.5901 2.44474C29.7961 2.85795 29.8751 3.32345 29.8177 3.7818V4.01728C29.6414 4.03749 29.4562 4.05649 29.2654 4.07606L29.2653 4.07607C28.2911 4.17601 27.1695 4.29108 26.3264 4.65995C25.7267 4.89748 25.2141 5.31511 24.8599 5.85593ZM0.515564 5.85893C0.161362 6.39924 -0.0180449 7.03605 0.00143361 7.68252V7.68201C0.00143361 9.60127 1.21935 10.5609 2.78225 10.5665C3.3625 10.6001 3.94224 10.496 4.47432 10.2622C5.00639 10.0285 5.47592 9.67171 5.84448 9.22143C6.12076 9.6951 6.48214 10.1137 6.91015 10.4556C6.97884 10.4939 7.05727 10.5107 7.13518 10.5032C7.21361 10.4958 7.28794 10.4645 7.34842 10.4139L7.35406 10.4169C7.72415 10.0909 8.39565 9.50395 8.77702 9.18981C8.80931 9.15788 8.83545 9.11979 8.85339 9.07783C8.87082 9.03583 8.88056 8.99089 8.88056 8.94529C8.88107 8.89963 8.87236 8.85398 8.85544 8.81172C8.83853 8.76945 8.8129 8.7312 8.7806 8.69876C8.33978 8.23691 8.09014 7.62453 8.08194 6.98515V4.10316C8.08194 4.00562 8.08249 3.90871 8.08303 3.81251C8.08924 2.70653 8.09492 1.69581 7.26589 0.922462C6.47291 0.290281 5.48002 -0.0358864 4.46714 0.00313646C2.70075 0.00313646 0.731365 0.656603 0.31514 2.83088C0.306939 2.87458 0.307451 2.91988 0.316678 2.96343C0.325905 3.00697 0.343845 3.0481 0.369475 3.08445C0.395105 3.12075 0.427911 3.15114 0.465842 3.17432C0.503774 3.19751 0.546319 3.21273 0.58989 3.219L2.39575 3.41129C2.47828 3.39674 2.55414 3.35622 2.61155 3.2953C2.66948 3.23443 2.70587 3.15623 2.71612 3.07288C2.78942 2.73793 2.98062 2.44096 3.25537 2.2369C3.53012 2.03284 3.86946 1.93598 4.20982 1.96379C4.40922 1.95438 4.60759 1.99299 4.78853 2.07675C4.96999 2.1605 5.12787 2.28672 5.25038 2.44477C5.45439 2.85864 5.53231 3.32378 5.4749 3.78183V4.01982C5.29365 4.04097 5.10294 4.06078 4.90628 4.0812H4.90627C3.93661 4.18191 2.82214 4.29766 1.9826 4.66398C1.38236 4.9013 0.870278 5.31868 0.515564 5.85893ZM46.7322 0.0898829C44.0465 0.0898829 42.557 2.3875 42.5566 5.33764C42.557 8.27237 44.026 10.6281 46.7322 10.6301C49.3316 10.6301 50.979 8.33363 50.979 5.44008C50.9867 2.44524 49.491 0.0898829 46.7322 0.0898829ZM37.7523 16.3821C38.1752 15.3374 39.1153 12.9928 38.6714 12.4231C38.2351 11.8633 35.8112 12.1458 34.6627 12.2797L34.6034 12.2866C34.261 12.3272 34.2113 12.0295 34.5168 11.8166C36.5113 10.4228 39.7796 10.8256 40.1584 11.2945C40.5372 11.7633 40.062 15.0312 38.1864 16.5849C38.108 16.6574 38.0075 16.7006 37.9014 16.7078C37.7538 16.7088 37.6697 16.5844 37.7528 16.3801L37.7523 16.3821ZM8.58783 12.0117C8.26182 11.7182 8.55349 11.3169 8.94716 11.5488C13.7501 14.2819 19.179 15.7157 24.7012 15.7096C28.8286 15.6908 32.9119 14.8591 36.7194 13.2614C37.3099 13.0152 37.8 13.6526 37.2248 14.0768C33.7392 16.6366 28.6871 17.9996 24.3352 17.9996C18.5275 18.0315 12.9151 15.8976 8.58783 12.0117ZM45.291 5.04007V5.07488C45.2909 6.2477 45.2906 8.67367 46.7314 8.67367C48.1754 8.67367 48.2441 6.67878 48.2384 5.46182C48.2692 4.6138 48.1754 3.76558 47.9606 2.94487C47.9022 2.67083 47.7474 2.42724 47.5244 2.25855C47.3014 2.08981 47.0251 2.0078 46.7463 2.02708C45.3797 2.0276 45.291 3.87818 45.291 5.03807V5.04007ZM2.71885 7.36019C2.71885 8.16019 3.13353 8.69926 3.84655 8.69926C4.11617 8.688 4.3776 8.6043 4.60365 8.45674C4.82919 8.30918 5.01167 8.10332 5.13059 7.86075C5.42944 7.2532 5.55041 6.57279 5.47916 5.89912V5.50046C4.13463 5.49789 2.7168 5.78339 2.7168 7.35767L2.71885 7.36019ZM27.0567 7.36215C27.0567 8.16214 27.474 8.70121 28.1885 8.70121C28.4577 8.68923 28.7186 8.60522 28.9436 8.45772C29.1691 8.31021 29.3511 8.10471 29.47 7.86271C29.7689 7.25515 29.8898 6.57475 29.8186 5.90108V5.50241C28.4725 5.49984 27.0547 5.78534 27.0547 7.35963L27.0567 7.36215ZM57.559 10.3421C57.6185 10.3967 57.6949 10.4293 57.7748 10.4345L59.6412 10.4385C59.7263 10.439 59.8093 10.4091 59.8749 10.3542C59.9405 10.2993 59.9846 10.2227 59.9995 10.1383V4.165V4.16211C59.9995 3.24408 59.9995 1.97085 59.513 1.21072C59.2803 0.850057 58.9574 0.556692 58.5765 0.360189C58.1957 0.163687 57.7702 0.0706281 57.3427 0.0905766C56.0628 0.0905766 55.3303 0.710367 54.8131 2.0065H54.7839V0.557C54.7639 0.482605 54.7213 0.416333 54.6614 0.36821C54.6014 0.320087 54.5276 0.29294 54.4512 0.289907H52.7299C52.6423 0.287285 52.5572 0.317207 52.4905 0.374225C52.4244 0.431294 52.3819 0.511191 52.3711 0.598182L52.3731 10.0896C52.3752 10.1792 52.4106 10.265 52.4731 10.3291C52.5351 10.3932 52.6202 10.4308 52.7094 10.4345H54.5547C54.6009 10.4359 54.647 10.4281 54.6906 10.4114C54.7341 10.3948 54.7736 10.3697 54.8074 10.3377C54.8413 10.3056 54.8684 10.2672 54.8874 10.2246C54.9064 10.1821 54.9166 10.1362 54.9182 10.0896V4.98288C54.8823 4.36839 54.9833 3.75359 55.2144 3.18341C55.3021 2.96655 55.4507 2.77971 55.6414 2.64516C55.8326 2.51066 56.0582 2.4339 56.2909 2.42475C57.4702 2.42475 57.4586 3.71257 57.4494 4.72699C57.4486 4.81396 57.4478 4.89892 57.4478 4.98088V10.1343C57.4601 10.2142 57.4996 10.2876 57.559 10.3421ZM20.5131 10.4308C20.4244 10.4259 20.3408 10.3879 20.2793 10.3243C20.2173 10.2607 20.1814 10.1762 20.1789 10.0873V5.05697C20.206 4.46335 20.1891 3.86855 20.1276 3.27755C20.0897 3.02449 19.9538 2.79642 19.7493 2.64341C19.5448 2.49046 19.2885 2.42511 19.0363 2.46115C18.7959 2.46814 18.5621 2.54537 18.3653 2.68362C18.168 2.82182 18.0157 3.01482 17.9265 3.23888C17.7722 3.83178 17.7143 4.44566 17.7548 5.05697V10.0873C17.7538 10.1335 17.7435 10.1791 17.7251 10.2214C17.7061 10.2637 17.6795 10.302 17.6461 10.3338C17.6128 10.3658 17.5739 10.3905 17.5308 10.4072C17.4878 10.4238 17.4416 10.4319 17.396 10.4308H15.5414C15.4528 10.4267 15.3687 10.3891 15.3067 10.3253C15.2441 10.2616 15.2083 10.1765 15.2062 10.0873V5.05697C15.2062 4.95076 15.2079 4.83953 15.2097 4.72537C15.2256 3.70165 15.2451 2.44161 14.0585 2.44161C12.7754 2.44161 12.778 3.84831 12.78 4.93263L12.7801 5.05697V10.0883C12.7786 10.1345 12.7683 10.1797 12.7499 10.2219C12.7314 10.2641 12.7048 10.3021 12.6714 10.3338C12.6381 10.3657 12.5986 10.3906 12.5556 10.4072C12.5125 10.4238 12.4669 10.4319 12.4208 10.4308H10.5626C10.4791 10.4281 10.3991 10.3952 10.3381 10.3379C10.2771 10.2806 10.2387 10.2025 10.2305 10.119V0.630572C10.2315 0.584454 10.2412 0.53921 10.2602 0.497C10.2787 0.454789 10.3053 0.416846 10.3386 0.385072C10.3719 0.353247 10.4114 0.328312 10.4545 0.311757C10.497 0.295202 10.5431 0.286924 10.5893 0.288158H12.3198C12.4049 0.290472 12.4864 0.32425 12.5484 0.383016C12.6109 0.441833 12.6494 0.521575 12.6566 0.606973V1.84511H12.6883C12.8437 1.32147 13.1681 0.864401 13.611 0.546202C14.0534 0.228004 14.5896 0.0667713 15.1334 0.0877994C16.296 0.0877994 17.0244 0.648721 17.5431 1.84511C17.7189 1.39329 18.0101 0.995865 18.3874 0.692834C18.7651 0.389803 19.2152 0.191912 19.6934 0.118956C20.1717 0.0460002 20.6602 0.100396 21.1108 0.277104C21.5608 0.453761 21.957 0.746715 22.2585 1.12563C22.7613 1.80886 22.7457 2.75824 22.7309 3.65545C22.7284 3.80542 22.7259 3.95393 22.7259 4.09949L22.7239 10.0873C22.7229 10.1335 22.7126 10.1791 22.6936 10.2214C22.6752 10.2637 22.6485 10.3015 22.6152 10.3334C22.5819 10.3653 22.5424 10.3905 22.4999 10.4072C22.4568 10.4238 22.4107 10.4318 22.3646 10.4308H20.5131ZM34.3389 8.47021V9.84793L34.3368 9.84593C34.3394 9.93189 34.3727 10.0138 34.4311 10.0769C34.4896 10.14 34.5685 10.1799 34.6541 10.1889C34.6951 10.1887 34.7356 10.1775 34.772 10.1572C35.7685 9.64382 36.8721 9.37549 37.9926 9.374C39.1127 9.37246 40.2173 9.63801 41.2153 10.1487C41.2655 10.1691 41.3204 10.1767 41.3737 10.1708C41.4275 10.1648 41.4793 10.1454 41.5234 10.1146C41.568 10.0837 41.6044 10.0424 41.629 9.99405C41.6536 9.94572 41.6659 9.89169 41.6643 9.83739V8.38841C41.6608 8.27962 41.6285 8.1734 41.5711 8.08111C41.5136 7.98882 41.4327 7.9135 41.3373 7.86219C40.2634 7.30739 39.0619 7.05037 37.8563 7.11813L41.0221 2.62346C41.3168 2.21883 41.4834 1.96624 41.4834 1.77138V0.608047C41.4844 0.561774 41.4757 0.516273 41.4578 0.473497C41.4403 0.430773 41.4142 0.39175 41.3809 0.359514C41.3476 0.327329 41.3086 0.302136 41.2655 0.285735C41.222 0.269334 41.1758 0.262034 41.1297 0.264141H35.0299C34.9847 0.262548 34.9391 0.270517 34.8971 0.287226C34.8546 0.303936 34.8161 0.329282 34.7838 0.36157C34.7515 0.393806 34.7264 0.432058 34.7095 0.474526C34.6926 0.516942 34.6849 0.562443 34.6864 0.608047V1.96619C34.6854 2.01225 34.6941 2.0577 34.7115 2.10027C34.729 2.14284 34.7551 2.18125 34.7884 2.21323C34.8212 2.24521 34.8602 2.27045 34.9032 2.28654C34.9463 2.30264 34.9924 2.30963 35.0386 2.30711H38.2264L34.5624 7.53885C34.3968 7.82008 34.3194 8.14429 34.3389 8.47021Z" fill="white"/>
</svg>
