<svg width="4" height="14" viewBox="0 0 4 14" fill="none" xmlns="http://www.w3.org/2000/svg">
<path d="M1.75 5.25C0.7875 5.25 0 6.0375 0 7C0 7.9625 0.7875 8.75 1.75 8.75C2.7125 8.75 3.5 7.9625 3.5 7C3.5 6.0375 2.7125 5.25 1.75 5.25ZM1.75 0C0.7875 0 0 0.7875 0 1.75C0 2.7125 0.7875 3.5 1.75 3.5C2.7125 3.5 3.5 2.7125 3.5 1.75C3.5 0.7875 2.7125 0 1.75 0ZM1.75 10.5C0.7875 10.5 0 11.2875 0 12.25C0 13.2125 0.7875 14 1.75 14C2.7125 14 3.5 13.2125 3.5 12.25C3.5 11.2875 2.7125 10.5 1.75 10.5Z" fill="#212121"/>
</svg>
