<svg width="28" height="28" viewBox="0 0 28 28" fill="none" xmlns="http://www.w3.org/2000/svg">
<path d="M3.50065 23.3333H3.51432C4.1569 23.3333 4.68099 22.8092 4.68099 22.1667C4.68099 21.5241 4.1569 21 3.51432 21H3.50065C2.85807 21 2.33398 21.5241 2.33398 22.1667C2.33398 22.8092 2.85807 23.3333 3.50065 23.3333Z" fill="#212121"/>
<path d="M9.33399 22.1668C9.33399 18.9448 6.72266 16.3335 3.50065 16.3335C2.85807 16.3335 2.33398 16.8576 2.33398 17.5002C2.33398 18.1427 2.85807 18.6668 3.50065 18.6668C5.43294 18.6714 6.99609 20.2345 7.00065 22.1668C7.00065 22.8094 7.52474 23.3335 8.16732 23.3335C8.8099 23.3335 9.33399 22.8094 9.33399 22.1668Z" fill="#212121"/>
<path d="M14.0007 22.1667C14.0007 16.3653 9.30208 11.6667 3.50065 11.6667C2.85807 11.6667 2.33398 12.1908 2.33398 12.8334C2.33398 13.476 2.85807 14.0001 3.50065 14.0001C5.76107 14.0001 7.79362 14.9115 9.27474 16.3927C10.7559 17.8738 11.6673 19.9063 11.6673 22.1667C11.6673 22.8093 12.1914 23.3334 12.834 23.3334C13.4766 23.3334 14.0007 22.8093 14.0007 22.1667Z" fill="#212121"/>
<path d="M17.5009 23.3334H21.0009C23.5804 23.3334 25.6676 21.2462 25.6676 18.6667V9.33342C25.6676 6.75399 23.5804 4.66675 21.0009 4.66675H7.00092H6.99181C5.03217 4.68498 3.29129 5.92912 2.63504 7.77938C2.42085 8.3855 2.73986 9.05542 3.34598 9.26961C3.9521 9.48381 4.62202 9.1648 4.83621 8.55868C5.16434 7.63355 6.03478 7.01375 7.0146 7.00464H7.00548H21.0055C22.2952 7.0092 23.3343 8.04826 23.3388 9.33797V18.6713C23.3343 19.961 22.2952 21.0001 21.0055 21.0046H17.5055C16.8629 21.0046 16.3388 21.5287 16.3388 22.1713C16.3343 22.8093 16.8583 23.3334 17.5009 23.3334Z" fill="#212121"/>
</svg>
