<svg width="32" height="32" viewBox="0 0 32 32" fill="none" xmlns="http://www.w3.org/2000/svg">
<path d="M11.579 32.0007C6.81645 31.9732 2.87695 22.2512 2.87695 17.3C2.87695 9.2123 8.94414 7.44167 11.2824 7.44167C12.3361 7.44167 13.4613 7.85548 14.4538 8.22167C15.1478 8.47711 15.8655 8.7408 16.2647 8.7408C16.5036 8.7408 17.0667 8.51648 17.5638 8.31967C18.624 7.89761 19.9433 7.37305 21.4795 7.37305C21.4823 7.37305 21.486 7.37305 21.4886 7.37305C22.6358 7.37305 26.1139 7.6248 28.205 10.765L28.6948 11.5011L27.9898 12.033C26.9828 12.7929 25.1453 14.179 25.1453 16.9247C25.1453 20.1767 27.2263 21.4273 28.226 22.0288C28.6673 22.2943 29.1241 22.568 29.1241 23.1668C29.1241 23.5577 26.004 31.9522 21.4731 31.9522C20.3644 31.9522 19.5807 31.6189 18.8895 31.325C18.19 31.0275 17.5866 30.7712 16.5896 30.7712C16.0843 30.7712 15.4452 31.0101 14.7686 31.2637C13.8441 31.6088 12.7976 32.0007 11.6101 32.0007H11.579Z" fill="black"/>
<path d="M21.9591 0C22.0771 4.25475 19.0343 7.2065 15.995 7.02138C15.4942 3.62594 19.0339 0 21.9591 0Z" fill="black"/>
</svg>
