<svg width="24" height="28" viewBox="0 0 24 28" fill="none" xmlns="http://www.w3.org/2000/svg">
<path d="M22.8237 15.8868C22.3815 15.8868 22.0262 16.2459 21.9909 16.6868C21.8548 18.3847 21.2871 20.0246 20.3359 21.4482C19.2359 23.0945 17.6725 24.3775 15.8433 25.1352C14.0142 25.8928 12.0014 26.0911 10.0596 25.7048C8.11774 25.3186 6.33405 24.3652 4.93407 22.9652C3.53409 21.5652 2.58069 19.7815 2.19444 17.8397C1.80818 15.8979 2.00642 13.8851 2.76409 12.0559C3.52175 10.2268 4.80481 8.66336 6.45101 7.5634C8.09722 6.46345 10.0326 5.87635 12.0125 5.87635H15.2158C15.6581 5.87635 16.0167 6.23489 16.0167 6.67718V8.94817C16.0167 9.66164 16.8793 10.0189 17.3838 9.51445L18.5089 8.33325L19.9828 6.88742L21.4566 5.44158C21.7694 5.12883 21.7694 4.62177 21.4566 4.30903L19.4202 2.2726L17.3838 0.236164C16.8793 -0.268332 16.0167 0.088972 16.0167 0.802438V3.07343C16.0167 3.51572 15.6581 3.87426 15.2158 3.87426H12.0125C9.63665 3.87426 7.31416 4.57878 5.33872 5.89873C3.36327 7.21868 1.8236 9.09478 0.914402 11.2898C0.00520486 13.4848 -0.232683 15.9001 0.230822 18.2303C0.694327 20.5605 1.83841 22.7009 3.51838 24.3809C5.19836 26.0609 7.33879 27.2049 9.66898 27.6684C11.9992 28.1319 14.4145 27.8941 16.6095 26.9849C18.8045 26.0757 20.6806 24.536 22.0005 22.5605C23.1718 20.8076 23.8585 18.7813 23.9983 16.687C24.0278 16.2457 23.6665 15.8868 23.2242 15.8868H22.8237Z" fill="#212121"/>
<path d="M15.646 20.0212C15.2036 20.0321 14.7649 19.9395 14.3646 19.7509C14.0092 19.5706 13.7033 19.3059 13.4737 18.9801C13.222 18.6001 13.0453 18.1753 12.9532 17.7288C12.8349 17.1762 12.7778 16.6122 12.783 16.0471C12.7789 15.482 12.836 14.9182 12.9532 14.3653C13.0471 13.9194 13.2237 13.495 13.4737 13.114C13.7033 12.7883 14.0092 12.5236 14.3646 12.3432C14.7649 12.1547 15.2036 12.0621 15.646 12.073C16.0619 12.0413 16.4789 12.1167 16.8574 12.2919C17.2359 12.4672 17.5633 12.7364 17.8082 13.074C18.3244 13.9618 18.5681 14.9818 18.5089 16.0071C18.5681 17.0323 18.3244 18.0523 17.8082 18.9401C17.5726 19.2924 17.2493 19.5774 16.8702 19.7669C16.4911 19.9565 16.0692 20.0441 15.646 20.0212ZM15.646 18.8C15.8478 18.812 16.0489 18.7667 16.226 18.6693C16.4032 18.5718 16.5491 18.4263 16.647 18.2494C16.8862 17.7812 17.0131 17.2636 17.0174 16.7378V15.3564C17.039 14.8401 16.9396 14.3258 16.7271 13.8548C16.6152 13.6834 16.4623 13.5425 16.2823 13.4451C16.1022 13.3476 15.9008 13.2965 15.696 13.2965C15.4913 13.2965 15.2898 13.3476 15.1098 13.4451C14.9297 13.5425 14.7769 13.6834 14.665 13.8548C14.4524 14.3258 14.353 14.8401 14.3747 15.3564V16.7378C14.354 17.2573 14.4533 17.7745 14.665 18.2494C14.7604 18.4239 14.903 18.568 15.0765 18.6654C15.25 18.7627 15.4473 18.8094 15.646 18.8ZM6.6366 19.8911V18.7099H8.63868V16.1122V13.5145L6.77675 14.5155L6.22617 13.4544L8.54859 12.153H10.0101V14.4454V16.7378V18.6598H11.792V19.8911H6.6366Z" fill="#212121"/>
</svg>
