<svg width="28" height="28" viewBox="0 0 28 28" fill="none" xmlns="http://www.w3.org/2000/svg">
<path d="M23.332 14.3203C23.332 14.7633 23.0029 15.1294 22.5758 15.1873L22.457 15.1953L4.95703 15.1953C4.47378 15.1953 4.08203 14.8036 4.08203 14.3203C4.08203 13.8773 4.41121 13.5112 4.8383 13.4533L4.95703 13.4453L22.457 13.4453C22.9403 13.4453 23.332 13.8371 23.332 14.3203Z" fill="#212121"/>
<path d="M12.633 20.7291C12.9755 21.0701 12.9766 21.6241 12.6357 21.9665C12.3257 22.2779 11.8397 22.3071 11.4966 22.0537L11.3982 21.9692L4.33991 14.9412C4.02766 14.6303 3.99926 14.1425 4.25471 13.7994L4.33986 13.7012L11.3982 6.67199C11.7406 6.33099 12.2946 6.33214 12.6356 6.67456C12.9456 6.98584 12.9729 7.47201 12.718 7.81403L12.6331 7.91199L6.19769 14.3215L12.633 20.7291Z" fill="#212121"/>
</svg>
