<svg width="20" height="20" viewBox="0 0 20 20" fill="none" xmlns="http://www.w3.org/2000/svg">
<path fill-rule="evenodd" clip-rule="evenodd" d="M6.38768 2.9165C4.27935 2.9165 2.91602 4.36067 2.91602 6.5965V13.4032C2.91602 15.639 4.27935 17.0832 6.38768 17.0832H13.6118C15.7202 17.0832 17.0827 15.639 17.0827 13.4032V6.5965C17.0827 4.36067 15.7202 2.9165 13.6118 2.9165H6.38768ZM13.6118 18.3332H6.38768C3.56352 18.3332 1.66602 16.3515 1.66602 13.4032V6.5965C1.66602 3.64817 3.56352 1.6665 6.38768 1.6665H13.6118C16.436 1.6665 18.3327 3.64817 18.3327 6.5965V13.4032C18.3327 16.3515 16.436 18.3332 13.6118 18.3332Z" fill="#212121"/>
<path fill-rule="evenodd" clip-rule="evenodd" d="M10 14.0297C9.655 14.0297 9.375 13.7497 9.375 13.4047V6.59473C9.375 6.24973 9.655 5.96973 10 5.96973C10.345 5.96973 10.625 6.24973 10.625 6.59473V13.4047C10.625 13.7497 10.345 14.0297 10 14.0297Z" fill="#212121"/>
<path fill-rule="evenodd" clip-rule="evenodd" d="M10.0001 14.0304C9.83425 14.0304 9.67425 13.9645 9.55758 13.8462L6.43425 10.7095C6.19008 10.4645 6.19175 10.0687 6.43591 9.82536C6.68091 9.58286 7.07591 9.58119 7.31925 9.82702L10.0001 12.5195L12.6809 9.82702C12.9251 9.58119 13.3201 9.58286 13.5642 9.82536C13.8084 10.0687 13.8101 10.4645 13.5659 10.7095L10.4426 13.8462C10.3259 13.9645 10.1659 14.0304 10.0001 14.0304Z" fill="#212121"/>
</svg>
