<svg width="20" height="20" viewBox="0 0 20 20" fill="none" xmlns="http://www.w3.org/2000/svg">
<path d="M11.6884 10.4151L15.5665 6.54595C15.7364 6.37612 15.8318 6.14578 15.8318 5.9056C15.8318 5.66542 15.7364 5.43508 15.5665 5.26524C15.3967 5.09541 15.1664 5 14.9262 5C14.686 5 14.4557 5.09541 14.2858 5.26524L10.4167 9.14344L6.54749 5.26524C6.37766 5.09541 6.14731 5 5.90714 5C5.66696 5 5.43661 5.09541 5.26678 5.26524C5.09695 5.43508 5.00154 5.66542 5.00154 5.9056C5.00154 6.14578 5.09695 6.37612 5.26678 6.54595L9.14498 10.4151L5.26678 14.2843C5.18225 14.3681 5.11515 14.4679 5.06936 14.5778C5.02357 14.6877 5 14.8056 5 14.9247C5 15.0437 5.02357 15.1616 5.06936 15.2715C5.11515 15.3814 5.18225 15.4812 5.26678 15.565C5.35063 15.6495 5.45038 15.7166 5.56028 15.7624C5.67019 15.8082 5.78807 15.8318 5.90714 15.8318C6.0262 15.8318 6.14408 15.8082 6.25399 15.7624C6.36389 15.7166 6.46365 15.6495 6.54749 15.565L10.4167 11.6868L14.2858 15.565C14.3697 15.6495 14.4694 15.7166 14.5793 15.7624C14.6892 15.8082 14.8071 15.8318 14.9262 15.8318C15.0453 15.8318 15.1631 15.8082 15.273 15.7624C15.383 15.7166 15.4827 15.6495 15.5665 15.565C15.6511 15.4812 15.7182 15.3814 15.764 15.2715C15.8098 15.1616 15.8333 15.0437 15.8333 14.9247C15.8333 14.8056 15.8098 14.6877 15.764 14.5778C15.7182 14.4679 15.6511 14.3681 15.5665 14.2843L11.6884 10.4151Z" fill="#212121"/>
</svg>
