<svg width="32" height="32" viewBox="0 0 32 32" fill="none" xmlns="http://www.w3.org/2000/svg">
<path fill-rule="evenodd" clip-rule="evenodd" d="M2.66602 16.02C2.66602 8.99612 8.27935 2.66663 16.026 2.66663C23.5993 2.66663 29.3327 8.87594 29.3327 15.9799C29.3327 24.219 22.6127 29.3333 15.9993 29.3333C13.8127 29.3333 11.386 28.7457 9.43935 27.5974C8.75935 27.1834 8.18602 26.8763 7.45268 27.1166L4.75935 27.9178C4.07935 28.1315 3.46602 27.5974 3.66602 26.8763L4.55935 23.8851C4.70602 23.4712 4.67935 23.0305 4.46602 22.6833C3.31935 20.5735 2.66602 18.2634 2.66602 16.02ZM14.266 16.02C14.266 16.9681 15.026 17.7292 15.9727 17.7426C16.9193 17.7426 17.6793 16.9681 17.6793 16.0333C17.6793 15.0853 16.9193 14.3241 15.9727 14.3241C15.0393 14.3108 14.266 15.0853 14.266 16.02ZM20.4127 16.0333C20.4127 16.9681 21.1727 17.7426 22.1193 17.7426C23.066 17.7426 23.826 16.9681 23.826 16.0333C23.826 15.0853 23.066 14.3241 22.1193 14.3241C21.1727 14.3241 20.4127 15.0853 20.4127 16.0333ZM9.82602 17.7426C8.89268 17.7426 8.11935 16.9681 8.11935 16.0333C8.11935 15.0853 8.87935 14.3241 9.82602 14.3241C10.7727 14.3241 11.5327 15.0853 11.5327 16.0333C11.5327 16.9681 10.7727 17.7292 9.82602 17.7426Z" fill="#C10606"/>
</svg>
