<svg width="20" height="20" viewBox="0 0 20 20" fill="none" xmlns="http://www.w3.org/2000/svg">
<path d="M8.75977 12.7216L8.67383 12.8466C8.15284 13.5751 7.46587 14.169 6.66977 14.5793C5.87367 14.9896 4.99131 15.2044 4.0957 15.206H2.29102C2.12526 15.206 1.96628 15.1401 1.84907 15.0229C1.73186 14.9057 1.66602 14.7468 1.66602 14.581C1.66602 14.4152 1.73186 14.2563 1.84907 14.1391C1.96628 14.0218 2.12526 13.956 2.29102 13.956H4.0957C4.7914 13.9541 5.47664 13.7865 6.09476 13.4673C6.71288 13.148 7.24612 12.6862 7.65039 12.1201L7.74414 11.9951C7.79015 11.9243 7.85002 11.8635 7.92014 11.8165C7.99027 11.7695 8.06919 11.7372 8.15215 11.7215C8.2351 11.7058 8.32038 11.7071 8.40282 11.7253C8.48526 11.7435 8.56316 11.7782 8.63183 11.8273C8.70049 11.8765 8.75849 11.939 8.80233 12.0111C8.84617 12.0833 8.87493 12.1636 8.88689 12.2471C8.89884 12.3307 8.89374 12.4158 8.87189 12.4974C8.85005 12.5789 8.8119 12.6552 8.75977 12.7216ZM10.9629 8.56537C11.03 8.61341 11.1059 8.64769 11.1863 8.66623C11.2667 8.68478 11.35 8.68722 11.4313 8.67342C11.5127 8.65962 11.5905 8.62985 11.6602 8.58583C11.73 8.54181 11.7904 8.4844 11.8379 8.41693L11.9316 8.29193C12.328 7.73439 12.8499 7.27777 13.4551 6.95888C14.0603 6.63998 14.732 6.46772 15.416 6.45599V7.70599C15.4156 7.82938 15.4518 7.95013 15.5199 8.05301C15.588 8.15589 15.6851 8.23631 15.7988 8.28412C15.8759 8.31473 15.9581 8.33063 16.041 8.33099C16.207 8.33029 16.3664 8.26598 16.4863 8.15131L18.3613 6.27631C18.4787 6.15781 18.5445 5.99777 18.5445 5.83099C18.5445 5.66421 18.4787 5.50418 18.3613 5.38568L16.4863 3.51068C16.396 3.42589 16.2834 3.36842 16.1618 3.34492C16.0401 3.32142 15.9143 3.33284 15.7988 3.37787C15.6851 3.42568 15.588 3.5061 15.5199 3.60898C15.4518 3.71186 15.4156 3.8326 15.416 3.95599V5.20599C14.5323 5.21863 13.664 5.43873 12.881 5.84855C12.098 6.25837 11.4222 6.84645 10.9082 7.56537L10.8223 7.69037C10.7738 7.75698 10.739 7.8325 10.7199 7.9126C10.7007 7.9927 10.6976 8.07579 10.7107 8.1571C10.7237 8.23842 10.7528 8.31634 10.796 8.38641C10.8393 8.45647 10.896 8.51729 10.9629 8.56537ZM16.4863 12.2607C16.396 12.1759 16.2834 12.1184 16.1618 12.0949C16.0401 12.0714 15.9143 12.0828 15.7988 12.1279C15.6851 12.1757 15.588 12.2561 15.5199 12.359C15.4518 12.4619 15.4156 12.5826 15.416 12.706V13.956C14.732 13.9443 14.0603 13.772 13.4551 13.4531C12.8499 13.1342 12.328 12.6776 11.9316 12.1201L8.67383 7.56537C8.15284 6.83689 7.46587 6.24294 6.66977 5.83266C5.87367 5.42238 4.99131 5.20757 4.0957 5.20599H2.29102C2.12526 5.20599 1.96628 5.27184 1.84907 5.38905C1.73186 5.50626 1.66602 5.66523 1.66602 5.83099C1.66602 5.99675 1.73186 6.15573 1.84907 6.27294C1.96628 6.39015 2.12526 6.45599 2.29102 6.45599H4.0957C4.7914 6.45793 5.47664 6.62545 6.09476 6.94469C6.71288 7.26394 7.24612 7.72575 7.65039 8.29193L10.9082 12.8466C11.4222 13.5655 12.098 14.1536 12.881 14.5634C13.664 14.9733 14.5323 15.1934 15.416 15.206V16.456C15.4156 16.5794 15.4518 16.7001 15.5199 16.803C15.588 16.9059 15.6851 16.9863 15.7988 17.0341C15.8759 17.0647 15.9581 17.0806 16.041 17.081C16.207 17.0803 16.3664 17.016 16.4863 16.9013L18.3613 15.0263C18.4787 14.9078 18.5445 14.7478 18.5445 14.581C18.5445 14.4142 18.4787 14.2542 18.3613 14.1357L16.4863 12.2607Z" fill="white"/>
</svg>
