<svg width="20" height="20" viewBox="0 0 20 20" fill="none" xmlns="http://www.w3.org/2000/svg">
<path fill-rule="evenodd" clip-rule="evenodd" d="M6.38768 2.91667C4.27935 2.91667 2.91602 4.36084 2.91602 6.59667V13.4033C2.91602 15.6392 4.27935 17.0833 6.38768 17.0833H13.6118C15.7202 17.0833 17.0827 15.6392 17.0827 13.4033V6.59667C17.0827 4.36084 15.7202 2.91667 13.6118 2.91667H6.38768ZM13.6118 18.3333H6.38768C3.56352 18.3333 1.66602 16.3517 1.66602 13.4033V6.59667C1.66602 3.64834 3.56352 1.66667 6.38768 1.66667H13.6118C16.436 1.66667 18.3327 3.64834 18.3327 6.59667V13.4033C18.3327 16.3517 16.436 18.3333 13.6118 18.3333Z" fill="#212121"/>
<path fill-rule="evenodd" clip-rule="evenodd" d="M10 14.0299C9.655 14.0299 9.375 13.7499 9.375 13.4049V6.59492C9.375 6.24992 9.655 5.96992 10 5.96992C10.345 5.96992 10.625 6.24992 10.625 6.59492V13.4049C10.625 13.7499 10.345 14.0299 10 14.0299Z" fill="#212121"/>
<path fill-rule="evenodd" clip-rule="evenodd" d="M10.0001 14.0308C9.83425 14.0308 9.67425 13.9649 9.55758 13.8466L6.43425 10.7099C6.19008 10.4649 6.19175 10.0691 6.43591 9.82575C6.68091 9.58325 7.07591 9.58159 7.31925 9.82742L10.0001 12.5199L12.6809 9.82742C12.9251 9.58159 13.3201 9.58325 13.5642 9.82575C13.8084 10.0691 13.8101 10.4649 13.5659 10.7099L10.4426 13.8466C10.3259 13.9649 10.1659 14.0308 10.0001 14.0308Z" fill="#212121"/>
</svg>
