<svg width="23" height="19" viewBox="0 0 23 19" fill="none" xmlns="http://www.w3.org/2000/svg">
<path d="M0 3.30759V15.694C0 18.2309 2.75686 19.8228 4.95717 18.5544L7.64283 17.0077L10.3285 15.4611L13.8684 13.4139L15.6998 12.3547C17.9002 11.0863 17.9002 7.9153 15.6998 6.64688L10.3285 3.54057L4.95717 0.44719C2.75686 -0.821223 0 0.757822 0 3.30759Z" fill="#212121"/>
<path d="M21.33 18.464C20.7994 18.464 20.3593 18.0239 20.3593 17.4932V9.49448V5.4951V1.49571C20.3593 0.965048 20.7994 0.524986 21.33 0.524986C21.8607 0.524986 22.3008 0.965048 22.3008 1.49571V5.4951V9.49448V17.4932C22.3008 18.0239 21.8736 18.464 21.33 18.464Z" fill="#212121"/>
</svg>
