<svg width="24" height="24" viewBox="0 0 24 24" fill="none" xmlns="http://www.w3.org/2000/svg">
<path d="M23.5088 12.2247C23.5088 11.2414 23.4304 10.5239 23.2608 9.77979H12.2305V14.2178H18.705C18.5745 15.3207 17.8696 16.9816 16.3032 18.0977L16.2812 18.2463L19.7688 20.9965L20.0104 21.021C22.2295 18.9349 23.5088 15.8654 23.5088 12.2247Z" fill="#4285F4"/>
<path d="M12.2296 23.9173C15.4016 23.9173 18.0645 22.8543 20.0095 21.0207L16.3023 18.0973C15.3102 18.8016 13.9787 19.2932 12.2296 19.2932C9.1228 19.2932 6.48598 17.2071 5.54603 14.3237L5.40825 14.3356L1.7818 17.1925L1.73438 17.3267C3.6663 21.2332 7.63462 23.9173 12.2296 23.9173Z" fill="#34A853"/>
<path d="M5.54719 14.3238C5.29917 13.5797 5.15564 12.7824 5.15564 11.9586C5.15564 11.1347 5.29917 10.3375 5.53414 9.59342L5.52757 9.43494L1.85568 6.53223L1.73554 6.59039C0.939305 8.21149 0.482422 10.0319 0.482422 11.9586C0.482422 13.8853 0.939305 15.7056 1.73554 17.3267L5.54719 14.3238Z" fill="#FBBC05"/>
<path d="M12.2295 4.62403C14.4356 4.62403 15.9237 5.59401 16.7722 6.40461L20.0878 3.10928C18.0515 1.1826 15.4015 0 12.2295 0C7.63462 0 3.6663 2.68406 1.73438 6.59056L5.53297 9.59359C6.48597 6.7102 9.12279 4.62403 12.2295 4.62403Z" fill="#EB4335"/>
</svg>
