<svg width="35" height="35" viewBox="0 0 35 35" fill="none" xmlns="http://www.w3.org/2000/svg">
<path fill-rule="evenodd" clip-rule="evenodd" d="M24.3029 2.93182C26.4007 2.80071 28.4695 3.52912 30.0283 4.95681C31.456 6.51561 32.1844 8.58431 32.0678 10.6967V24.3035C32.199 26.4159 31.456 28.4846 30.0428 30.0434C28.484 31.471 26.4007 32.1995 24.3029 32.0683H10.696C8.58362 32.1995 6.51491 31.471 4.95609 30.0434C3.52839 28.4846 2.79997 26.4159 2.93109 24.3035V10.6967C2.79997 8.58431 3.52839 6.51561 4.95609 4.95681C6.51491 3.52912 8.58362 2.80071 10.696 2.93182H24.3029ZM16.013 24.566L25.8175 14.7325C26.7062 13.8292 26.7062 12.3724 25.8175 11.4837L23.9236 9.58986C23.0204 8.68663 21.5635 8.68663 20.6603 9.58986L19.6842 10.5805C19.5385 10.7262 19.5385 10.9738 19.6842 11.1195C19.6842 11.1195 22.0006 13.4213 22.0443 13.4796C22.2046 13.6544 22.3065 13.8875 22.3065 14.1497C22.3065 14.6742 21.8841 15.1112 21.345 15.1112C21.0974 15.1112 20.8643 15.0093 20.704 14.849L18.2711 12.4307C18.1545 12.3141 17.9506 12.3141 17.834 12.4307L10.8849 19.3797C10.4042 19.8605 10.1274 20.5015 10.1128 21.1862L10.0254 24.6389C10.0254 24.8283 10.0837 25.0031 10.2148 25.1342C10.3459 25.2653 10.5207 25.3382 10.7101 25.3382H14.1337C14.833 25.3382 15.5031 25.0614 16.013 24.566Z" fill="#C10606"/>
</svg>
