<svg width="24" height="24" viewBox="0 0 24 24" fill="none" xmlns="http://www.w3.org/2000/svg">
<path d="M14.026 12.4982L18.6799 7.85514C18.8837 7.65134 18.9982 7.37493 18.9982 7.08672C18.9982 6.7985 18.8837 6.52209 18.6799 6.31829C18.4761 6.11449 18.1997 6 17.9114 6C17.6232 6 17.3468 6.11449 17.143 6.31829L12.5 10.9721L7.85699 6.31829C7.65319 6.11449 7.37678 6 7.08856 6C6.80035 6 6.52394 6.11449 6.32014 6.31829C6.11634 6.52209 6.00185 6.7985 6.00185 7.08672C6.00185 7.37493 6.11634 7.65134 6.32014 7.85514L10.974 12.4982L6.32014 17.1412C6.2187 17.2418 6.13818 17.3615 6.08324 17.4934C6.02829 17.6253 6 17.7667 6 17.9096C6 18.0525 6.02829 18.1939 6.08324 18.3258C6.13818 18.4577 6.2187 18.5774 6.32014 18.678C6.42075 18.7795 6.54045 18.86 6.67234 18.9149C6.80423 18.9699 6.94569 18.9982 7.08856 18.9982C7.23144 18.9982 7.3729 18.9699 7.50479 18.9149C7.63667 18.86 7.75637 18.7795 7.85699 18.678L12.5 14.0242L17.143 18.678C17.2436 18.7795 17.3633 18.86 17.4952 18.9149C17.6271 18.9699 17.7686 18.9982 17.9114 18.9982C18.0543 18.9982 18.1958 18.9699 18.3277 18.9149C18.4595 18.86 18.5792 18.7795 18.6799 18.678C18.7813 18.5774 18.8618 18.4577 18.9168 18.3258C18.9717 18.1939 19 18.0525 19 17.9096C19 17.7667 18.9717 17.6253 18.9168 17.4934C18.8618 17.3615 18.7813 17.2418 18.6799 17.1412L14.026 12.4982Z" fill="#757575"/>
</svg>
