<svg width="44" height="35" viewBox="0 0 44 35" fill="none" xmlns="http://www.w3.org/2000/svg">
<g clip-path="url(#clip0_1379_9216)">
<path d="M7.9995 34.0324V31.7687C7.9995 30.9007 7.47116 30.3349 6.56555 30.3349C6.11283 30.3349 5.6223 30.4858 5.28267 30.9763C5.01867 30.5612 4.64141 30.3349 4.07542 30.3349C3.69798 30.3349 3.32089 30.448 3.01891 30.8631V30.4103H2.22656V34.0324H3.01891V32.0327C3.01891 31.3914 3.35853 31.0894 3.88687 31.0894C4.41488 31.0894 4.67922 31.429 4.67922 32.0327V34.0324H5.47156V32.0327C5.47156 31.3914 5.84866 31.0894 6.33919 31.0894C6.86753 31.0894 7.13153 31.429 7.13153 32.0327V34.0324H7.9995ZM19.7336 30.4103H18.4509V29.3162H17.6585V30.4103H16.9416V31.1271H17.6584V32.7874C17.6584 33.6175 17.998 34.1079 18.9036 34.1079C19.2432 34.1079 19.6203 33.9948 19.8847 33.8439L19.6581 33.1646C19.4318 33.3155 19.1678 33.3534 18.979 33.3534C18.6018 33.3534 18.4509 33.127 18.4509 32.7496V31.1271H19.7336V30.4103ZM26.4498 30.3347C25.997 30.3347 25.6952 30.5612 25.5065 30.8631V30.4103H24.7142V34.0324H25.5065V31.995C25.5065 31.3914 25.7705 31.0518 26.261 31.0518C26.412 31.0518 26.6007 31.0896 26.7516 31.1272L26.9779 30.3727C26.827 30.3349 26.6007 30.3349 26.4498 30.3349V30.3347ZM16.3002 30.7122C15.9228 30.448 15.3946 30.3349 14.8286 30.3349C13.9232 30.3349 13.3195 30.7876 13.3195 31.5045C13.3195 32.1083 13.7723 32.4477 14.5646 32.561L14.9419 32.5988C15.357 32.6741 15.5833 32.7874 15.5833 32.9761C15.5833 33.2401 15.2815 33.4288 14.7532 33.4288C14.225 33.4288 13.8099 33.2401 13.5457 33.0515L13.1685 33.6552C13.5835 33.957 14.1495 34.1079 14.7153 34.1079C15.7719 34.1079 16.3757 33.6175 16.3757 32.9383C16.3757 32.2968 15.8851 31.9572 15.1304 31.8441L14.7532 31.8063C14.4135 31.7685 14.1495 31.6932 14.1495 31.4669C14.1495 31.2027 14.4135 31.0518 14.8286 31.0518C15.2815 31.0518 15.7342 31.2403 15.9606 31.3536L16.3002 30.7122ZM37.354 30.3349C36.9011 30.3349 36.5993 30.5612 36.4106 30.8631V30.4103H35.6183V34.0324H36.4106V31.995C36.4106 31.3914 36.6748 31.0518 37.1651 31.0518C37.3162 31.0518 37.5049 31.0896 37.6558 31.1272L37.8822 30.3727C37.7313 30.3349 37.5049 30.3349 37.354 30.3349ZM27.2421 32.2214C27.2421 33.3155 27.9966 34.1079 29.1664 34.1079C29.6946 34.1079 30.0719 33.9948 30.4491 33.693L30.0719 33.0515C29.77 33.2779 29.4682 33.391 29.1286 33.391C28.4872 33.391 28.0345 32.9383 28.0345 32.2214C28.0345 31.5423 28.4872 31.0894 29.1286 31.0518C29.4682 31.0518 29.77 31.1649 30.0719 31.3914L30.4491 30.75C30.0719 30.448 29.6946 30.3349 29.1664 30.3349C27.9966 30.3349 27.2421 31.1272 27.2421 32.2214ZM34.5619 32.2214V30.4103H33.7696V30.8631C33.5054 30.5236 33.1281 30.3349 32.6376 30.3349C31.6189 30.3349 30.8266 31.1272 30.8266 32.2214C30.8266 33.3155 31.6189 34.1079 32.6376 34.1079C33.1658 34.1079 33.5432 33.9193 33.7696 33.5797V34.0324H34.5619V32.2214ZM31.6565 32.2214C31.6565 31.58 32.0716 31.0518 32.7507 31.0518C33.3921 31.0518 33.845 31.5423 33.845 32.2214C33.845 32.8628 33.3921 33.391 32.7507 33.391C32.0716 33.3532 31.6565 32.8628 31.6565 32.2214ZM22.1862 30.3349C21.1297 30.3349 20.375 31.0894 20.375 32.2214C20.375 33.3534 21.1295 34.1079 22.2239 34.1079C22.752 34.1079 23.2804 33.957 23.6955 33.6175L23.318 33.0515C23.0162 33.2779 22.639 33.4288 22.2617 33.4288C21.7712 33.4288 21.2806 33.2025 21.1674 32.5608H23.8464V32.2592C23.8842 31.0894 23.2049 30.3349 22.1861 30.3349H22.1862ZM22.1862 31.014C22.6766 31.014 23.0164 31.316 23.0917 31.8819H21.2052C21.2806 31.3914 21.6202 31.014 22.1862 31.014ZM41.8439 32.2214V28.9766H41.0516V30.8631C40.7874 30.5236 40.4101 30.3349 39.9196 30.3349C38.9009 30.3349 38.1086 31.1272 38.1086 32.2214C38.1086 33.3155 38.9009 34.1079 39.9196 34.1079C40.448 34.1079 40.8252 33.9193 41.0516 33.5797V34.0324H41.8439V32.2214ZM38.9387 32.2214C38.9387 31.58 39.3536 31.0518 40.0329 31.0518C40.6743 31.0518 41.127 31.5423 41.127 32.2214C41.127 32.8628 40.6743 33.391 40.0329 33.391C39.3536 33.3532 38.9387 32.8628 38.9387 32.2214ZM12.4516 32.2214V30.4103H11.6592V30.8631C11.3951 30.5236 11.0178 30.3349 10.5273 30.3349C9.50856 30.3349 8.71622 31.1272 8.71622 32.2214C8.71622 33.3155 9.50856 34.1079 10.5273 34.1079C11.0556 34.1079 11.4329 33.9193 11.6592 33.5797V34.0324H12.4516V32.2214ZM9.50856 32.2214C9.50856 31.58 9.92364 31.0518 10.6027 31.0518C11.2442 31.0518 11.697 31.5423 11.697 32.2214C11.697 32.8628 11.2442 33.391 10.6027 33.391C9.92364 33.3532 9.50856 32.8628 9.50856 32.2214Z" fill="black"/>
<path d="M16.0352 2.9043H27.9203V24.2599H16.0352V2.9043Z" fill="#FF5F00"/>
<path d="M16.7903 13.5831C16.7903 9.24413 18.8277 5.3955 21.9593 2.9052C19.6579 1.09416 16.7527 0 13.5833 0C6.07458 0 0 6.07458 0 13.5831C0 21.0915 6.07458 27.1662 13.5831 27.1662C16.7525 27.1662 19.6577 26.0721 21.9593 24.2608C18.8277 21.8084 16.7903 17.9221 16.7903 13.5831Z" fill="#EB001B"/>
<path d="M43.9573 13.5831C43.9573 21.0915 37.8827 27.1662 30.3742 27.1662C27.2048 27.1662 24.2996 26.0721 21.998 24.2608C25.1674 21.7707 27.1672 17.9221 27.1672 13.5831C27.1672 9.24413 25.1296 5.3955 21.998 2.9052C24.2995 1.09416 27.2048 0 30.3742 0C37.8827 0 43.9575 6.11239 43.9575 13.5831H43.9573Z" fill="#F79E1B"/>
</g>
<defs>
<clipPath id="clip0_1379_9216">
<rect width="44" height="34.2031" fill="white"/>
</clipPath>
</defs>
</svg>
