<svg width="17" height="17" viewBox="0 0 17 17" fill="none" xmlns="http://www.w3.org/2000/svg">
<path fill-rule="evenodd" clip-rule="evenodd" d="M4.81601 1.27498C2.66555 1.27498 1.27498 2.748 1.27498 5.0285V11.9712C1.27498 14.2517 2.66555 15.7247 4.81601 15.7247H12.1845C14.335 15.7247 15.7247 14.2517 15.7247 11.9712V5.0285C15.7247 2.748 14.335 1.27498 12.1845 1.27498H4.81601ZM12.1845 16.9997H4.81601C1.93541 16.9997 0 14.9784 0 11.9712V5.0285C0 2.02126 1.93541 0 4.81601 0H12.1845C15.0651 0 16.9997 2.02126 16.9997 5.0285V11.9712C16.9997 14.9784 15.0651 16.9997 12.1845 16.9997Z" fill="#212121"/>
<path fill-rule="evenodd" clip-rule="evenodd" d="M8.5005 12.6107C8.1486 12.6107 7.86301 12.3251 7.86301 11.9733V5.02719C7.86301 4.67529 8.1486 4.3897 8.5005 4.3897C8.85239 4.3897 9.13799 4.67529 9.13799 5.02719V11.9733C9.13799 12.3251 8.85239 12.6107 8.5005 12.6107Z" fill="#212121"/>
<path fill-rule="evenodd" clip-rule="evenodd" d="M8.50058 12.6109C8.33143 12.6109 8.16824 12.5437 8.04924 12.423L4.8635 9.2237C4.61446 8.97381 4.61616 8.57006 4.8652 8.32187C5.1151 8.07452 5.51799 8.07282 5.76618 8.32357L8.50058 11.0699L11.235 8.32357C11.484 8.07282 11.8869 8.07452 12.136 8.32187C12.385 8.57006 12.3867 8.97381 12.1377 9.2237L8.95192 12.423C8.83292 12.5437 8.66973 12.6109 8.50058 12.6109Z" fill="#212121"/>
</svg>
