<svg width="28" height="28" viewBox="0 0 28 28" fill="none" xmlns="http://www.w3.org/2000/svg">
<path d="M11.6667 4.66659C11.3361 4.66659 11.0592 4.55458 10.836 4.33059C10.612 4.10736 10.5 3.83047 10.5 3.49992C10.5 3.16936 10.612 2.89209 10.836 2.66809C11.0592 2.44486 11.3361 2.33325 11.6667 2.33325H16.3333C16.6639 2.33325 16.9412 2.44486 17.1652 2.66809C17.3884 2.89209 17.5 3.16936 17.5 3.49992C17.5 3.83047 17.3884 4.10736 17.1652 4.33059C16.9412 4.55458 16.6639 4.66659 16.3333 4.66659H11.6667ZM14 17.4999C14.3306 17.4999 14.6078 17.3879 14.8318 17.1639C15.0551 16.9407 15.1667 16.6638 15.1667 16.3333V11.6666C15.1667 11.336 15.0551 11.0588 14.8318 10.8348C14.6078 10.6115 14.3306 10.4999 14 10.4999C13.6694 10.4999 13.3926 10.6115 13.1693 10.8348C12.9453 11.0588 12.8333 11.336 12.8333 11.6666V16.3333C12.8333 16.6638 12.9453 16.9407 13.1693 17.1639C13.3926 17.3879 13.6694 17.4999 14 17.4999ZM14 26.8333C12.5611 26.8333 11.2047 26.5564 9.93067 26.0026C8.65744 25.448 7.54444 24.6944 6.59167 23.7416C5.63889 22.7888 4.88522 21.6758 4.33067 20.4026C3.77689 19.1286 3.5 17.7721 3.5 16.3333C3.5 14.8944 3.77689 13.5379 4.33067 12.2639C4.88522 10.9907 5.63889 9.8777 6.59167 8.92492C7.54444 7.97214 8.65744 7.21886 9.93067 6.66508C11.2047 6.11053 12.5611 5.83325 14 5.83325C15.2056 5.83325 16.3625 6.0277 17.4708 6.41658C18.5792 6.80547 19.6194 7.36936 20.5917 8.10825L21.4375 7.26242C21.6514 7.04853 21.9139 6.94159 22.225 6.94159C22.5361 6.94159 22.8083 7.05825 23.0417 7.29158C23.2556 7.50547 23.3625 7.7777 23.3625 8.10825C23.3625 8.43881 23.2556 8.71103 23.0417 8.92492L22.225 9.74158C22.9639 10.7138 23.5278 11.7541 23.9167 12.8624C24.3056 13.9708 24.5 15.1277 24.5 16.3333C24.5 17.7721 24.2231 19.1286 23.6693 20.4026C23.1148 21.6758 22.3611 22.7888 21.4083 23.7416C20.4556 24.6944 19.3426 25.448 18.0693 26.0026C16.7953 26.5564 15.4389 26.8333 14 26.8333ZM14 24.4999C16.2556 24.4999 18.1806 23.7027 19.775 22.1083C21.3694 20.5138 22.1667 18.5888 22.1667 16.3333C22.1667 14.0777 21.3694 12.1527 19.775 10.5583C18.1806 8.96381 16.2556 8.16658 14 8.16658C11.7444 8.16658 9.81944 8.96381 8.225 10.5583C6.63056 12.1527 5.83333 14.0777 5.83333 16.3333C5.83333 18.5888 6.63056 20.5138 8.225 22.1083C9.81944 23.7027 11.7444 24.4999 14 24.4999Z" fill="#212121"/>
</svg>
