<svg width="28" height="28" viewBox="0 0 28 28" fill="none" xmlns="http://www.w3.org/2000/svg">
<path d="M12.9069 5.74875C11.1538 5.94753 9.49112 6.63191 8.10607 7.72479L9.30482 8.925C9.49802 9.13234 9.6032 9.40657 9.5982 9.68993C9.5932 9.97328 9.47841 10.2436 9.27802 10.444C9.07762 10.6444 8.80727 10.7592 8.52391 10.7642C8.24056 10.7692 7.96632 10.664 7.75898 10.4708L6.5544 9.26771C5.53062 10.5518 4.86451 12.0838 4.62357 13.7083H7.07357C7.36365 13.7083 7.64185 13.8236 7.84697 14.0287C8.05208 14.2338 8.16732 14.512 8.16732 14.8021C8.16732 15.0922 8.05208 15.3704 7.84697 15.5755C7.64185 15.7806 7.36365 15.8958 7.07357 15.8958H4.55794C4.785 18.2363 5.85469 20.4146 7.56794 22.0252C7.77458 22.2248 7.89439 22.4977 7.90148 22.7849C7.90858 23.0721 7.80239 23.3505 7.60586 23.5601C7.40933 23.7697 7.13825 23.8935 6.85118 23.9048C6.56411 23.9161 6.28412 23.814 6.07169 23.6206C3.82586 21.5162 2.33398 18.4129 2.33398 15.0835C2.33398 8.67854 7.56503 3.5 14.0007 3.5C20.4363 3.5 25.6673 8.67708 25.6673 15.0835C25.6644 16.682 25.3364 18.2631 24.7031 19.7308C24.0698 21.1984 23.1445 22.5219 21.9836 23.6206C21.7711 23.814 21.4911 23.9161 21.2041 23.9048C20.917 23.8935 20.6459 23.7697 20.4494 23.5601C20.2529 23.3505 20.1467 23.0721 20.1538 22.7849C20.1609 22.4977 20.2807 22.2248 20.4873 22.0252C22.1887 20.4119 23.2407 18.2316 23.4448 15.8958H20.9277C20.6377 15.8958 20.3595 15.7806 20.1543 15.5755C19.9492 15.3704 19.834 15.0922 19.834 14.8021C19.834 14.512 19.9492 14.2338 20.1543 14.0287C20.3595 13.8236 20.6377 13.7083 20.9277 13.7083H23.3777C22.7594 9.52875 19.3629 6.23438 15.0944 5.74875V7.51042C15.0944 7.8005 14.9792 8.0787 14.774 8.28381C14.5689 8.48893 14.2907 8.60417 14.0007 8.60417C13.7106 8.60417 13.4324 8.48893 13.2273 8.28381C13.0221 8.0787 12.9069 7.8005 12.9069 7.51042V5.74875ZM19.0304 9.05188C19.163 8.94662 19.328 8.89075 19.4972 8.89382C19.6664 8.89689 19.8292 8.95872 19.9579 9.06872C20.0865 9.17871 20.1728 9.33001 20.2021 9.49669C20.2314 9.66337 20.2018 9.83505 20.1184 9.98229L19.9579 10.2681C19.3715 11.3037 18.7813 12.3372 18.1875 13.3685C17.7128 14.1939 17.2315 15.0154 16.7438 15.8331C16.561 16.1408 16.3743 16.4461 16.1838 16.749C16.0379 16.9779 15.895 17.1952 15.79 17.3177C15.4133 17.759 14.8767 18.0326 14.2983 18.0783C13.7198 18.1239 13.147 17.938 12.7057 17.5612C12.2643 17.1845 11.9908 16.6479 11.9451 16.0695C11.8994 15.4911 12.0854 14.9182 12.4621 14.4769C12.5671 14.3544 12.7582 14.1779 12.9623 13.9985C13.1811 13.8046 13.4625 13.5669 13.779 13.3C14.4148 12.7692 15.2111 12.1187 15.9869 11.4917C16.9123 10.7431 17.8408 9.99837 18.7723 9.2575L19.0304 9.05333V9.05188Z" fill="#212121"/>
</svg>
