<svg width="28" height="28" viewBox="0 0 28 28" fill="none" xmlns="http://www.w3.org/2000/svg">
<path fill-rule="evenodd" clip-rule="evenodd" d="M13.8193 25.2725C9.51217 25.2725 5.83398 24.6023 5.83398 21.918C5.83398 19.2338 9.48883 16.7559 13.8193 16.7559C18.1264 16.7559 21.8046 19.2098 21.8046 21.894C21.8046 24.5772 18.1497 25.2725 13.8193 25.2725Z" stroke="#212121" stroke-width="1.5" stroke-linecap="round" stroke-linejoin="round"/>
<path fill-rule="evenodd" clip-rule="evenodd" d="M13.8099 13.0367C16.6364 13.0367 18.9273 10.7458 18.9273 7.91927C18.9273 5.09275 16.6364 2.80078 13.8099 2.80078C10.9834 2.80078 8.69144 5.09275 8.69144 7.91927C8.68189 10.7362 10.9569 13.0271 13.7739 13.0367C13.7866 13.0367 13.7983 13.0367 13.8099 13.0367Z" stroke="#212121" stroke-width="1.5" stroke-linecap="round" stroke-linejoin="round"/>
</svg>
