<svg width="329" height="250" viewBox="0 0 329 250" fill="none" xmlns="http://www.w3.org/2000/svg">
<path d="M131.65 51.8442H130.449V19.0059C130.449 16.51 129.957 14.0386 129.001 11.7327C128.044 9.42678 126.643 7.33158 124.876 5.56672C123.109 3.80185 121.011 2.40189 118.702 1.44675C116.393 0.491608 113.919 2.11472e-06 111.42 0H41.7602C36.7132 -9.60927e-06 31.8729 2.00238 28.3042 5.56668C24.7354 9.13097 22.7305 13.9652 22.7305 19.0059V199.159C22.7305 201.655 23.2227 204.127 24.179 206.433C25.1353 208.739 26.5371 210.834 28.3041 212.599C30.0712 214.364 32.169 215.764 34.4778 216.719C36.7866 217.674 39.2611 218.165 41.7601 218.165H111.42C116.467 218.165 121.307 216.163 124.876 212.599C128.444 209.034 130.449 204.2 130.449 199.16V75.2191H131.65V51.8442Z" fill="#3F3D56"/>
<path d="M153.977 218.197H0.40308C0.296176 218.197 0.193651 218.154 0.118059 218.079C0.0424669 218.003 0 217.901 0 217.794C0 217.687 0.0424669 217.585 0.118059 217.509C0.193651 217.434 0.296176 217.391 0.40308 217.391H153.977C154.083 217.391 154.186 217.434 154.262 217.509C154.337 217.585 154.38 217.687 154.38 217.794C154.38 217.901 154.337 218.003 154.262 218.079C154.186 218.154 154.083 218.197 153.977 218.197Z" fill="#CBCBCB"/>
<path d="M279.837 221.538C280.251 220.869 280.739 220.249 281.291 219.688C281.518 219.452 281.758 219.23 282.006 219.014C283.511 217.676 285.345 216.763 287.321 216.368C289.297 215.973 291.342 216.111 293.247 216.767C295.151 217.423 296.847 218.574 298.158 220.102C299.47 221.629 300.35 223.478 300.709 225.458C302.372 219.318 298.044 213.27 293.693 208.624C289.34 203.98 284.365 198.885 284.39 192.522C284.402 188.981 286.136 185.822 288.755 183.48C288.836 183.409 288.916 183.338 288.999 183.27C292.164 180.56 296.236 179.143 300.401 179.301C308.14 179.715 314.897 184.91 319.59 191.071C327.143 200.986 330.453 214.903 325.165 226.189C320.514 236.115 310.594 242.009 300.47 246.748C299.056 247.41 297.646 248.051 296.237 248.673C296.228 248.676 296.218 248.682 296.209 248.685C296.141 248.715 296.073 248.744 296.01 248.775C295.719 248.903 295.428 249.031 295.14 249.158L295.274 249.245L295.69 249.514C295.546 249.427 295.403 249.342 295.258 249.255C295.216 249.228 295.17 249.203 295.127 249.177C290.155 246.197 285.114 243.045 281.678 238.393C278.116 233.563 276.683 226.644 279.837 221.538Z" fill="#F1F1F1"/>
<path d="M313.01 210.321C314.111 212.822 314.841 215.471 315.177 218.183C315.441 220.601 315.342 223.045 314.882 225.434C313.895 230.343 311.742 234.944 308.603 238.849C306.236 241.814 303.502 244.468 300.469 246.748C299.055 247.409 297.644 248.051 296.236 248.673C296.227 248.676 296.217 248.682 296.207 248.685C296.139 248.715 296.072 248.744 296.008 248.775C295.717 248.903 295.427 249.031 295.139 249.158L295.272 249.245L295.688 249.514C295.544 249.427 295.401 249.342 295.257 249.255C295.214 249.228 295.169 249.203 295.126 249.177C296.22 245.354 296.381 241.325 295.595 237.427C294.809 233.529 293.099 229.877 290.608 226.775C288.104 223.712 284.911 221.284 281.289 219.688C281.517 219.452 281.757 219.23 282.004 219.014C283.399 219.654 284.735 220.416 285.996 221.291C290.505 224.403 293.892 228.884 295.653 234.068C297.226 238.772 297.422 243.826 296.219 248.637C296.469 248.474 296.719 248.307 296.963 248.14C301.595 245.02 305.864 241.273 309.08 236.679C311.854 232.795 313.628 228.29 314.248 223.561C314.864 218.394 313.57 213.314 311.261 208.704C308.71 203.772 305.497 199.211 301.709 195.149C297.905 190.974 293.603 187.281 288.901 184.15C288.795 184.078 288.72 183.969 288.693 183.844C288.666 183.72 288.687 183.589 288.753 183.48C288.804 183.38 288.891 183.305 288.997 183.27C289.051 183.256 289.107 183.254 289.162 183.265C289.216 183.276 289.267 183.3 289.311 183.333C289.892 183.72 290.468 184.11 291.036 184.512C295.772 187.861 300.073 191.785 303.84 196.193C307.48 200.443 310.793 205.164 313.01 210.321Z" fill="white"/>
<path d="M175.024 250H328.598C328.705 250 328.807 249.958 328.883 249.882C328.958 249.807 329.001 249.704 329.001 249.597C329.001 249.491 328.958 249.388 328.883 249.313C328.807 249.237 328.705 249.195 328.598 249.195H175.024C174.917 249.195 174.815 249.237 174.739 249.313C174.664 249.388 174.621 249.491 174.621 249.597C174.621 249.704 174.664 249.807 174.739 249.882C174.815 249.958 174.917 250 175.024 250Z" fill="#CBCBCB"/>
<path d="M211.958 217.879L204.512 217.762L205.407 243.111H211.957L211.958 217.879Z" fill="#FFB7B7"/>
<path d="M213.628 240.975L200.729 240.974H200.728C198.548 240.975 196.457 241.84 194.916 243.379C193.374 244.919 192.508 247.007 192.508 249.184V249.451L213.627 249.452L213.628 240.975Z" fill="#2F2E41"/>
<path d="M261.261 211.156L253.127 216.372L269.398 235.923L274.91 232.388L261.261 211.156Z" fill="#FFB7B7"/>
<path d="M275.161 229.69L264.307 236.65L264.306 236.65C262.472 237.826 261.18 239.683 260.716 241.81C260.252 243.937 260.652 246.162 261.83 247.994L261.975 248.219L279.747 236.823L275.161 229.69Z" fill="#2F2E41"/>
<path d="M195.645 150.452C194.252 150.839 192.765 150.701 191.467 150.066C190.168 149.431 189.148 148.342 188.6 147.006C188.051 145.67 188.012 144.18 188.491 142.817C188.969 141.454 189.932 140.314 191.195 139.613L203.731 125.408L214.334 127.696L199.421 142.285C199.788 143.06 199.98 143.907 199.984 144.765C199.987 145.622 199.802 146.47 199.442 147.249C199.082 148.028 198.556 148.718 197.9 149.271C197.244 149.825 196.474 150.228 195.645 150.452H195.645Z" fill="#FFB7B7"/>
<path d="M172.534 124.481C174.968 124.481 176.942 122.51 176.942 120.079C176.942 117.648 174.968 115.677 172.534 115.677C170.1 115.677 168.127 117.648 168.127 120.079C168.127 122.51 170.1 124.481 172.534 124.481Z" fill="#F1F1F1"/>
<path d="M301.521 112.404C303.955 112.404 305.928 110.433 305.928 108.002C305.928 105.571 303.955 103.6 301.521 103.6C299.087 103.6 297.113 105.571 297.113 108.002C297.113 110.433 299.087 112.404 301.521 112.404Z" fill="#F1F1F1"/>
<path d="M112.187 4.9447H103.094C103.512 5.96861 103.671 7.07951 103.558 8.17954C103.445 9.27957 103.063 10.335 102.446 11.2528C101.828 12.1706 100.994 12.9226 100.017 13.4426C99.0399 13.9626 97.9497 14.2346 96.8425 14.2347H56.9355C55.8284 14.2346 54.7382 13.9626 53.7611 13.4426C52.7839 12.9226 51.9498 12.1706 51.3323 11.2528C50.7147 10.335 50.3326 9.27958 50.2196 8.17955C50.1066 7.07951 50.2662 5.96861 50.6844 4.9447H42.1916C40.3254 4.9447 38.4774 5.31183 36.7533 6.02511C35.0291 6.73839 33.4625 7.78387 32.1428 9.10185C30.8232 10.4198 29.7764 11.9845 29.0622 13.7065C28.3481 15.4285 27.9805 17.2742 27.9805 19.1381V199.027C27.9805 200.891 28.3481 202.737 29.0622 204.459C29.7764 206.181 30.8232 207.746 32.1428 209.064C33.4624 210.382 35.0291 211.427 36.7533 212.14C38.4774 212.854 40.3254 213.221 42.1916 213.221H112.187C114.053 213.221 115.901 212.854 117.625 212.14C119.349 211.427 120.916 210.382 122.235 209.064C123.555 207.746 124.602 206.181 125.316 204.459C126.03 202.737 126.398 200.891 126.398 199.027V19.1381C126.398 17.2742 126.03 15.4285 125.316 13.7065C124.602 11.9845 123.555 10.4198 122.235 9.10185C120.916 7.78387 119.349 6.73839 117.625 6.02511C115.901 5.31183 114.053 4.9447 112.187 4.9447Z" fill="white"/>
<path d="M77.189 139.163C95.9879 139.163 111.228 123.942 111.228 105.166C111.228 86.391 95.9879 71.1704 77.189 71.1704C58.39 71.1704 43.1504 86.391 43.1504 105.166C43.1504 123.942 58.39 139.163 77.189 139.163Z" fill="#C10606"/>
<path d="M73.8171 118.135C73.0513 118.136 72.3059 117.889 71.6932 117.43L71.6552 117.402L63.6557 111.29C63.2852 111.006 62.9743 110.652 62.7407 110.249C62.5071 109.845 62.3554 109.399 62.2943 108.937C62.2332 108.475 62.2638 108.005 62.3844 107.555C62.505 107.104 62.7133 106.682 62.9974 106.312C63.2814 105.942 63.6356 105.631 64.0398 105.398C64.444 105.165 64.8903 105.013 65.3531 104.952C65.8159 104.891 66.2862 104.922 66.7372 105.042C67.1882 105.163 67.611 105.371 67.9815 105.654L73.1629 109.623L85.407 93.6691C85.6909 93.2993 86.045 92.9889 86.449 92.7557C86.853 92.5224 87.2991 92.371 87.7617 92.31C88.2243 92.2489 88.6945 92.2795 89.1453 92.4C89.5961 92.5204 90.0187 92.7283 90.389 93.0119L90.3901 93.0127L90.3141 93.1181L90.3921 93.0127C91.1393 93.5862 91.6281 94.4323 91.7513 95.3653C91.8745 96.2984 91.6221 97.2421 91.0494 97.9895L76.6478 116.746C76.3146 117.178 75.8862 117.528 75.3958 117.768C74.9055 118.008 74.3663 118.132 73.8202 118.131L73.8171 118.135Z" fill="white"/>
<path d="M236.89 99.5995L205.645 138.77L196.121 134.403L232.846 77.2996L236.89 99.5995Z" fill="#3F3D56"/>
<path d="M311.649 38.9029C311.851 37.473 311.52 36.0189 310.72 34.8161C309.92 33.6133 308.706 32.7455 307.308 32.377C305.91 32.0084 304.425 32.1649 303.135 32.8167C301.845 33.4684 300.839 34.5702 300.308 35.9133L287.846 50.1823L291.502 60.3823L304.035 43.7095C304.853 43.9712 305.718 44.0505 306.57 43.942C307.422 43.8335 308.24 43.5398 308.966 43.0816C309.692 42.6233 310.308 42.0116 310.772 41.2897C311.235 40.5677 311.535 39.753 311.649 38.9029Z" fill="#FFB7B7"/>
<path d="M259.992 94.4239L301.36 50.3301L295.78 41.4702L243.895 85.2963L259.992 94.4239Z" fill="#3F3D56"/>
<path d="M250.759 67.6328C258.773 67.6328 265.27 61.1442 265.27 53.1401C265.27 45.136 258.773 38.6473 250.759 38.6473C242.745 38.6473 236.248 45.136 236.248 53.1401C236.248 61.1442 242.745 67.6328 250.759 67.6328Z" fill="#2F2E41"/>
<path d="M251.926 44.953C255.048 41.7906 258.827 39.3502 262.996 37.8036C265.672 36.8135 268.584 36.2018 271.382 36.7641C274.179 37.3263 276.825 39.2593 277.605 42.0007C278.244 44.2424 277.585 46.656 276.594 48.7662C275.604 50.8764 274.281 52.8332 273.481 55.0222C272.663 57.2557 272.418 59.6577 272.766 62.0101C273.114 64.3625 274.044 66.5909 275.473 68.493C276.902 70.395 278.784 71.9105 280.949 72.9018C283.113 73.8931 285.491 74.3289 287.866 74.1696C285.117 74.5377 282.584 75.8279 279.897 76.5146C277.21 77.2013 274.039 77.1547 272.042 75.2323C269.93 73.1983 269.888 69.8912 269.99 66.9624C270.142 62.6085 270.293 58.2547 270.445 53.9008C270.523 51.6804 270.589 49.3889 269.787 47.3164C268.985 45.244 267.08 43.4293 264.855 43.4482C263.17 43.4624 261.677 44.4825 260.325 45.4884C258.973 46.4944 257.542 47.5676 255.863 47.7172C254.184 47.8669 252.266 46.6257 252.392 44.9465L251.926 44.953Z" fill="#2F2E41"/>
<path d="M264.16 133.752C264.16 133.752 246.086 73.7974 240.278 72.9872C234.469 72.177 225.111 88.3709 225.111 88.3709C212.977 103.833 200.465 153.919 200.465 153.919C200.465 153.919 221.323 155.222 236.57 163.324C251.817 171.426 269.811 162.914 269.811 162.914L264.16 133.752Z" fill="#3F3D56"/>
<path opacity="0.1" d="M264.16 133.752C264.16 133.752 246.086 73.7973 240.278 72.9871C234.469 72.1769 227.488 88.5351 227.488 88.5351C221.442 113.495 200.465 153.919 200.465 153.919C200.465 153.919 221.323 155.222 236.57 163.324C251.817 171.426 269.811 162.914 269.811 162.914L264.16 133.752Z" fill="black"/>
<path d="M249.332 115.814V145.941L252.882 189.582L270.617 222.593L262.153 228.632L237.968 197.231L228.402 166.051L213.38 235.073L202.094 234.268L209.932 138.571L224.806 111.634L249.332 115.814Z" fill="#2F2E41"/>
<path d="M231.108 86.6745C225.465 92.3106 230.705 98.3493 230.705 98.3493L224.256 112.842L249.65 119.686L258.524 80.081L252.478 73.6398C240.386 73.2372 240.379 72.9869 240.379 72.9869C238.26 75.0577 231.108 86.6745 231.108 86.6745Z" fill="#C10606"/>
<path d="M259.547 75.9781C258.394 75.1278 257.083 74.5145 255.69 74.1738C254.298 73.833 252.852 73.7716 251.436 73.993C250.019 74.2144 248.661 74.7143 247.44 75.4636C246.218 76.213 245.158 77.197 244.32 78.3586C237.936 87.2363 232.033 101.572 240.166 119.45C253.225 148.158 264.59 162.854 269.21 162.852C269.412 162.854 269.612 162.822 269.804 162.759C272.648 161.796 276.759 156.989 277.504 152.754C277.77 151.238 277.707 149.127 275.892 147.677C270.677 143.511 261.317 130.542 258.397 113.472C256.783 104.04 259.913 95.448 262.822 89.9014C264.051 87.6063 264.41 84.9458 263.835 82.4076C263.259 79.8693 261.786 77.6233 259.687 76.0813L259.547 75.9781Z" fill="#3F3D56"/>
<path d="M251.507 66.2091C256.683 63.383 258.585 56.9009 255.756 51.731C252.926 46.5611 246.436 44.6611 241.259 47.4872C236.083 50.3133 234.181 56.7954 237.01 61.9653C239.84 67.1353 246.33 69.0353 251.507 66.2091Z" fill="#FFB7B7"/>
<path d="M231.359 56.0415H246.783L246.942 53.8299L247.732 56.0415H250.107L250.421 51.6581L251.988 56.0415H256.584V55.8244C256.58 52.7727 255.365 49.8469 253.204 47.689C251.044 45.5311 248.114 44.3173 245.059 44.3138H242.884C239.829 44.3173 236.899 45.5311 234.739 47.689C232.578 49.8469 231.363 52.7726 231.359 55.8244V56.0415Z" fill="#2F2E41"/>
<path d="M254.255 63.9912L260.837 61.8581V45.8937H248.404L248.712 46.2006C252.995 50.4723 257.758 65.6278 254.255 63.9912Z" fill="#2F2E41"/>
<path d="M211.633 15.7852C215.626 15.7852 218.862 12.5528 218.862 8.56541C218.862 4.57801 215.626 1.34558 211.633 1.34558C207.641 1.34558 204.404 4.57801 204.404 8.56541C204.404 12.5528 207.641 15.7852 211.633 15.7852Z" fill="#F1F1F1"/>
</svg>
