<svg width="102" height="102" viewBox="0 0 102 102" fill="none" xmlns="http://www.w3.org/2000/svg">
<path d="M59.4469 0.720375C56.6561 0.246245 53.8307 0.00528799 51 0C22.8225 0 0 22.8225 0 51C0 61.8184 3.40106 71.8144 9.11625 80.1051C12.6225 74.9541 20.7092 71.4 30.0836 71.4C36.5224 71.4 42.3459 73.0989 46.5184 75.8306L59.4469 0.720375ZM86.547 14.4744C95.3541 33.9501 87.6276 44.3541 87.6276 44.3541C81.651 26.3766 64.3429 23.7501 64.3429 23.7501C64.3429 23.7501 52.9571 85.1031 52.9571 85.8744C52.9571 92.5204 45.9 98.1367 36.3184 99.8357C41.0806 101.269 46.0268 101.998 51 102C79.1775 102 102 79.1775 102 51C102 36.6786 96.0744 23.7469 86.547 14.4744Z" fill="#C10606"/>
</svg>
