<svg width="20" height="20" viewBox="0 0 20 20" fill="none" xmlns="http://www.w3.org/2000/svg">
<path fill-rule="evenodd" clip-rule="evenodd" d="M14.6016 6.1633V7.44108C16.0369 7.88909 17.0827 9.18841 17.0827 10.7403V14.8544C17.0827 16.7756 15.4899 18.3333 13.5262 18.3333H6.47335C4.50881 18.3333 2.91602 16.7756 2.91602 14.8544V10.7403C2.91602 9.18841 3.96264 7.88909 5.39709 7.44108V6.1633C5.40556 3.67895 7.46324 1.66663 9.98665 1.66663C12.5439 1.66663 14.6016 3.67895 14.6016 6.1633ZM10.0036 3.11583C11.7226 3.11583 13.1197 4.48222 13.1197 6.1633V7.26138H6.87896V6.14673C6.88742 4.47394 8.28461 3.11583 10.0036 3.11583ZM10.7403 13.7124C10.7403 14.1182 10.41 14.4411 9.99511 14.4411C9.58866 14.4411 9.25841 14.1182 9.25841 13.7124V11.874C9.25841 11.4765 9.58866 11.1535 9.99511 11.1535C10.41 11.1535 10.7403 11.4765 10.7403 11.874V13.7124Z" fill="#9E9E9E"/>
</svg>
