<svg width="20" height="20" viewBox="0 0 20 20" fill="none" xmlns="http://www.w3.org/2000/svg">
<path fill-rule="evenodd" clip-rule="evenodd" d="M1.66602 10.0051C1.66602 5.40554 5.40636 1.66699 9.99935 1.66699C14.5923 1.66699 18.3327 5.40554 18.3327 10.0051C18.3327 14.5951 14.5923 18.3337 9.99935 18.3337C5.40636 18.3337 1.66602 14.5951 1.66602 10.0051ZM13.056 10.8485C13.1445 10.7601 13.2571 10.6234 13.2812 10.5913C13.4099 10.4224 13.4743 10.2134 13.4743 10.0051C13.4743 9.77119 13.4019 9.55411 13.2651 9.37724C13.2539 9.36603 13.232 9.34215 13.2034 9.31102C13.1499 9.25278 13.0731 9.16919 12.9997 9.09584C12.3401 8.38833 10.6187 7.23059 9.71782 6.87683C9.58107 6.82136 9.23519 6.69996 9.05019 6.69192C8.87322 6.69192 8.7043 6.73212 8.54343 6.81251C8.34234 6.92507 8.18146 7.10195 8.09298 7.31099C8.03667 7.4557 7.94819 7.88986 7.94819 7.8979C7.85971 8.37225 7.81145 9.14408 7.81145 9.99631C7.81145 10.8091 7.85971 11.548 7.9321 12.0304C7.93409 12.0324 7.94101 12.0669 7.95176 12.1205C7.98444 12.2834 8.05252 12.6229 8.12515 12.762C8.30212 13.0997 8.648 13.3087 9.01801 13.3087H9.05019C9.2915 13.3007 9.79825 13.0917 9.79825 13.0836C10.6509 12.7299 12.332 11.6284 13.0077 10.8968L13.056 10.8485Z" fill="#424242"/>
</svg>
