<svg width="20" height="20" viewBox="0 0 20 20" fill="none" xmlns="http://www.w3.org/2000/svg">
<path d="M10.0007 8.33334C9.08398 8.33334 8.33398 9.08334 8.33398 10C8.33398 10.9167 9.08398 11.6667 10.0007 11.6667C10.9173 11.6667 11.6673 10.9167 11.6673 10C11.6673 9.08334 10.9173 8.33334 10.0007 8.33334ZM10.0007 3.33334C9.08398 3.33334 8.33398 4.08334 8.33398 5C8.33398 5.91667 9.08398 6.66667 10.0007 6.66667C10.9173 6.66667 11.6673 5.91667 11.6673 5C11.6673 4.08334 10.9173 3.33334 10.0007 3.33334ZM10.0007 13.3333C9.08398 13.3333 8.33398 14.0833 8.33398 15C8.33398 15.9167 9.08398 16.6667 10.0007 16.6667C10.9173 16.6667 11.6673 15.9167 11.6673 15C11.6673 14.0833 10.9173 13.3333 10.0007 13.3333Z" fill="#212121"/>
</svg>
