<svg width="28" height="28" viewBox="0 0 28 28" fill="none" xmlns="http://www.w3.org/2000/svg">
<path d="M5.16315 21.6122C4.28815 20.5816 3.59787 19.4196 3.09232 18.1262C2.58676 16.8335 2.33398 15.458 2.33398 13.9997C2.33398 12.3858 2.64043 10.8691 3.25332 9.44967C3.86543 8.03023 4.69648 6.79551 5.74648 5.74551C6.79648 4.69551 8.03121 3.86406 9.45065 3.25117C10.8701 2.63906 12.3868 2.33301 14.0007 2.33301C15.6145 2.33301 17.1312 2.63906 18.5506 3.25117C19.9701 3.86406 21.2048 4.69551 22.2548 5.74551C23.3048 6.79551 24.1359 8.03023 24.748 9.44967C25.3609 10.8691 25.6673 12.3858 25.6673 13.9997C25.6673 15.458 25.4145 16.8386 24.909 18.1413C24.4034 19.4441 23.7132 20.6108 22.8382 21.6413C22.6243 21.8747 22.3618 21.9913 22.0506 21.9913C21.7395 21.9913 21.4673 21.8747 21.234 21.6413C21.0201 21.4275 20.9085 21.1599 20.8992 20.8387C20.889 20.5182 20.9909 20.2316 21.2048 19.9788C21.8659 19.1622 22.3863 18.2483 22.7658 17.2372C23.1446 16.2261 23.334 15.1469 23.334 13.9997C23.334 11.3941 22.4298 9.18717 20.6215 7.37884C18.8132 5.57051 16.6062 4.66634 14.0007 4.66634C11.3951 4.66634 9.18815 5.57051 7.37982 7.37884C5.57148 9.18717 4.66732 11.3941 4.66732 13.9997C4.66732 15.1469 4.8571 16.221 5.23665 17.222C5.61543 18.2238 6.1451 19.133 6.82565 19.9497C7.03954 20.2025 7.14182 20.4891 7.13248 20.8095C7.12237 21.1307 7.00065 21.408 6.76732 21.6413C6.53398 21.8747 6.26176 21.9863 5.95065 21.9762C5.63954 21.9668 5.37704 21.8455 5.16315 21.6122ZM8.45898 18.2872C8.01176 17.6844 7.65709 17.0233 7.39498 16.3038C7.1321 15.5844 7.00065 14.8163 7.00065 13.9997C7.00065 12.0552 7.68121 10.4025 9.04232 9.04134C10.4034 7.68023 12.0562 6.99967 14.0007 6.99967C15.9451 6.99967 17.5979 7.68023 18.959 9.04134C20.3201 10.4025 21.0007 12.0552 21.0007 13.9997C21.0007 14.8163 20.8696 15.5941 20.6075 16.333C20.3446 17.0719 19.9895 17.733 19.5423 18.3163C19.3479 18.5691 19.09 18.6955 18.7688 18.6955C18.4484 18.6955 18.1618 18.5691 17.909 18.3163C17.6951 18.1025 17.5831 17.84 17.573 17.5288C17.5637 17.2177 17.6562 16.9163 17.8507 16.6247C18.1229 16.2358 18.327 15.8228 18.4632 15.3857C18.5993 14.9478 18.6673 14.4858 18.6673 13.9997C18.6673 12.7163 18.2104 11.6177 17.2965 10.7038C16.3826 9.78995 15.284 9.33301 14.0007 9.33301C12.7173 9.33301 11.6187 9.78995 10.7048 10.7038C9.79093 11.6177 9.33398 12.7163 9.33398 13.9997C9.33398 14.5052 9.40709 14.9719 9.55332 15.3997C9.69876 15.8275 9.89787 16.2358 10.1507 16.6247C10.3451 16.9163 10.4326 17.2224 10.4132 17.5428C10.3937 17.8641 10.277 18.1316 10.0632 18.3455C9.82982 18.5788 9.55293 18.6905 9.23248 18.6803C8.91126 18.671 8.65343 18.54 8.45898 18.2872ZM14.0007 25.6663C13.6701 25.6663 13.3932 25.5543 13.17 25.3303C12.946 25.1071 12.834 24.8302 12.834 24.4997V16.0122C12.484 15.7983 12.202 15.521 11.9882 15.1803C11.7743 14.8405 11.6673 14.4469 11.6673 13.9997C11.6673 13.358 11.896 12.8085 12.3533 12.3512C12.8099 11.8946 13.359 11.6663 14.0007 11.6663C14.6423 11.6663 15.1918 11.8946 15.6492 12.3512C16.1057 12.8085 16.334 13.358 16.334 13.9997C16.334 14.4469 16.227 14.8455 16.0132 15.1955C15.7993 15.5455 15.5173 15.8177 15.1673 16.0122V24.4997C15.1673 24.8302 15.0557 25.1071 14.8325 25.3303C14.6085 25.5543 14.3312 25.6663 14.0007 25.6663Z" fill="#212121"/>
</svg>
