<svg width="20" height="20" viewBox="0 0 20 20" fill="none" xmlns="http://www.w3.org/2000/svg">
<path d="M10.8327 7.91666H2.49935C2.04102 7.91666 1.66602 8.29166 1.66602 8.74999C1.66602 9.20833 2.04102 9.58333 2.49935 9.58333H10.8327C11.291 9.58333 11.666 9.20833 11.666 8.74999C11.666 8.29166 11.291 7.91666 10.8327 7.91666ZM10.8327 4.58333H2.49935C2.04102 4.58333 1.66602 4.95833 1.66602 5.41666C1.66602 5.87499 2.04102 6.24999 2.49935 6.24999H10.8327C11.291 6.24999 11.666 5.87499 11.666 5.41666C11.666 4.95833 11.291 4.58333 10.8327 4.58333ZM14.9993 11.25V8.74999C14.9993 8.29166 14.6243 7.91666 14.166 7.91666C13.7077 7.91666 13.3327 8.29166 13.3327 8.74999V11.25H10.8327C10.3743 11.25 9.99935 11.625 9.99935 12.0833C9.99935 12.5417 10.3743 12.9167 10.8327 12.9167H13.3327V15.4167C13.3327 15.875 13.7077 16.25 14.166 16.25C14.6243 16.25 14.9993 15.875 14.9993 15.4167V12.9167H17.4993C17.9577 12.9167 18.3327 12.5417 18.3327 12.0833C18.3327 11.625 17.9577 11.25 17.4993 11.25H14.9993ZM2.49935 12.9167H7.49935C7.95768 12.9167 8.33268 12.5417 8.33268 12.0833C8.33268 11.625 7.95768 11.25 7.49935 11.25H2.49935C2.04102 11.25 1.66602 11.625 1.66602 12.0833C1.66602 12.5417 2.04102 12.9167 2.49935 12.9167Z" fill="#212121"/>
</svg>
