<svg width="193" height="161" viewBox="0 0 193 161" fill="none" xmlns="http://www.w3.org/2000/svg">
<g clip-path="url(#clip0_1656_4279)">
<path d="M104.948 0.720448C102.157 0.24627 99.331 0.00528853 96.5 0C68.3196 0 45.4948 22.8248 45.4948 51.0052C45.4948 61.8246 48.8962 71.8216 54.612 80.1132C58.1186 74.9616 66.2061 71.4072 75.5815 71.4072C82.0209 71.4072 87.8451 73.1063 92.0179 75.8383L104.948 0.720448ZM132.051 14.4759C140.859 33.9535 133.131 44.3586 133.131 44.3586C127.154 26.3792 109.844 23.7525 109.844 23.7525C109.844 23.7525 98.4573 85.1117 98.4573 85.8831C98.4573 92.5297 91.3995 98.1467 81.8169 99.8458C86.5796 101.279 91.5263 102.008 96.5 102.01C124.68 102.01 147.505 79.1855 147.505 51.0052C147.505 36.6823 141.579 23.7493 132.051 14.4759Z" fill="#C10606"/>
</g>
<path d="M26.4027 126.013V131.869H16.1296V159.616H10.273V131.869H0V126.013H26.4027Z" fill="#212121"/>
<path d="M27.3309 150.735V135.614H33.1875V149.199C33.1875 150.143 33.4195 151.007 33.8836 151.791C34.3476 152.559 34.9637 153.176 35.7317 153.64C36.5158 154.088 37.3719 154.312 38.3 154.312C39.2601 154.312 40.1242 154.088 40.8923 153.64C41.6603 153.176 42.2764 152.559 42.7405 151.791C43.2045 151.007 43.4365 150.143 43.4365 149.199V135.614H49.2931L49.3171 159.616H43.4605L43.4365 157.432C42.6044 158.296 41.6203 158.984 40.4842 159.496C39.3481 159.992 38.132 160.24 36.8359 160.24C35.0917 160.24 33.4995 159.816 32.0594 158.968C30.6192 158.104 29.4671 156.96 28.603 155.536C27.7549 154.096 27.3309 152.495 27.3309 150.735Z" fill="#212121"/>
<path d="M76.108 144.447V159.616H70.2514V145.983C70.2514 145.039 70.0193 144.183 69.5553 143.415C69.0912 142.63 68.4672 142.014 67.6831 141.566C66.915 141.102 66.0589 140.87 65.1148 140.87C64.1707 140.87 63.3067 141.102 62.5226 141.566C61.7545 142.014 61.1384 142.63 60.6744 143.415C60.2263 144.183 60.0023 145.039 60.0023 145.983V159.616H54.1457L54.1217 135.614H59.9783L60.0023 137.75C60.8184 136.886 61.7945 136.206 62.9306 135.71C64.0667 135.198 65.2909 134.942 66.603 134.942C68.3472 134.942 69.9393 135.374 71.3795 136.238C72.8196 137.086 73.9637 138.23 74.8118 139.67C75.6759 141.094 76.108 142.686 76.108 144.447Z" fill="#212121"/>
<path d="M90.9823 160.24C88.7741 160.24 86.7579 159.672 84.9337 158.536C83.1255 157.4 81.6774 155.872 80.5893 153.952C79.5172 152.031 78.9811 149.911 78.9811 147.591C78.9811 145.847 79.2932 144.215 79.9172 142.694C80.5413 141.158 81.3974 139.814 82.4855 138.662C83.5896 137.494 84.8697 136.582 86.3259 135.926C87.782 135.27 89.3342 134.942 90.9823 134.942C92.8545 134.942 94.5667 135.342 96.1189 136.142C97.687 136.926 99.0151 138.006 100.103 139.382C101.191 140.758 101.983 142.326 102.479 144.087C102.976 145.847 103.088 147.687 102.816 149.607H85.2698C85.4938 150.503 85.8618 151.311 86.3739 152.031C86.8859 152.735 87.534 153.304 88.3181 153.736C89.1021 154.152 89.9902 154.368 90.9823 154.384C92.0064 154.4 92.9345 154.16 93.7666 153.664C94.6147 153.152 95.3188 152.463 95.8788 151.599L101.855 152.991C100.879 155.12 99.4232 156.864 97.487 158.224C95.5508 159.568 93.3826 160.24 90.9823 160.24ZM85.0777 145.215H96.8869C96.7109 144.255 96.3349 143.391 95.7588 142.622C95.1988 141.838 94.5027 141.214 93.6706 140.75C92.8385 140.286 91.9424 140.054 90.9823 140.054C90.0222 140.054 89.1341 140.286 88.3181 140.75C87.502 141.198 86.8059 141.814 86.2298 142.598C85.6698 143.367 85.2858 144.239 85.0777 145.215Z" fill="#212121"/>
<path d="M121.696 152.391L126.977 155.248C125.872 156.752 124.488 157.96 122.824 158.872C121.16 159.784 119.344 160.24 117.376 160.24C115.167 160.24 113.151 159.672 111.327 158.536C109.519 157.4 108.071 155.88 106.983 153.976C105.91 152.055 105.374 149.935 105.374 147.615C105.374 145.855 105.686 144.215 106.311 142.694C106.935 141.158 107.791 139.814 108.879 138.662C109.983 137.494 111.263 136.582 112.719 135.926C114.175 135.27 115.727 134.942 117.376 134.942C119.344 134.942 121.16 135.398 122.824 136.31C124.488 137.222 125.872 138.446 126.977 139.982L121.696 142.814C121.136 142.174 120.472 141.678 119.704 141.326C118.952 140.974 118.176 140.798 117.376 140.798C116.224 140.798 115.183 141.118 114.255 141.758C113.327 142.382 112.591 143.214 112.047 144.255C111.503 145.279 111.231 146.399 111.231 147.615C111.231 148.815 111.503 149.935 112.047 150.975C112.591 151.999 113.327 152.823 114.255 153.448C115.183 154.072 116.224 154.384 117.376 154.384C118.208 154.384 119 154.208 119.752 153.856C120.504 153.488 121.152 152.999 121.696 152.391Z" fill="#212121"/>
<path d="M148.634 135.614H154.49V159.616H148.634L148.37 156.64C147.713 157.712 146.841 158.584 145.753 159.256C144.681 159.912 143.409 160.24 141.937 160.24C140.161 160.24 138.497 159.904 136.944 159.232C135.392 158.56 134.024 157.632 132.84 156.448C131.672 155.264 130.752 153.896 130.08 152.343C129.424 150.791 129.096 149.127 129.096 147.351C129.096 145.639 129.408 144.031 130.032 142.526C130.672 141.022 131.56 139.702 132.696 138.566C133.832 137.43 135.144 136.542 136.632 135.902C138.12 135.262 139.721 134.942 141.433 134.942C143.017 134.942 144.433 135.294 145.681 135.998C146.945 136.702 148.017 137.598 148.898 138.686L148.634 135.614ZM141.793 154.6C143.041 154.6 144.145 154.288 145.105 153.664C146.065 153.039 146.817 152.199 147.361 151.143C147.905 150.071 148.178 148.895 148.178 147.615C148.178 146.319 147.905 145.143 147.361 144.087C146.817 143.014 146.057 142.166 145.081 141.542C144.121 140.918 143.025 140.606 141.793 140.606C140.561 140.606 139.433 140.926 138.409 141.566C137.4 142.19 136.592 143.03 135.984 144.087C135.392 145.143 135.096 146.319 135.096 147.615C135.096 148.911 135.4 150.087 136.008 151.143C136.616 152.199 137.424 153.039 138.433 153.664C139.457 154.288 140.577 154.6 141.793 154.6Z" fill="#212121"/>
<path d="M166.354 160.048C165.106 159.968 163.897 159.72 162.729 159.304C161.577 158.872 160.553 158.288 159.657 157.552C158.761 156.816 158.073 155.936 157.593 154.912L162.537 152.799C162.729 153.119 163.041 153.464 163.473 153.832C163.905 154.184 164.418 154.48 165.01 154.72C165.618 154.96 166.282 155.08 167.002 155.08C167.61 155.08 168.186 155 168.73 154.84C169.29 154.664 169.738 154.4 170.074 154.048C170.426 153.696 170.602 153.24 170.602 152.679C170.602 152.087 170.394 151.631 169.978 151.311C169.578 150.975 169.066 150.727 168.442 150.567C167.834 150.391 167.242 150.231 166.666 150.087C165.146 149.783 163.729 149.311 162.417 148.671C161.121 148.031 160.073 147.207 159.273 146.199C158.489 145.175 158.097 143.943 158.097 142.502C158.097 140.918 158.513 139.55 159.345 138.398C160.193 137.246 161.289 136.358 162.633 135.734C163.993 135.11 165.458 134.798 167.026 134.798C168.93 134.798 170.674 135.198 172.258 135.998C173.858 136.782 175.123 137.894 176.051 139.334L171.418 142.07C171.194 141.686 170.882 141.334 170.482 141.014C170.082 140.678 169.626 140.406 169.114 140.198C168.602 139.974 168.066 139.846 167.506 139.814C166.786 139.782 166.13 139.846 165.538 140.006C164.946 140.166 164.466 140.438 164.097 140.822C163.745 141.206 163.569 141.718 163.569 142.358C163.569 142.966 163.809 143.423 164.289 143.727C164.77 144.015 165.346 144.239 166.018 144.399C166.706 144.559 167.362 144.735 167.986 144.927C169.394 145.391 170.714 145.959 171.946 146.631C173.194 147.303 174.195 148.127 174.947 149.103C175.699 150.079 176.059 151.247 176.027 152.607C176.027 154.16 175.563 155.52 174.635 156.688C173.706 157.84 172.506 158.72 171.034 159.328C169.578 159.936 168.018 160.176 166.354 160.048Z" fill="#212121"/>
<path d="M193 141.47H188.343V159.616H182.487V141.47H178.934V135.614H182.487V128.077H188.343V135.614H193V141.47Z" fill="#212121"/>
<defs>
<clipPath id="clip0_1656_4279">
<rect width="102" height="102" fill="white" transform="translate(45.4948)"/>
</clipPath>
</defs>
</svg>
