<svg width="28" height="28" viewBox="0 0 28 28" fill="none" xmlns="http://www.w3.org/2000/svg">
<path d="M23.332 14.3198C23.332 14.7628 23.0029 15.1289 22.5758 15.1868L22.457 15.1948L4.95703 15.1948C4.47378 15.1948 4.08203 14.8031 4.08203 14.3198C4.08203 13.8768 4.41121 13.5108 4.8383 13.4528L4.95703 13.4448L22.457 13.4448C22.9403 13.4448 23.332 13.8366 23.332 14.3198Z" fill="#212121"/>
<path d="M12.633 20.7281C12.9755 21.0691 12.9766 21.6231 12.6357 21.9656C12.3257 22.2769 11.8397 22.3062 11.4966 22.0527L11.3982 21.9682L4.33991 14.9402C4.02766 14.6293 3.99926 14.1415 4.25471 13.7984L4.33986 13.7002L11.3982 6.67102C11.7406 6.33002 12.2946 6.33116 12.6356 6.67358C12.9456 6.98487 12.9729 7.47103 12.718 7.81305L12.6331 7.91101L6.19769 14.3205L12.633 20.7281Z" fill="#212121"/>
</svg>
