<svg width="20" height="20" viewBox="0 0 20 20" fill="none" xmlns="http://www.w3.org/2000/svg">
<path fill-rule="evenodd" clip-rule="evenodd" d="M6.39102 1.66699H13.616C16.441 1.66699 18.3327 3.65033 18.3327 6.60033V13.4095C18.3327 16.3503 16.441 18.3337 13.616 18.3337H6.39102C3.56602 18.3337 1.66602 16.3503 1.66602 13.4095V6.60033C1.66602 3.65033 3.56602 1.66699 6.39102 1.66699ZM9.52435 12.492L13.4827 8.53366C13.766 8.25033 13.766 7.79199 13.4827 7.50033C13.1993 7.21699 12.7327 7.21699 12.4493 7.50033L9.00768 10.942L7.54935 9.48366C7.26602 9.20033 6.79935 9.20033 6.51602 9.48366C6.23268 9.76699 6.23268 10.2253 6.51602 10.517L8.49935 12.492C8.64102 12.6337 8.82435 12.7003 9.00768 12.7003C9.19935 12.7003 9.38268 12.6337 9.52435 12.492Z" fill="#C10606"/>
</svg>
