<svg width="28" height="28" viewBox="0 0 28 28" fill="none" xmlns="http://www.w3.org/2000/svg">
<path d="M7.00065 21.6688C9.57432 21.6688 11.6673 19.5758 11.6673 17.0022V5.16634L22.1673 8.98367V17.652C21.4613 17.2314 20.6558 17.007 19.834 17.0022C17.2603 17.0022 15.1673 19.0952 15.1673 21.6688C15.1673 24.2425 17.2603 26.3355 19.834 26.3355C22.4076 26.3355 24.5007 24.2425 24.5007 21.6688V8.167C24.5008 7.92764 24.4272 7.69403 24.2898 7.49801C24.1525 7.30198 23.958 7.15305 23.733 7.0715L10.8997 2.40484C10.7235 2.34043 10.5344 2.3195 10.3484 2.34382C10.1624 2.36814 9.98499 2.437 9.8313 2.54454C9.67761 2.65207 9.55215 2.79512 9.46557 2.96152C9.37899 3.12792 9.33385 3.31276 9.33398 3.50034V12.9853C8.628 12.5647 7.82243 12.3404 7.00065 12.3355C4.42698 12.3355 2.33398 14.4285 2.33398 17.0022C2.33398 19.5758 4.42698 21.6688 7.00065 21.6688Z" fill="#212121"/>
</svg>
