<svg width="24" height="24" viewBox="0 0 24 24" fill="none" xmlns="http://www.w3.org/2000/svg">
<path d="M18.0065 13.5323C17.4157 13.5362 16.833 13.671 16.3005 13.9269C15.768 14.1828 15.2987 14.5535 14.9265 15.0123L9.8265 12.6623C10.0663 11.9281 10.0663 11.1366 9.8265 10.4023L14.9265 8.05234C15.5281 8.77831 16.3668 9.26842 17.2946 9.43618C18.2225 9.60394 19.1797 9.43857 19.9974 8.96924C20.8152 8.49992 21.4409 7.75682 21.764 6.87108C22.0872 5.98535 22.0871 5.01392 21.7638 4.12825C21.4405 3.24257 20.8146 2.49958 19.9968 2.03041C19.179 1.56123 18.2217 1.39603 17.2939 1.56396C16.3662 1.7319 15.5275 2.22216 14.926 2.94824C14.3245 3.67431 13.9989 4.58952 14.0065 5.53234C14.0095 5.77057 14.0329 6.00811 14.0765 6.24234L8.7965 8.67234C8.23358 8.12192 7.52074 7.74986 6.7473 7.60277C5.97386 7.45568 5.17422 7.54011 4.44855 7.84547C3.72288 8.15084 3.10346 8.66356 2.6679 9.3194C2.23234 9.97524 2 10.745 2 11.5323C2 12.3196 2.23234 13.0894 2.6679 13.7453C3.10346 14.4011 3.72288 14.9138 4.44855 15.2192C5.17422 15.5246 5.97386 15.609 6.7473 15.4619C7.52074 15.3148 8.23358 14.9428 8.7965 14.3923L14.0765 16.8223C14.0329 17.0566 14.0095 17.2941 14.0065 17.5323C14.0065 18.3235 14.2411 19.0968 14.6806 19.7546C15.1201 20.4124 15.7449 20.9251 16.4758 21.2279C17.2067 21.5306 18.0109 21.6098 18.7869 21.4555C19.5628 21.3011 20.2755 20.9202 20.8349 20.3608C21.3943 19.8014 21.7753 19.0886 21.9296 18.3127C22.084 17.5368 22.0048 16.7325 21.702 16.0016C21.3993 15.2707 20.8866 14.646 20.2288 14.2065C19.571 13.7669 18.7976 13.5323 18.0065 13.5323ZM18.0065 3.53234C18.4021 3.53234 18.7887 3.64964 19.1176 3.8694C19.4465 4.08916 19.7029 4.40152 19.8543 4.76697C20.0056 5.13243 20.0452 5.53456 19.9681 5.92252C19.8909 6.31048 19.7004 6.66685 19.4207 6.94655C19.141 7.22626 18.7846 7.41674 18.3967 7.49391C18.0087 7.57108 17.6066 7.53148 17.2411 7.3801C16.8757 7.22872 16.5633 6.97238 16.3436 6.64348C16.1238 6.31458 16.0065 5.9279 16.0065 5.53234C16.0065 5.00191 16.2172 4.4932 16.5923 4.11813C16.9674 3.74305 17.4761 3.53234 18.0065 3.53234ZM6.0065 13.5323C5.61094 13.5323 5.22426 13.415 4.89536 13.1953C4.56646 12.9755 4.31011 12.6632 4.15874 12.2977C4.00736 11.9323 3.96776 11.5301 4.04493 11.1422C4.1221 10.7542 4.31258 10.3978 4.59228 10.1181C4.87199 9.83842 5.22836 9.64794 5.61632 9.57077C6.00428 9.4936 6.40641 9.53321 6.77186 9.68458C7.13732 9.83596 7.44967 10.0923 7.66944 10.4212C7.8892 10.7501 8.0065 11.1368 8.0065 11.5323C8.0065 12.0628 7.79578 12.5715 7.42071 12.9466C7.04564 13.3216 6.53693 13.5323 6.0065 13.5323ZM18.0065 19.5323C17.6109 19.5323 17.2243 19.415 16.8954 19.1953C16.5665 18.9755 16.3101 18.6632 16.1587 18.2977C16.0074 17.9323 15.9678 17.5301 16.0449 17.1422C16.1221 16.7542 16.3126 16.3978 16.5923 16.1181C16.872 15.8384 17.2284 15.6479 17.6163 15.5708C18.0043 15.4936 18.4064 15.5332 18.7719 15.6846C19.1373 15.836 19.4497 16.0923 19.6694 16.4212C19.8892 16.7501 20.0065 17.1368 20.0065 17.5323C20.0065 18.0628 19.7958 18.5715 19.4207 18.9466C19.0456 19.3216 18.5369 19.5323 18.0065 19.5323Z" fill="#212121"/>
</svg>
